<svg xmlns="http://www.w3.org/2000/svg" xmlns:xlink="http://www.w3.org/1999/xlink" version="1.1" x="0px" y="0px" viewBox="0 0 1000 1000" enable-background="new 0 0 1000 1000" xml:space="preserve"><metadata><?xpacket begin="&#65279;" id="W5M0MpCehiHzreSzNTczkc9d"?><x:xmpmeta xmlns:x="adobe:ns:meta/" x:xmptk="Adobe XMP Core 5.5-c014 79.151739, 2013/04/03-12:12:15        "></x:xmpmeta><?xpacket end="w"?></metadata><path d="M605.2,74.1c-0.6-61.9-87.1-59.5-106.9-58.1c-19.8-1.4-106.3-3.8-106.9,58.1c-0.3,33.7,2.3,49.8,5.2,57.3l203.7-0.7  C603.1,123,605.6,106.9,605.2,74.1z"></path><path d="M450.1,411.8l-0.2-0.3l1.2-2.6c0-0.1,5.6-12.2,4.9-34.1c-0.6-19.9-28-28.5-28.3-28.6l-13.9-4.2l13.7-4.7  c0.2-0.1,20.8-7.3,36.6-21.9c11.6-10.7,15.2-46.5,15.9-63.5c-32.6,1.3-55.2,6.5-69.1,11.1c-9.8,3.2-16.5,6.5-20.5,8.8  c5.8,20.8,13.7,49.9,17.3,53.1c4,3.6-12.5,18.8-14.8,22c-2.2,3.1-17.5,10.3-17.5,33.6c0,0.4,0,0.9,0,1.3  c-3.1,20.6,0.2,45.9,39.3,48.2c3.6-0.7,8.3-1.7,13.1-3.2C436.6,424.3,447.5,419.4,450.1,411.8z M443.7,278.8  c10.4,0,18.8,8.4,18.8,18.8s-8.4,18.8-18.8,18.8s-18.8-8.4-18.8-18.8C424.9,287.3,433.3,278.8,443.7,278.8z M401.5,409  c-8.3,0-15-10.8-15-24.2c0-13.4,6.7-24.2,15-24.2s15,10.8,15,24.2S409.8,409,401.5,409z"></path><path d="M498.3,202.7c4-0.1,64.5-2,110.4,19.9c0.6-36.6-10.9-73.1-14.1-82.4l-192.7,0.6c-3.4,10.2-14.5,46.1-13.9,82  C402.3,215.3,436.1,202.2,498.3,202.7z"></path><path d="M543.1,329.2c11.7,12.7,23.3,15.3,23.5,15.3l13.5,2.9l-12.5,6c-0.1,0.1-14.3,7-20.9,17.7c-5.4,8.8-4.3,29.9-3.4,37.3  l0.3,2.3l-0.1,0.1c4,13.1,25.7,18,38.4,19.3c39-2.4,42.2-27.7,39.2-48.2c0-0.4,0-0.9,0-1.3c0-23.3-15.2-30.5-17.5-33.6  c-2.2-3.1-18.8-18.4-14.8-22c3.6-3.2,11.6-32.6,17.4-53.4c-29.2-14.4-66.2-18.5-88.4-19.5C519.1,285.9,527.7,312.5,543.1,329.2z   M595.3,360.6c8.3,0,15,10.8,15,24.2c0,13.4-6.7,24.2-15,24.2s-15-10.8-15-24.2C580.3,371.5,587,360.6,595.3,360.6z M553,278.8  c10.4,0,18.8,8.4,18.8,18.8s-8.4,18.8-18.8,18.8s-18.8-8.4-18.8-18.8C534.2,287.3,542.7,278.8,553,278.8z"></path><path d="M498.3,242.3c4-0.2,66.3-2,112.4,20.9c9.8-7.6,8.6-23-2.6-29.7c0-0.2,0-0.5,0.1-0.7c-44.6-23-109-20.8-109.7-20.8h-0.1h-0.1  c-42.6-0.3-71,6-87.3,11.4c-11.6,3.8-18.8,7.7-22.5,9.9c0,0.1,0,0.2,0,0.2c-11.3,6.7-12.4,22.3-2.4,29.9  C399.3,256.2,433.3,241.9,498.3,242.3z"></path><path d="M383.6,844.7c3.5,12.9,12.5,32.3,20.2,43.8c9,13.4,11.2,24.2,13,33.2s3.6,13.4,3.6,13.4s-34.9,21.5-40.8,34.5  c7.6,13.9,13,22.4,37.6,12.5s48.8-33.6,49.3-46.6c0.4-13,0.9-22.4-5.8-21.5c-6.7,0.9-12.5-39.4-26-53.3c-5-5.2-8.4-9.2-10.6-12.2  C405.5,840.8,391.8,842.2,383.6,844.7z"></path><path d="M377.2,825.5c-1.5,3.3-1.9,7.4,1.8,10.9c9.1-3.2,24.2-5.5,44.6,1.9c4.9-4.9,12.3-14.4,6.6-21.4  C429.5,816.8,402.7,814.8,377.2,825.5z"></path><path d="M617.6,836.6c6.5-6,1.2-13.3-1.9-16.6c-12.7-3.2-32.4-3.8-49-3.2c-5,5.9-0.4,13.6,4.1,18.9c7-2.2,15.4-4,24.3-4  C604,831.7,611.6,833.9,617.6,836.6z"></path><path d="M575.6,844.1c-1.6,2.8-5.3,8.1-13.6,16.7c-13.4,13.9-19.3,54.2-26,53.3s-6.3,8.5-5.8,21.5c0.4,13,24.6,36.7,49.3,46.6  c24.6,9.9,30,1.3,37.6-12.5c-5.8-13-40.8-34.5-40.8-34.5s1.8-4.5,3.6-13.4c1.8-9,4-19.7,13-33.2c7.6-11.5,16.6-30.8,20.2-43.7  c-4.9-2.1-11-3.8-17.9-3.8C588.2,841.1,581.4,842.4,575.6,844.1z"></path><path d="M613.9,810c-0.2-12.9-1.2-38.7-5.3-60.8c-4.4-23.6-25.3-49.8-35-60.9c-8.3,9-21.9,28.4-35.8,53.3l-5.6,10l-3-11.1  c-0.4-1.4-9.4-34.5-9.4-63.1c0-26.1,14.6-40.5,19.2-44.4c-5-9-11.9-23.7-15.1-41.6c-5.4-30-4.6-114.8-3.6-115.6  c13.9-10.8,21.5-0.4,21.5-0.4s4.9,11.2,13,23.7s32.7,43.5,32.7,43.5s-1.8,3.6-2.7,13.9c-0.9,10.3,1.8,44.8,1.8,44.8  s-8.1,6.7-22.4,18.8c-14.3,12.1-19.3,22.4-19.3,22.4s-0.3-0.5-0.9-1.3c-4.4,4-14.8,15.8-14.8,36.3c0,17.4,3.7,37.2,6.3,49.3  c3.3-5.5,7.6-12.6,12.3-19.8c10.6-16.1,17.7-24.5,22.7-28.8c2.3-5.2,6.8-13.5,13.8-18.1c10.8-7.2,15.7-9.4,26-17.5  s10.3-70.3,4.9-131.3c-3.4-38.9-23.1-61.2-36.9-72.2c-12.3-1.6-34.5-6.5-42.2-21.5c-9.1,7.9-27.3,21.6-43.2,21.6  c-15.6,0-29.3-12-36.4-19.5c-4.5,6.8-13.2,12.3-26,16.3c-4.4,1.4-8.6,2.3-12.1,3c-13.8,11-33.6,33.3-37.1,72.3  c-5.4,60.9-5.4,123.2,4.9,131.3s15.2,10.3,26,17.5s15.7,22.8,15.7,22.8s-0.1,0.1-0.3,0.3c6.2,9.8,18.4,24.3,26.2,33.3  c1.1-9.5,2.9-24.7,4.9-41.3c3-25.6-15.2-42.9-15.3-43l0.6-0.6c-2.9-3.4-6.6-7.2-11.5-11.3c-14.3-12.1-22.4-18.8-22.4-18.8  s2.7-34.5,1.8-44.8c-0.9-10.3-2.7-13.9-2.7-13.9s24.6-30.9,32.7-43.5c8.1-12.5,13-23.7,13-23.7s7.6-10.3,21.5,0.4  c1.1,0.8,1.8,85.6-3.6,115.6c-3.3,18.6-10.6,33.7-15.7,42.6c6,8.7,13.2,23.5,10.9,42.2c-3.3,27.9-6,51.5-6,51.7l-0.5,4l-4,0.1  c-0.2,0-0.3,0-0.5,0c-2.2,0-3.4-1.2-18-18.5c-7.8-9.3-13.8-17.1-17.8-23.1c-10.2,12.1-28.9,36.5-33.1,58.7  c-4.6,24.3-5.3,53-5.4,64.2c20-6.4,38.6-6.3,45.4-6.1c10.5-15.1,12.6-15.6,23.1-28.1c11.6-13.9,13.9-16.1,20.6-23.7  c6.7-7.6,5.4-5.4,12.1-7.2c4.6-1.2,10.5-1.4,13.9-1.4l0,0c0.1,0,0.3,0,0.4,0s0.3,0,0.4,0l0,0c3.4,0,9.4,0.2,13.9,1.4  c6.7,1.8,5.4-0.4,12.1,7.2c6.7,7.6,9,9.9,20.6,23.7c10.5,12.5,12.6,13,23.1,28.1C581.3,806.9,599.5,807.1,613.9,810z"></path><path d="M538.7,366.2c4.3-7,10.8-12.5,16.1-16.1c-15.4-7.8-43.6-30.8-46.2-95.9l-19.1-0.9c-0.2,5.5-0.8,14.9-2.3,25.2  c-3.2,21.9-8.7,36.7-16.5,43.9c-10,9.2-21.4,15.6-29.5,19.4c10.1,5.3,23.8,15.7,24.3,32.8c0.5,18.3-2.9,30.4-4.7,35.6  c4.5,5.3,17.9,19.6,32.3,19.6c13.9,0,32.8-15.1,40.8-22.6C530.9,379.8,537.9,367.6,538.7,366.2z"></path></svg>