<svg xmlns="http://www.w3.org/2000/svg" xmlns:xlink="http://www.w3.org/1999/xlink" version="1.1" x="0px" y="0px" viewBox="0 0 1000 1000" enable-background="new 0 0 1000 1000" xml:space="preserve"><metadata><?xpacket begin="&#65279;" id="W5M0MpCehiHzreSzNTczkc9d"?><x:xmpmeta xmlns:x="adobe:ns:meta/" x:xmptk="Adobe XMP Core 5.5-c014 79.151739, 2013/04/03-12:12:15        "></x:xmpmeta><?xpacket end="w"?></metadata><path d="M696.5,344c0,0,31-83,31-203C705.9,84.1,633.4,60.2,575,50.2C573.8,31.7,558.4,17,539.6,17h-71c-18.3,0-33.3,13.8-35.3,31.5  C373.3,57.4,293,80.6,270,141c0,120,31,203,31,203s11.5-40.5,32.5-40.5c-11.3-42.2,21.1-133.5,102.3-166.1  c5.4,12.8,18,21.7,32.7,21.7h71c13.2,0,24.7-7.2,30.8-17.9c74.8,35.4,104.4,121.7,93.6,162.3C685,303.5,696.5,344,696.5,344z"></path><path d="M301,346.5c0,0-91-57-96.5,42.5s41.5,235.5,118,190.5C308,515.5,295.5,418.5,301,346.5z"></path><path d="M794.6,389c-5.5-99.5-96.5-42.5-96.5-42.5c5.5,72-7,169-21.5,233C753.1,624.5,800.1,488.5,794.6,389z"></path><path d="M679,388.5c0,0-50.4-133.8-175.2-46.2c-124.8-87.6-175.2,46.2-175.2,46.2c53.5-52.5,125.5-52,147-15.5s9,89.5-8.5,141  c8-7.5,21-0.5,32,0c0.5,3.5-1.5,23-1.5,23h6h0.5h6c0,0-2-19.5-1.5-23c11-0.5,24-7.5,32,0c-17.5-51.5-30-104.5-8.5-141  S625.5,336,679,388.5z"></path><path d="M442.5,383.5C354,346,345,424,345,424C373.5,383.5,422,383,442.5,383.5z"></path><path d="M345.9,423.1c0,0,61.5,48.8,97.6-40.3C429.3,397.6,394.6,431.5,345.9,423.1z"></path><path d="M641.4,424c0,0-9-78-97.5-40.5C564.4,383,612.9,383.5,641.4,424z"></path><path d="M543,382.7c36.1,89.1,97.6,40.3,97.6,40.3C591.8,431.5,557.1,397.6,543,382.7z"></path><path d="M393,654.5c0,0,21.5-77.7,111.8-77.7l-1.3,28.2C503.5,605,413,611,393,654.5z"></path><path d="M613.3,654.5c0,0-21.5-77.7-111.8-77.7l1.3,28.2C502.8,605,593.3,611,613.3,654.5z"></path><path d="M613.3,653.5c-26.5,35.1-102,27.9-109.8,27.1v-0.1c0,0-0.1,0-0.3,0c-0.2,0-0.3,0-0.3,0v0.1c-7.8,0.8-83.3,8-109.8-27.1  c0,0,22.9,77.6,109.8,78v0c0.1,0,0.2,0,0.3,0c0.1,0,0.2,0,0.3,0v0C590.4,731.1,613.3,653.5,613.3,653.5z"></path><path d="M632.7,738c-31,29-51,71-51,81c-18,16.3-30,17-77.8,17c-47.9,0-59.9-0.7-77.8-17c0-10-20-52-51-81  c10.7,16,51.3,198.4,60.2,239h137.2C581.4,936.4,622,754,632.7,738z"></path></svg>