<svg xmlns="http://www.w3.org/2000/svg" xmlns:xlink="http://www.w3.org/1999/xlink" version="1.1" x="0px" y="0px" viewBox="0 0 100 100" enable-background="new 0 0 100 100" xml:space="preserve"><path fill="#000000" d="M62.918,16.735c-8.998-5.789-19.745-7.359-30.217-5.442c-23.7,4.338-28.174,17.25-28.245,17.464l1.306,0.651  c0,0,0.704-1.03,2.128-2.539c7.217-7.659,17.297-11.815,27.868-11.993C24.111,18.773,6.771,31.321,9.335,50.432l1.454,0.04  c0.786-4.128,2.354-8.429,5.111-12.353c-1.433,4.301-2.584,9.071-2.956,12.945l1.444,0.27c0.432-1.528,0.974-3.045,1.646-4.516  c-0.917,4.411-1.172,9.042-1.197,12.226l1.461,0.144c0.641-3.379,1.799-6.713,3.688-9.793c-2.415,6.471-3.485,15.168-2.808,23.72  l1.464,0.032c0.41-3.443,1.314-6.709,2.618-9.795l0.081,0.049c1.405,4.033,4.196,5.543,6.157,6.013l1.865,8.537  c1.539,3.712,3.611,6.836,6.906,9.298c0.596,0.572,1.314,0.902,1.821,1.611c3.557,4.006,5.148,4.146,11.127,4.235h0.067h0.052  c5.979-0.089,7.571-0.229,11.13-4.235c0.505-0.709,1.226-1.039,1.819-1.611c3.297-2.462,5.369-5.587,6.908-9.298l1.865-8.545  c1.961-0.479,4.729-1.996,6.125-6.011c0.146-0.084,0.287-0.174,0.416-0.272c-0.076,1.339-0.203,2.677-0.385,4.008l1.333,0.527  c3.737-5.263,5.774-13.3,6.179-19.254c1.037,2.13,1.779,4.354,2.289,6.611l1.457-0.195c-0.387-8.886-0.974-17.667-7.839-24.452  c2.196,0.242,4.306,0.665,6.294,1.398l0.631-1.327c-4.33-2.552-8.955-4.925-13.824-6.264c14.229-1.753,23.356,12.116,23.396,12.179  l1.335-0.581C94.453,19.541,77.893,11.008,62.918,16.735z M23.136,63.91l0.109,0.002c0.98,0,0.98-1.477,0-1.477  c-0.242,0-0.48-0.037-0.717-0.125c-0.247-0.037-0.482-0.123-0.697-0.248c0.872-1.864,1.889-3.66,3.029-5.383  c0.016,2.375,0.473,4.264,1.181,5.793c0.067,0.422,0.157,0.924,0.274,1.514l0.826,3.783C25.824,67.288,24.215,66.206,23.136,63.91z   M67.82,77.52c-1.364,3.293-3.16,5.912-5.896,8.188c0.058-1.218-0.018-2.024-0.054-2.33c1.471-3.22,1.822-7.917,1.919-11.437  c0.935-1.861,3.187-3.637,4.795-4.827c0.634-0.47,1.269-1.003,1.862-1.624L67.82,77.52z M75.3,62.438l-0.146-0.004  c-0.982-0.021-1.016,1.452-0.033,1.474l0.152,0.005l0.115-0.003c-1.068,2.276-2.66,3.356-3.971,3.846l0.824-3.769  c0.126-0.607,0.223-1.121,0.293-1.555c0.892-1.937,1.374-4.449,1.072-7.805c-0.181,0.299-0.475,0.521-0.823,0.602  c0.424,6.363-2.179,9.303-4.716,11.188c-1.744,1.289-3.363,2.64-4.465,4.176c-0.09,0.124-0.312,0.438-0.476,0.73  c-0.647-1.206-1.494-2.337-2.358-3.285c-0.441-0.021-0.877-0.065-1.301-0.14c1.166,1.111,2.409,2.638,3.139,4.313  c0.104,0.238,0.197,0.424,0.281,0.565c-0.057,1.232-0.193,3.471-0.521,5.566c-0.478,3.055-1.333,4.77-1.333,4.77  c-0.012,0.021-0.047,0.238-0.041,0.264c0,0,0.177,1.107,0.017,3.05c-0.612,0.448-1.214,0.917-1.667,1.539  c-0.299,0.337-0.572,0.647-0.837,0.937c-2.584,2.82-5.414,2.703-9.229,2.758c-3.695-0.055-5.596-0.346-6.866-0.905  c-1.341-0.592-2.257-1.726-3.203-2.788c-0.476-0.654-1.114-1.138-1.788-1.631c-0.006-0.034-0.012-0.066-0.022-0.104  c-0.358-1.211-0.566-2.627-0.634-3.941c0.05,0.014,0.103,0.021,0.157,0.035c0.566,0.101,0.722-0.752,0.153-0.854  c-0.888-0.162-1.735-1.013-1.722-1.94c0.01-0.579-0.856-0.591-0.865-0.013c-0.013,0.746,0.336,1.453,0.869,1.979  c-0.006,0.105-0.008,0.234-0.006,0.385c0.004,0.942,0.108,1.957,0.284,2.944c-2.187-2.068-3.709-4.431-4.899-7.308l-2.625-12.03  c0.595,0.62,1.225,1.153,1.86,1.624c1.733,1.281,3.257,2.562,4.275,3.982c0.804,1.129,1.075,1.963,1.048,4.155  c-0.009,0.579,0.858,0.59,0.865,0.013c0.028-2.32-0.263-3.353-1.207-4.672c-1.103-1.537-2.724-2.887-4.466-4.176  c-2.519-1.871-5.103-4.78-4.727-11.051c0.216-0.299,0.43-0.594,0.649-0.889c0.533,0.154,1.39,0.554,1.39,1.537  c0,1.426,0.012,1.661,0.012,1.661c0,5.248,4.254,9.502,9.503,9.502c1.712,0,3.319-0.452,4.706-1.245l0.021,0.119  c0.196,1.008,0.8,1.771,1.997,1.771c0.493,0,0.926-0.137,1.374-0.488l0.12-0.095c0.211,0.06,0.453,0.019,0.67-0.181l0.126-0.112  c0.128,0.14,0.265,0.271,0.41,0.389c1.067,1.661,3.994,1.651,5.047-0.028c0.139-0.113,0.268-0.233,0.38-0.359l0.127,0.113  c0.219,0.198,0.461,0.238,0.671,0.18l0.125,0.095c0.447,0.353,0.879,0.488,1.374,0.488c1.193,0,1.797-0.765,1.997-1.771  c0.009-0.045,0.015-0.089,0.019-0.134c1.396,0.803,3.01,1.26,4.733,1.26c5.248,0,9.502-4.254,9.502-9.502  c0,0,0.011-0.236,0.011-1.662c0-1.287,1.469-1.572,1.76-1.617c0.244,0,0.442-0.198,0.442-0.442v-1.612  c0-0.228-0.171-0.414-0.393-0.438l-1.351-0.008c0,0-0.715-0.064-1.506-0.508c-0.486-0.272-1.191-0.619-2.088-0.952  c0.044-0.287,0.087-0.582,0.172-0.86l-0.046-0.043c0.354-2.762,0.445-5.879,0.445-8.92c2.313,3.071,3.823,6.506,4.754,10.044  l1.444-0.248c-0.265-3.404-1.104-7.527-2.223-11.418c3.983,6.602,5.645,14.197,5.547,21.842C77.102,61.855,76.216,62.43,75.3,62.438  z M47.451,46.266c4.267-1.052,11.252-4.181,15.316-8.266c1.662,3.177,2.584,6.598,2.893,10.124c-1.374-0.7-3.001-1.145-4.745-1.275  c-7.446-0.551-8.761,2.206-8.931,4.762l0.068,0.033c1.28-1.677,4.711-3.035,8.217-3.181c2.094-0.088,3.926,0.146,5.455,0.506  c0.018,0.301,0.028,0.6,0.037,0.902c-1.503-0.377-3.336-0.63-5.457-0.542c-3.402,0.142-6.511,1.462-7.562,2.839  c-0.743,0.983-0.802-0.343-3.481-0.343c-2.678,0-2.736,1.326-3.479,0.343c-1.053-1.377-4.158-2.697-7.563-2.839  c-4.503-0.187-7.716,1.163-9.222,1.977c7.862-8.887,18.985-15.442,29.463-19.371c-2.47,5.956-6.717,10.096-11.564,12.981  L47.451,46.266z M45.658,62.229c0.737-1.351,1.159-2.901,1.159-4.552v-2.722c0,0-0.154-1.352,2.445-1.314  c2.603-0.037,2.445,1.314,2.445,1.314v2.722c0,1.64,0.415,3.185,1.148,4.528c-0.125,0.234-0.047,0.58,0.305,0.64  c2.227,0.39,3.488,4.112,1.303,4.112c-0.305,0-0.561-0.079-0.861-0.318l-0.064-0.052c0.023-0.206-0.047-0.429-0.25-0.614  c-0.252-0.229-0.626-0.565-1.164-0.691c-0.857-0.201-0.948,1.302-2.642,1.428c-0.067,0.005-0.117,0.005-0.15,0.005l-0.081-0.002  l-0.094,0.002c-0.786,0.019-1.621-0.407-1.988-1.099c-0.179-0.34-0.565-0.389-0.795-0.334c-0.538,0.126-0.912,0.463-1.162,0.691  c-0.206,0.188-0.274,0.409-0.247,0.617L44.9,66.639c-0.3,0.239-0.555,0.318-0.859,0.318c-2.189,0-0.925-3.723,1.302-4.112  C45.679,62.787,45.764,62.462,45.658,62.229z M53.975,62.193c-0.816-1.312-1.289-2.858-1.289-4.518c0-4.691,3.795-7.221,8.527-7.221  c1.551,0,3.004,0.271,4.253,0.803c0.185,0.072,0.458,0.2,0.841,0.414c2.09,1.182,3.438,3.21,3.438,6.004  c0,4.71-3.821,8.529-8.531,8.529c-1.844,0-3.548-0.584-4.941-1.575C55.878,63.639,55.008,62.641,53.975,62.193z M37.316,50.456  c4.732,0,8.526,2.528,8.526,7.221c0,1.653-0.47,3.194-1.282,4.503c-1.055,0.44-1.947,1.465-2.339,2.477  c-1.389,0.978-3.081,1.551-4.905,1.551c-4.713,0-8.534-3.818-8.534-8.529C28.782,52.984,32.58,50.456,37.316,50.456z M69.885,23.473  L70,24.91c4.009,0.496,8.325,2.309,11.953,4.135c-1.902-0.27-3.822-0.361-5.739-0.478c7.394,5.903,9.771,11.681,10.524,20.704  c-1.197-2.858-2.861-5.593-5.125-8.062l-1.088,0.997c1.067,1.16,1.99,2.384,2.793,3.658l0.009,0.758  c-0.063,4.921-1.504,12.017-4.302,17.408C79.68,55.239,78.032,48.359,76,43.41c-1.459-3.558-3.247-6.226-5.473-9.266l-1.289,0.689  c0.996,2.713,1.898,5.801,2.566,8.806c-1.402-2.687-3.201-4.872-5.195-7.114c0.066,2.623,0.119,5.234-0.01,7.857  c-0.674-3.192-1.929-6.062-3.547-8.89c-3.109,3.539-6.828,5.843-11.13,7.678c4.634-3.87,7.007-7.958,8.976-13.622  c-7.428,2.407-14.78,6.126-21.162,10.489C31.092,45.95,22.021,54.7,18.465,66.725c0.19-9.285,2.402-17.868,5.903-22.578l0.219-0.305  c1.996-1.824,4.402-3.462,7.285-4.85l-0.638-1.327c-7.702,3.706-12.177,9.151-14.6,15.112c0.368-3.734,1.091-7.825,2.459-11.112  c3.942-5.192,10.202-9.343,19.95-11.088l-0.262-1.451c-12.23,2.189-19.27,8.084-23.132,15.163c0.726-2.964,1.681-5.999,2.718-8.676  l0.367-0.929c6.132-6.364,16.259-11.075,32.53-11.223l-0.012-1.474C25.617,22.22,14.577,33.625,10.591,45.428  c0.918-18.318,21.394-29.453,30.723-30.322l0.007-1.467c-7.849-0.784-15.569,0.399-22.415,3.543  c4.581-2.208,9.594-3.62,14.062-4.438c10.526-1.927,20.843-0.235,29.769,5.633c12.641-4.681,27.982,0.158,33.17,14.064  C89.314,25.096,80.124,20.483,69.885,23.473z M56.73,79.186c0,0-0.078,0.082-0.231,0.198c-0.604,0.453-1.342,0.694-2.097,0.688  c0.07,0.451-0.262,0.972-0.863,0.859c-1.299-0.246-2.691-0.377-4.146-0.377c-1.455,0-2.845,0.131-4.136,0.377  c-0.608,0.113-0.944-0.421-0.866-0.877c-0.913,0.066-1.961-0.221-2.597-0.869c-0.408-0.412,0.207-1.021,0.617-0.611  c0,0,0.047,0.048,0.137,0.117c0.598,0.447,1.375,0.611,2.112,0.451c1.479-0.313,3.089-0.375,4.603-0.375  c1.51,0,3.125,0.062,4.605,0.375c0.741,0.164,1.688-0.022,2.249-0.568C56.525,78.165,57.141,78.773,56.73,79.186z M32.818,53.712  c2.939-1.882,7.585-1.873,10.793-0.046c1.005,0.572,0.147,2.075-0.857,1.505c-0.556-0.313-1.159-0.562-1.795-0.748  c-0.284,0.915-1.141,1.583-2.148,1.583c-1.105,0-2.024-0.801-2.216-1.854c-1.059,0.166-2.042,0.508-2.841,1.019  C32.779,55.795,31.845,54.334,32.818,53.712z M57.568,54.423c-0.635,0.187-1.24,0.435-1.795,0.748  c-1.006,0.57-1.861-0.933-0.856-1.505c3.208-1.827,7.854-1.836,10.79,0.046c0.977,0.622,0.04,2.083-0.934,1.459  c-0.799-0.511-1.785-0.853-2.844-1.019c-0.188,1.053-1.107,1.854-2.214,1.854C58.707,56.006,57.854,55.338,57.568,54.423z   M46.543,51.611l-0.069,0.033c-1.281-1.677-4.712-3.035-8.216-3.181c-3.133-0.129-5.676,0.45-7.495,1.112  c1.636-1.532,4.099-2.523,6.849-2.728C45.06,46.298,46.372,49.055,46.543,51.611z M57.118,76.52  c-0.649-0.186-1.241-0.185-2.597-0.726c-1.625-0.034-3.444,0.019-4.515,0.047c-0.243,0.056-0.491,0.089-0.745,0.089  c-0.257,0-0.512-0.033-0.761-0.092c-0.482,0.018-2.696-0.068-4.582-0.055c-0.748,0.257-1.48,0.515-2.058,0.631  c-0.438,0.089-0.75,0.163-1.282,0.48c-0.846,0.504-1.601-0.763-0.759-1.266c0.837-0.501,6.239-2.023,6.865-2.054  c0.574-0.024,0.972,0.021,1.4,0.422c0.312,0.298,0.747,0.456,1.176,0.456c0.476,0,0.89-0.188,1.226-0.504l0.162-0.149  c0,0,0.109-0.094,0.402-0.165c1.18-0.283,3.016,0.391,4.016,0.788c1.283,0.513,1.842,0.502,2.457,0.681  C58.473,75.376,58.062,76.793,57.118,76.52z"></path></svg>