<svg xmlns="http://www.w3.org/2000/svg" xmlns:xlink="http://www.w3.org/1999/xlink" version="1.1" x="0px" y="0px" viewBox="0 0 100 100" enable-background="new 0 0 100 100" xml:space="preserve"><polygon points="31.671,33.458 67.121,33.458 67.121,78.639 31.671,78.639 31.671,33.458 "></polygon><polygon points="56.465,13.905 57.375,14.181 58.23,14.568 59.031,15.093 59.252,15.203 59.473,15.176 59.693,15.065 59.805,14.844   59.832,14.596 59.639,14.016 59.279,13.463 58.811,13.021 58.258,12.718 57.652,12.552 57.016,12.552 56.408,12.718 55.828,13.021   55.387,13.463 55.332,13.602 55.387,13.74 55.525,13.795 "></polygon><polygon points="53.869,8.548 53.73,9.652 53.4,10.702 52.875,11.696 52.213,12.607 51.412,13.381 50.5,13.988 50.639,12.884   50.971,11.834 51.467,10.84 52.129,9.929 52.957,9.155 "></polygon><polygon points="57.127,16.998 56.961,18.738 56.934,19.374 56.74,20.009 56.381,20.534 55.912,20.975 55.359,21.306 55.248,21.417   55.221,21.583 55.332,21.693 55.414,21.914 55.387,22.135 55.248,22.328 55.057,22.439 54.504,22.66 54.035,23.046 53.703,23.571   53.564,24.123 53.564,24.731 53.758,25.311 54.117,25.78 54.586,26.14 55.441,26.499 56.354,26.691 57.264,26.691 58.176,26.471   59.004,26.084 59.75,25.532 60.826,24.648 61.82,23.654 62.703,22.549 63.447,21.362 63.504,21.003 63.422,20.644 63.201,20.368   62.869,20.174 62.178,19.954 61.57,19.594 61.322,19.512 61.129,19.649 59.887,21.472 59.529,21.638 59.143,21.555 58.865,21.306   58.756,20.92 58.699,20.146 58.756,19.374 58.729,19.015 58.59,18.711 58.342,18.462 57.734,17.744 57.375,16.888 57.264,16.833   57.154,16.86 "></polygon><polygon points="69.33,27.576 69.412,27.824 69.605,27.99 69.854,28.073 71.346,28.073 71.648,28.017 71.869,27.796 71.924,27.493   71.896,24.234 71.73,23.46 71.371,22.743 70.875,22.107 70.268,21.61 69.578,21.251 68.832,21.031 68.031,20.975 67.258,21.113   66.514,21.389 65.988,21.886 65.602,22.494 65.326,23.157 65.188,23.848 65.188,24.565 65.299,24.759 65.463,24.869 65.686,24.869   66.266,24.593 66.873,24.455 67.479,24.51 68.086,24.703 68.611,25.035 69.025,25.504 69.303,26.084 69.412,26.691 69.355,27.299   "></polygon><polygon points="77.777,30.448 77.252,30.365 76.783,30.061 76.369,29.813 75.873,29.757 75.375,29.868 74.988,30.144   74.713,30.558 74.381,31.773 74.271,33.043 74.326,34.287 74.547,35.529 74.961,36.716 75.568,37.821 76.922,40.03 78.137,42.323   78.605,42.599 79.186,42.24 78.744,41.052 78.633,40.003 78.744,38.953 79.047,37.959 79.572,37.021 80.234,36.219 81.063,35.556   81.256,35.308 81.283,35.004 81.201,34.728 81.008,34.507 80.98,34.231 81.063,33.982 81.283,33.79 82.139,33.513 83.023,33.458   83.547,33.319 83.961,32.961 84.238,32.491 84.293,31.967 84.127,31.442 83.547,30.779 82.803,30.254 82.166,29.813 81.67,29.205   81.311,28.487 81.172,27.713 81.008,26.857 80.648,26.084 80.15,25.366 79.516,25.035 78.771,24.924 78.053,25.063 77.418,25.421   77.225,25.67 77.197,25.974 77.336,26.222 77.584,26.388 78.439,26.719 79.186,27.216 79.793,27.907 80.207,28.708 80.428,29.591   80.4,29.896 80.234,30.171 79.959,30.31 79.654,30.31 78.992,30.199 78.301,30.282 "></polygon><polygon fill="none" stroke="#000000" stroke-miterlimit="10" points="49.396,99.186 49.837,99.129 50.28,98.992 50.639,98.715   50.971,98.301 51.246,97.887 51.385,97.775 51.578,97.75 51.992,97.914 52.24,97.998 52.461,98.025 52.709,97.971 52.902,97.859   53.096,97.666 53.234,97.445 53.316,97.17 53.316,96.865 53.262,96.561 53.262,96.313 53.316,96.146 53.4,96.119 53.537,96.146   53.785,96.176 53.869,96.119 53.896,96.037 53.869,95.787 53.896,95.705 53.979,95.678 54.227,95.732 54.531,95.844 55.084,96.092   55.553,96.285 56.354,96.59 57.098,96.781 57.9,96.92 58.783,97.004 59.693,97.031 60.66,96.947 61.627,96.811 62.592,96.561   63.531,96.203 64.443,95.76 65.299,95.182 66.043,94.49 66.707,93.744 67.176,92.916 67.369,92.502 67.479,92.061 67.535,91.645   67.563,91.23 67.451,90.32 67.424,89.795 67.451,89.547 67.563,89.381 67.783,89.354 68.031,89.354 68.445,89.547 68.805,89.879   69.08,90.293 69.303,90.707 69.494,91.148 69.605,91.59 69.688,92.033 69.633,92.971 69.273,94.85 69.246,95.76 69.303,96.176   69.439,96.617 69.633,97.004 69.908,97.391 70.572,98.08 71.346,98.66 72.172,99.158 73.029,99.516 73.912,99.738 74.822,99.793   75.734,99.709 76.645,99.488 77.529,99.158 78.385,98.77 79.213,98.328 79.986,97.805 80.703,97.252 81.365,96.617 82.002,95.953   84.432,93.164 84.844,92.336 85.203,91.508 85.59,90.68 86.059,89.906 86.695,89.105 86.777,88.912 86.805,88.691 86.695,88.498   86.529,88.305 86.309,88.166 86.115,88.082 85.701,88.057 85.23,88.166 84.707,88.359 84.1,88.525 83.879,88.553 83.74,88.441   83.713,88.248 83.74,88 83.852,87.531 83.988,87.063 84.182,86.646 84.432,86.26 84.734,85.93 85.039,85.598 85.314,85.238   85.424,84.99 85.48,84.715 85.48,84.41 85.424,84.162 85.314,83.996 85.121,83.914 84.65,84.023 84.514,83.969 84.459,83.748   84.514,83.168 84.65,82.67 84.789,82.229 84.928,81.842 84.955,81.4 84.873,80.932 84.707,80.461 84.402,80.129 84.209,80.02   83.988,79.963 83.52,79.992 83.023,80.186 82.553,80.516 82.139,80.82 81.945,80.902 81.752,80.932 81.588,80.848 81.449,80.682   81.229,80.24 81.145,79.799 81.172,79.328 81.311,78.887 81.561,78.418 81.891,78.004 82.277,77.617 82.719,77.258 83.133,76.953   83.215,76.789 83.244,76.596 83.16,76.4 82.996,76.236 82.746,76.098 82.471,76.043 81.945,76.07 81.752,76.043 81.697,75.932   81.752,75.711 81.891,75.49 82.277,75.021 82.664,74.689 83.078,74.441 83.438,74.221 83.768,73.971 84.018,73.641 84.182,73.227   84.459,72.314 84.844,71.402 85.23,70.547 85.59,69.664 85.811,68.807 85.838,68.338 85.811,67.896 85.563,66.93 85.48,66.459   85.508,66.238 85.563,66.018 85.867,65.658 86.033,65.465 86.115,65.299 86.115,65.135 86.033,64.969 85.895,64.803 85.701,64.637   84.707,64.002 84.514,63.836 84.348,63.67 84.266,63.477 84.293,63.283 84.459,62.842 84.568,62.621 84.596,62.428 84.568,62.234   84.484,62.068 84.348,61.93 84.154,61.793 83.686,61.6 83.078,61.461 82.471,61.406 81.836,61.434 81.338,61.406 81.117,61.352   80.98,61.268 80.924,61.102 80.896,60.881 81.035,60.385 81.311,59.971 81.643,59.666 81.973,59.334 82.25,59.004 82.443,58.588   82.582,58.146 82.912,57.264 83.133,56.877 83.465,56.545 84.154,55.938 84.484,55.605 84.762,55.191 84.928,54.777 84.955,54.309   84.955,53.84 85.01,53.617 85.121,53.396 85.701,52.568 85.811,52.375 85.867,52.209 85.838,52.043 85.729,51.879 85.563,51.768   85.369,51.658 84.844,51.52 84.266,51.52 83.713,51.658 83.271,51.879 83.078,51.934 82.857,51.879 82.691,51.713 82.553,51.52   82.471,51.078 82.525,50.083 82.498,49.116 82.416,48.205 82.387,47.349 82.553,46.52 82.857,45.692 83.299,44.863 83.852,43.979   84.154,43.51 84.402,43.041 84.459,42.847 84.459,42.626 84.375,42.46 84.209,42.323 83.768,42.102 83.299,41.936 82.803,41.881   82.359,41.881 81.918,41.963 81.531,42.157 81.117,42.378 80.676,42.571 80.51,42.571 80.428,42.433 80.4,42.24 80.455,41.991   80.676,41.384 80.951,40.832 81.229,40.417 81.531,40.113 81.863,39.864 82.277,39.589 82.719,39.257 82.912,39.092 83.023,38.898   83.049,38.705 82.967,38.512 82.691,38.125 82.553,37.904 82.525,37.71 82.582,37.518 82.746,37.324 82.967,37.186 83.215,37.076   83.492,37.048 83.795,37.076 84.043,37.158 84.293,37.324 84.707,37.738 85.039,38.125 85.203,38.235 85.342,38.291 85.48,38.235   85.617,38.07 85.783,37.601 85.867,37.13 85.811,36.689 85.617,36.275 85.369,35.888 85.094,35.501 84.9,35.087 84.873,34.618   84.982,34.121 85.26,33.679 85.645,33.319 86.086,33.099 86.584,33.099 87.053,33.154 87.273,33.154 87.439,33.071 87.578,32.905   87.688,32.712 87.826,32.215 87.826,31.663 87.799,31.138 87.799,30.696 87.854,30.502 87.965,30.337 88.324,30.061 88.516,29.896   88.654,29.702 88.738,29.481 88.793,29.232 88.793,28.956 88.709,28.708 88.6,28.487 88.434,28.266 88.213,28.1 87.936,27.962   87.412,27.769 87.246,27.659 87.246,27.493 87.771,26.691 87.965,26.277 88.131,25.836 88.186,25.421 88.158,24.979 88.02,24.51   87.799,24.068 87.494,23.654 87.109,23.323 86.916,23.212 86.723,23.185 86.529,23.212 86.363,23.268 85.977,23.543 85.48,23.875   85.23,23.985 85.039,24.013 84.982,23.985 84.982,23.902 85.039,23.682 85.287,23.129 85.508,22.632 85.617,22.163 85.617,21.776   85.508,21.389 85.23,21.031 84.844,20.754 84.375,20.561 83.852,20.451 83.326,20.506 82.857,20.671 82.498,20.92 82.387,21.113   82.305,21.306 82.193,21.749 82.111,21.969 81.945,22.19 81.752,22.356 81.643,22.383 81.561,22.328 81.422,22.135 81.395,21.886   81.531,21.445 81.725,21.003 81.779,20.588 81.67,20.119 81.449,19.677 80.98,18.876 80.869,18.407 80.842,17.938 80.703,17.771   80.51,17.661 80.262,17.606 80.014,17.578 79.766,17.633 79.545,17.744 79.186,18.048 78.965,18.489 78.826,18.932 78.771,19.401   78.771,19.843 78.771,20.312 78.66,20.837 78.605,20.92 78.551,20.975 78.357,20.865 77.943,20.534 77.502,20.34 77.279,20.312   77.059,20.312 76.699,20.534 76.369,20.865 76.121,21.306 75.955,21.776 75.789,22.218 75.652,22.411 75.43,22.549 75.182,22.605   75.1,22.605 75.043,22.522 75.043,22.3 75.1,22.025 75.154,21.5 75.127,21.058 75.1,20.174 75.1,19.705 75.016,19.263   74.822,18.849 74.52,18.462 74.16,18.158 73.773,17.882 72.945,17.413 72.586,17.164 72.256,16.888 71.924,16.557 71.537,16.198   71.096,15.921 70.875,15.838 70.682,15.838 70.516,15.921 70.406,16.087 70.213,16.557 70.186,17.081 70.158,17.551 70.074,17.744   69.965,17.938 69.744,18.048 69.494,18.075 69.273,17.992 69.08,17.882 68.832,17.468 68.529,16.612 68.418,16.142 68.252,15.645   68.143,15.424 68.004,15.286 67.811,15.203 67.563,15.203 67.314,15.231 67.121,15.148 66.955,14.982 66.898,14.734 66.955,14.264   66.928,14.043 66.816,13.85 66.596,13.74 66.375,13.712 66.154,13.767 65.961,13.905 65.299,14.651 65.049,15.038 64.967,15.258   64.939,15.535 64.912,16.142 64.885,16.418 64.83,16.639 64.746,16.75 64.607,16.722 64.387,16.612 64.193,16.418 63.311,15.645   63.09,15.507 62.896,15.424 62.73,15.396 62.592,15.452 62.455,15.59 62.344,15.811 62.096,16.225 61.902,16.363 61.682,16.391   61.461,16.335 61.295,16.198 61.156,16.004 61.102,15.783 61.102,15.258 61.213,14.734 61.406,14.264 61.709,13.933 62.123,13.684   63.145,13.353 63.559,13.16 63.725,13.021 63.807,12.856 63.863,12.663 63.836,12.441 63.613,11.972 63.338,11.558 63.145,11.171   63.117,10.978 63.201,10.757 63.422,10.343 63.613,9.901 63.697,9.432 63.697,8.935 63.586,8.465 63.422,8.023 63.145,7.581   62.842,7.194 62.455,6.891 62.041,6.615 61.57,6.449 61.129,6.366 60.66,6.366 59.75,6.615 59.529,6.642 59.279,6.615 59.059,6.532   58.922,6.366 58.865,5.896 58.811,5.676 58.672,5.51 58.451,5.399 58.203,5.372 57.9,5.427 57.623,5.51 57.402,5.621 57.209,5.648   57.127,5.538 57.127,5.289 57.264,4.185 57.236,3.715 57.182,3.494 57.098,3.328 56.934,3.19 56.74,3.08 56.52,3.024 56.271,3.024   56.021,3.08 55.828,3.218 55.498,3.604 55.166,3.936 55,4.019 54.779,4.019 54.559,3.908 54.422,3.715 54.256,3.245 54.145,3.052   53.979,2.942 53.758,2.914 53.51,2.969 53.014,3.245 52.543,3.604 52.35,3.742 52.158,3.825 51.992,3.825 51.854,3.688 51.77,3.466   51.744,3.245 51.881,2.831 52.102,2.389 52.24,1.837 52.24,1.561 52.213,1.313 52.158,1.119 52.047,1.036 51.881,1.008   51.688,1.091 51.246,1.34 50.723,1.588 50.5,1.644 50.334,1.561 50.252,1.368 50.197,1.091 50.142,0.843 50.032,0.649 49.754,0.318   49.369,0.208 49.038,0.318 48.761,0.649 48.651,0.843 48.595,1.091 48.568,1.368 48.485,1.561 48.319,1.644 48.071,1.588   47.546,1.34 47.105,1.091 46.913,1.008 46.774,1.036 46.664,1.119 46.581,1.313 46.553,1.561 46.553,1.837 46.691,2.389   46.913,2.831 47.049,3.245 47.022,3.466 46.939,3.688 46.801,3.825 46.635,3.825 46.47,3.742 46.25,3.604 45.807,3.245   45.283,2.969 45.035,2.914 44.814,2.942 44.648,3.052 44.565,3.245 44.372,3.715 44.234,3.908 44.041,4.019 43.82,4.019   43.626,3.936 43.295,3.604 42.963,3.218 42.77,3.08 42.549,3.024 42.301,3.024 42.052,3.08 41.86,3.19 41.694,3.328 41.611,3.494   41.555,3.715 41.528,4.185 41.694,5.289 41.667,5.538 41.583,5.648 41.417,5.621 41.169,5.51 40.893,5.427 40.617,5.372   40.341,5.399 40.148,5.51 40.01,5.676 39.955,5.896 39.872,6.366 39.734,6.532 39.512,6.615 39.264,6.642 39.043,6.615 38.16,6.366   37.691,6.366 37.221,6.449 36.752,6.615 36.338,6.891 35.979,7.194 35.647,7.581 35.399,8.023 35.206,8.465 35.123,8.935   35.096,9.432 35.178,9.901 35.372,10.343 35.593,10.757 35.675,10.978 35.675,11.171 35.482,11.558 35.178,11.972 34.985,12.441   34.958,12.663 34.985,12.856 35.068,13.021 35.234,13.16 35.675,13.353 36.669,13.684 37.083,13.933 37.387,14.264 37.58,14.734   37.718,15.258 37.691,15.783 37.635,16.004 37.498,16.198 37.332,16.335 37.112,16.391 36.89,16.363 36.724,16.225 36.449,15.811   36.338,15.59 36.227,15.452 36.061,15.396 35.896,15.424 35.703,15.507 35.51,15.645 34.625,16.418 34.405,16.612 34.211,16.722   34.046,16.75 33.963,16.639 33.909,16.418 33.909,16.142 33.853,15.535 33.826,15.258 33.743,15.038 33.495,14.651 32.832,13.905   32.639,13.767 32.417,13.712 32.197,13.74 31.976,13.85 31.866,14.043 31.837,14.264 31.893,14.734 31.837,14.982 31.671,15.148   31.479,15.231 31.23,15.203 31.009,15.203 30.789,15.286 30.651,15.424 30.541,15.645 30.375,16.142 30.264,16.612 29.96,17.468   29.712,17.882 29.519,17.992 29.297,18.075 29.049,18.048 28.856,17.938 28.717,17.744 28.635,17.551 28.635,17.081 28.581,16.557   28.415,16.087 28.276,15.921 28.111,15.838 27.917,15.838 27.697,15.921 27.255,16.198 26.869,16.557 26.538,16.888 26.234,17.164   25.846,17.413 25.019,17.882 24.632,18.158 24.274,18.462 23.998,18.849 23.777,19.263 23.694,19.705 23.694,20.174 23.666,21.058   23.638,21.5 23.694,22.025 23.749,22.3 23.749,22.522 23.694,22.605 23.611,22.605 23.363,22.549 23.141,22.411 23.003,22.218   22.838,21.776 22.672,21.306 22.424,20.865 22.12,20.534 21.734,20.312 21.512,20.312 21.292,20.34 20.85,20.534 20.435,20.865   20.243,20.975 20.188,20.92 20.132,20.837 20.022,20.312 20.022,19.843 20.022,19.401 19.966,18.932 19.856,18.489 19.608,18.048   19.25,17.744 19.028,17.633 18.779,17.578 18.531,17.606 18.282,17.661 18.089,17.771 17.979,17.938 17.923,18.407 17.813,18.876   17.343,19.677 17.123,20.119 17.012,20.588 17.095,21.003 17.289,21.445 17.399,21.886 17.372,22.135 17.234,22.328 17.151,22.383   17.04,22.356 16.846,22.19 16.709,21.969 16.598,21.749 16.488,21.306 16.405,21.113 16.295,20.92 15.936,20.671 15.466,20.506   14.942,20.451 14.417,20.561 13.975,20.754 13.589,21.031 13.313,21.389 13.175,21.776 13.175,22.163 13.313,22.632 13.506,23.129   13.755,23.682 13.81,23.902 13.81,23.985 13.755,24.013 13.562,23.985 13.313,23.875 12.844,23.543 12.429,23.268 12.264,23.212   12.071,23.185 11.877,23.212 11.684,23.323 11.326,23.654 10.994,24.068 10.773,24.51 10.635,24.979 10.608,25.421 10.69,25.836   10.829,26.277 11.022,26.691 11.574,27.493 11.546,27.659 11.408,27.769 10.856,27.962 10.58,28.1 10.359,28.266 10.193,28.487   10.083,28.708 10.028,28.956 10,29.232 10.055,29.481 10.138,29.702 10.276,29.896 10.469,30.061 10.829,30.337 10.939,30.502   10.994,30.696 11.022,31.138 10.966,31.663 10.994,32.215 11.104,32.712 11.215,32.905 11.352,33.071 11.546,33.154 11.74,33.154   12.208,33.099 12.706,33.099 13.147,33.319 13.534,33.679 13.81,34.121 13.948,34.618 13.892,35.087 13.7,35.501 13.451,35.888   13.175,36.275 12.982,36.689 12.926,37.13 13.009,37.601 13.203,38.07 13.313,38.235 13.451,38.291 13.589,38.235 13.755,38.125   14.086,37.738 14.528,37.324 14.749,37.158 15.025,37.076 15.3,37.048 15.577,37.076 15.853,37.186 16.046,37.324 16.212,37.518   16.267,37.71 16.24,37.904 16.101,38.125 15.825,38.512 15.743,38.705 15.798,38.898 15.908,39.092 16.074,39.257 16.516,39.589   16.929,39.864 17.26,40.113 17.565,40.417 17.84,40.832 18.117,41.384 18.337,41.991 18.393,42.24 18.393,42.433 18.31,42.571   18.145,42.571 17.675,42.378 17.26,42.157 16.875,41.963 16.433,41.881 15.991,41.881 15.522,41.936 15.025,42.102 14.583,42.323   14.417,42.46 14.362,42.626 14.334,42.847 14.389,43.041 14.638,43.51 14.942,43.979 15.494,44.863 15.936,45.692 16.267,46.52   16.405,47.349 16.405,48.205 16.322,49.116 16.267,50.083 16.322,51.078 16.24,51.52 16.129,51.713 15.936,51.879 15.743,51.934   15.522,51.879 15.08,51.658 14.555,51.52 13.975,51.52 13.423,51.658 13.23,51.768 13.065,51.879 12.954,52.043 12.926,52.209   12.982,52.375 13.092,52.568 13.672,53.396 13.783,53.617 13.838,53.84 13.838,54.309 13.865,54.777 14.031,55.191 14.306,55.605   14.638,55.938 15.328,56.545 15.66,56.877 15.908,57.264 16.212,58.146 16.35,58.588 16.543,59.004 16.819,59.334 17.151,59.666   17.482,59.971 17.757,60.385 17.896,60.881 17.896,61.102 17.813,61.268 17.675,61.352 17.482,61.406 16.958,61.434 16.35,61.406   15.715,61.461 15.108,61.6 14.638,61.793 14.445,61.93 14.306,62.068 14.224,62.234 14.197,62.428 14.251,62.621 14.334,62.842   14.528,63.283 14.528,63.477 14.445,63.67 14.28,63.836 14.086,64.002 13.12,64.637 12.899,64.803 12.761,64.969 12.678,65.135   12.678,65.299 12.789,65.465 12.926,65.658 13.23,66.018 13.313,66.238 13.313,66.459 13.23,66.93 12.982,67.896 12.954,68.338   13.009,68.807 13.23,69.664 13.562,70.547 13.975,71.402 14.334,72.314 14.611,73.227 14.777,73.641 15.025,73.971 15.356,74.221   15.743,74.441 16.129,74.689 16.543,75.021 16.902,75.49 17.04,75.711 17.095,75.932 17.04,76.043 16.846,76.07 16.322,76.043   16.046,76.098 15.798,76.236 15.632,76.4 15.549,76.596 15.577,76.789 15.687,76.953 16.074,77.258 16.516,77.617 16.929,78.004   17.234,78.418 17.482,78.887 17.62,79.328 17.675,79.799 17.592,80.24 17.372,80.682 17.206,80.848 17.04,80.932 16.846,80.902   16.654,80.82 16.24,80.516 15.77,80.186 15.274,79.992 14.803,79.963 14.583,80.02 14.389,80.129 14.114,80.461 13.92,80.932   13.838,81.4 13.892,81.842 14.003,82.229 14.141,82.67 14.28,83.168 14.334,83.748 14.28,83.969 14.141,84.023 13.672,83.914   13.479,83.996 13.368,84.162 13.313,84.41 13.313,84.715 13.368,84.99 13.479,85.238 13.755,85.598 14.086,85.93 14.362,86.26   14.611,86.646 14.803,87.063 14.969,87.531 15.052,88 15.08,88.248 15.08,88.441 14.915,88.553 14.694,88.525 14.086,88.359   13.562,88.166 13.092,88.057 12.678,88.082 12.485,88.166 12.292,88.305 12.098,88.498 12.015,88.691 12.015,88.912 12.098,89.105   12.733,89.906 13.203,90.68 13.589,91.508 13.948,92.336 14.389,93.164 16.792,95.953 17.426,96.617 18.089,97.252 18.834,97.805   19.608,98.328 20.409,98.77 21.264,99.158 22.147,99.488 23.058,99.709 23.969,99.793 24.88,99.738 25.764,99.516 26.62,99.158   27.448,98.66 28.221,98.08 28.912,97.391 29.16,97.004 29.38,96.617 29.519,96.176 29.574,95.76 29.519,94.85 29.16,92.971   29.132,92.033 29.188,91.59 29.297,91.148 29.492,90.707 29.712,90.293 30.016,89.879 30.347,89.547 30.789,89.354 31.009,89.354   31.23,89.381 31.369,89.547 31.396,89.795 31.34,90.32 31.258,91.23 31.258,91.645 31.313,92.061 31.452,92.502 31.617,92.916   32.114,93.744 32.749,94.49 33.495,95.182 34.35,95.76 35.261,96.203 36.2,96.561 37.166,96.811 38.132,96.947 39.098,97.031   40.01,97.004 40.893,96.92 41.694,96.781 42.44,96.59 43.24,96.285 43.709,96.092 44.261,95.844 44.565,95.732 44.814,95.678   44.897,95.705 44.923,95.787 44.897,96.037 44.923,96.119 45.006,96.176 45.283,96.146 45.394,96.119 45.476,96.146 45.559,96.313   45.531,96.561 45.476,96.865 45.503,97.17 45.559,97.445 45.697,97.666 45.89,97.859 46.083,97.971 46.333,98.025 46.553,97.998   46.801,97.914 47.215,97.75 47.409,97.775 47.575,97.887 47.851,98.301 48.154,98.715 48.513,98.992 48.955,99.129 49.396,99.186   "></polygon><polygon points="48.292,13.988 47.38,13.381 46.581,12.607 45.917,11.696 45.42,10.702 45.089,9.652 44.923,8.548 45.862,9.155   46.664,9.929 47.326,10.84 47.823,11.834 48.154,12.884 "></polygon><polygon points="43.267,13.795 43.405,13.74 43.461,13.602 43.433,13.463 42.963,13.021 42.384,12.718 41.777,12.552 41.141,12.552   40.534,12.718 39.982,13.021 39.512,13.463 39.181,14.016 38.96,14.596 38.989,14.844 39.098,15.065 39.32,15.176 39.541,15.203   39.761,15.093 40.562,14.568 41.417,14.181 42.329,13.905 "></polygon><polygon points="41.638,16.86 41.528,16.833 41.417,16.888 41.059,17.744 40.452,18.462 40.203,18.711 40.065,19.015 40.037,19.374   40.092,20.146 40.037,20.92 39.955,21.306 39.651,21.555 39.264,21.638 38.906,21.472 37.663,19.649 37.47,19.512 37.249,19.594   36.615,19.954 35.923,20.174 35.62,20.368 35.372,20.644 35.289,21.003 35.344,21.362 36.089,22.549 36.973,23.654 37.967,24.648   39.071,25.532 39.789,26.084 40.645,26.471 41.528,26.691 42.44,26.691 43.35,26.499 44.206,26.14 44.675,25.78 45.035,25.311   45.228,24.731 45.255,24.123 45.089,23.571 44.758,23.046 44.289,22.66 43.737,22.439 43.543,22.328 43.405,22.135 43.378,21.914   43.488,21.693 43.571,21.583 43.543,21.417 43.461,21.306 42.881,20.975 42.412,20.534 42.081,20.009 41.86,19.374 41.832,18.738   41.667,16.998 "></polygon><polygon points="29.436,27.299 29.38,26.691 29.492,26.084 29.768,25.504 30.182,25.035 30.707,24.703 31.313,24.51 31.92,24.455   32.556,24.593 33.108,24.869 33.329,24.869 33.522,24.759 33.605,24.565 33.632,23.848 33.495,23.157 33.218,22.494 32.804,21.886   32.28,21.389 31.562,21.113 30.761,20.975 29.988,21.031 29.215,21.251 28.525,21.61 27.917,22.107 27.42,22.743 27.089,23.46   26.896,24.234 26.869,27.493 26.923,27.796 27.145,28.017 27.448,28.073 28.939,28.073 29.215,27.99 29.409,27.824 29.492,27.576   "></polygon><polygon points="20.491,30.282 19.8,30.199 19.138,30.31 18.834,30.31 18.558,30.171 18.393,29.896 18.365,29.591 18.586,28.708   19,27.907 19.608,27.216 20.353,26.719 21.208,26.388 21.485,26.222 21.595,25.974 21.568,25.67 21.375,25.421 20.74,25.063   20.022,24.924 19.304,25.035 18.641,25.366 18.145,26.084 17.813,26.857 17.648,27.713 17.482,28.487 17.123,29.205 16.626,29.813   15.991,30.254 15.274,30.779 14.666,31.442 14.5,31.967 14.583,32.491 14.832,32.961 15.245,33.319 15.77,33.458 16.681,33.513   17.537,33.79 17.731,33.982 17.84,34.231 17.786,34.507 17.592,34.728 17.509,35.004 17.565,35.308 17.731,35.556 18.558,36.219   19.221,37.021 19.746,37.959 20.049,38.953 20.16,40.003 20.077,41.052 19.635,42.24 20.188,42.599 20.657,42.323 21.871,40.03   23.251,37.821 23.832,36.716 24.246,35.529 24.494,34.287 24.522,33.043 24.411,31.773 24.081,30.558 23.804,30.144 23.417,29.868   22.921,29.757 22.424,29.813 22.009,30.061 21.54,30.365 21.015,30.448 "></polygon><polygon points="73.637,85.432 73.359,85.459 73.139,85.516 73.057,85.625 73.084,85.791 73.166,86.012 73.305,86.26 73.664,86.758   73.912,87.283 73.994,87.752 73.939,88.662 73.828,89.602 73.773,90.1 73.773,90.541 73.967,90.955 74.299,91.342 74.602,91.729   74.822,92.143 74.961,92.584 75.016,93.082 74.988,93.607 74.85,94.158 74.602,94.629 74.438,94.793 74.242,94.932 74.021,95.016   73.773,95.043 73.498,95.016 73.277,95.07 73.139,95.236 73.139,95.484 73.223,95.678 73.387,95.844 73.885,96.092 74.408,96.258   74.879,96.34 75.348,96.367 76.258,96.258 76.699,96.119 77.17,95.926 77.584,95.705 77.971,95.43 78.301,95.07 78.605,94.711   78.854,94.297 79.047,93.855 79.322,92.943 79.406,91.977 79.352,91.01 79.156,90.072 78.826,89.16 78.385,88.305 77.832,87.531   77.197,86.84 76.451,86.232 75.623,85.791 75.154,85.625 74.686,85.488 74.16,85.432 73.637,85.432 "></polygon><polygon points="57.928,84.52 57.127,84.328 56.354,84.051 55.994,83.969 55.719,83.914 55.525,83.969 55.414,84.105 55.441,84.383   55.525,84.686 55.691,85.322 55.828,85.902 55.828,86.51 55.773,86.785 55.662,87.088 55.277,87.641 55.057,87.861 54.779,88.027   54.504,88.166 54.172,88.193 53.564,88.166 53.262,88.221 52.984,88.359 52.791,88.58 52.764,88.885 53.014,89.492 53.51,90.68   53.785,91.203 54.145,91.674 54.559,92.088 55.057,92.418 55.607,92.668 56.215,92.861 56.877,92.943 57.209,92.943 57.486,92.861   57.707,92.668 57.871,92.418 58.23,91.895 58.479,91.729 58.783,91.645 59.113,91.645 59.445,91.701 59.75,91.811 59.998,91.977   60.191,92.197 60.273,92.502 60.439,93.082 60.605,93.357 60.854,93.551 61.129,93.689 61.434,93.744 61.736,93.744 62.041,93.689   62.621,93.469 63.201,93.137 63.725,92.723 64.193,92.281 64.58,91.783 64.83,91.26 64.939,90.65 64.912,90.045 64.746,89.436   64.471,88.885 63.697,87.861 63.338,87.365 63.063,86.867 62.896,86.344 62.896,86.068 62.951,85.764 63.063,85.432 63.256,85.072   63.477,84.686 63.643,84.355 63.67,84.217 63.643,84.135 63.531,84.105 63.395,84.105 62.703,84.105 61.461,84.023 60.854,83.996   60.273,84.023 59.721,84.135 59.197,84.328 58.617,84.494 58.285,84.549 57.928,84.52 "></polygon><polygon points="72.973,77.285 72.781,77.119 72.697,77.119 72.615,77.174 72.504,77.369 72.449,77.59 72.477,78.031 72.559,78.445   72.697,79.246 72.725,80.074 72.697,80.488 72.615,80.986 72.365,82.063 72.365,82.283 72.365,82.506 72.449,82.67 72.586,82.781   72.807,82.809 73.002,82.727 73.111,82.588 73.223,82.367 73.387,81.953 73.691,81.648 74.078,81.482 74.52,81.346 74.934,81.152   75.1,81.014 75.209,80.82 75.238,80.627 75.238,80.406 75.072,79.963 74.822,79.605 74.52,79.301 73.912,78.693 73.498,78.031   73.277,77.645 72.973,77.285 "></polygon><polygon points="75.623,71.266 75.32,71.459 74.934,71.568 74.52,71.707 74.16,71.928 73.885,72.203 73.691,72.535 73.607,72.922   73.607,73.309 73.773,74.109 73.967,74.91 74.188,75.684 74.354,76.043 74.547,76.375 75.072,76.926 75.652,77.479 76.176,78.086   76.535,78.777 76.783,79.08 77.143,79.301 77.279,79.301 77.363,79.191 77.363,78.998 77.336,78.721 77.225,78.197 77.17,77.754   77.17,76.98 77.17,76.291 77.143,75.877 77.115,75.463 77.115,74.992 77.17,74.605 77.252,74.441 77.391,74.33 77.584,74.248   77.777,74.221 77.998,74.221 78.164,74.303 78.439,74.551 78.715,74.855 78.908,75.021 79.102,75.076 79.24,75.021 79.352,74.828   79.434,74.441 79.545,74.055 79.736,73.723 80.316,73.17 80.566,72.838 80.648,72.48 80.703,72.066 80.814,71.623 81.008,71.293   81.145,71.182 81.283,71.127 81.67,71.154 82.084,71.209 82.525,71.209 82.912,71.127 83.271,70.906 83.52,70.602 83.686,70.215   83.713,69.828 83.629,69.414 83.438,69.055 83.271,68.918 83.105,68.834 82.664,68.807 82.471,68.807 82.305,68.752 82.223,68.641   82.193,68.447 82.25,68.006 82.359,67.564 82.443,67.178 82.359,66.764 82.25,66.57 82.111,66.459 81.973,66.543 81.809,66.707   81.643,67.096 81.588,67.482 81.504,67.867 81.338,68.227 81.09,68.559 80.787,68.807 80.4,68.945 80.014,69 79.6,68.973   79.186,68.807 79.02,68.697 78.908,68.559 78.826,68.393 78.826,68.199 79.047,67.398 79.102,66.984 79.074,66.598 78.965,66.211   78.826,65.824 78.605,65.492 78.357,65.189 78.053,64.969 77.668,64.83 77.279,64.803 76.865,64.83 76.451,64.914 76.066,65.078   75.375,65.492 74.797,66.018 74.326,66.682 74.105,67.039 74.021,67.398 74.078,67.813 74.188,67.951 74.326,68.006 74.713,68.006   75.182,67.924 75.652,67.84 76.094,67.867 76.479,68.006 76.811,68.199 77.115,68.504 77.363,68.834 77.445,69 77.473,69.193   77.418,69.359 77.309,69.498 76.977,69.773 76.59,70.049 76.258,70.299 76.01,70.574 75.623,71.266 "></polygon><polygon points="75.844,46.299 75.596,46.354 75.375,46.465 75.264,46.631 75.264,46.852 75.32,47.072 75.459,47.266 75.816,47.542   76.121,47.874 76.369,48.26 76.535,48.702 76.645,49.144 76.729,49.337 76.865,49.503 77.252,49.751 77.639,50 77.998,50.277   78.633,50.885 79.047,51.133 79.268,51.188 79.379,51.021 79.488,50.801 79.682,50.664 79.875,50.553 79.986,50.386 79.986,50.166   79.959,49.89 79.848,49.392 79.682,48.951 79.488,48.537 78.992,47.818 78.357,47.211 77.584,46.714 76.729,46.382 76.314,46.299   75.844,46.299 "></polygon><polygon points="72.449,56.711 72.559,56.904 72.752,57.016 73.248,57.18 73.773,57.264 74.217,57.346 74.658,57.457 75.1,57.65   75.486,57.926 75.734,58.313 75.873,58.783 75.955,59.252 76.148,60.162 76.342,60.66 76.479,60.826 76.645,60.826 76.783,60.715   76.949,60.467 77.17,59.914 77.336,59.004 77.557,58.563 77.693,58.367 77.887,58.203 78.08,58.092 78.33,58.037 78.551,57.982   78.744,57.871 78.881,57.678 78.965,57.457 79.074,56.988 79.074,56.49 78.992,56.02 78.854,55.578 78.66,55.137 78.412,54.75   78.109,54.363 77.777,54.006 77.418,53.674 77.088,53.342 77.031,53.148 77.004,52.928 77.031,52.402 77.004,51.879 76.865,51.381   76.59,50.939 76.232,50.635 76.01,50.553 75.789,50.525 75.32,50.607 74.879,50.773 74.438,50.912 73.994,50.967 73.002,50.994   72.752,51.021 72.559,51.105 72.477,51.326 72.449,51.547 72.449,56.711 "></polygon><polygon points="72.836,39.754 72.67,39.589 72.531,39.561 72.449,39.671 72.422,39.92 72.422,40.527 72.422,41.08 72.422,41.577   72.449,41.991 72.449,42.737 72.477,43.455 72.449,44.283 72.449,44.504 72.477,44.726 72.615,44.78 72.863,44.726 73.359,44.587   73.801,44.504 74.547,44.366 74.934,44.229 75.32,44.007 75.43,43.841 75.43,43.675 75.348,43.482 75.238,43.261 74.631,42.46   74.133,41.77 73.664,41.107 73.277,40.444 73.084,40.113 72.836,39.754 "></polygon><polygon points="25.184,85.432 24.632,85.432 24.135,85.488 23.638,85.625 23.197,85.791 22.341,86.232 21.595,86.84 20.96,87.531   20.409,88.305 19.966,89.16 19.635,90.072 19.442,91.01 19.387,91.977 19.469,92.943 19.746,93.855 19.939,94.297 20.188,94.711   20.491,95.07 20.823,95.43 21.208,95.705 21.623,95.926 22.092,96.119 22.534,96.258 23.472,96.367 23.915,96.34 24.411,96.258   24.936,96.092 25.405,95.844 25.571,95.678 25.654,95.484 25.654,95.236 25.516,95.07 25.295,95.016 25.019,95.043 24.77,95.016   24.549,94.932 24.357,94.793 24.191,94.629 23.942,94.158 23.804,93.607 23.777,93.082 23.832,92.584 23.969,92.143 24.191,91.729   24.494,91.342 24.825,90.955 25.019,90.541 25.019,90.1 24.963,89.602 24.853,88.662 24.825,87.752 24.908,87.283 25.129,86.758   25.488,86.26 25.626,86.012 25.737,85.791 25.737,85.625 25.654,85.516 25.433,85.459 25.184,85.432 "></polygon><polygon points="40.866,84.52 40.507,84.549 40.203,84.494 39.595,84.328 39.071,84.135 38.518,84.023 37.939,83.996 37.359,84.023   36.089,84.105 35.427,84.105 35.261,84.105 35.151,84.135 35.123,84.217 35.151,84.355 35.317,84.686 35.538,85.072 35.73,85.432   35.84,85.764 35.896,86.068 35.896,86.344 35.758,86.867 35.455,87.365 35.096,87.861 34.323,88.885 34.046,89.436 33.881,90.045   33.853,90.65 33.963,91.26 34.24,91.783 34.599,92.281 35.068,92.723 35.593,93.137 36.172,93.469 36.78,93.689 37.056,93.744   37.359,93.744 37.663,93.689 37.939,93.551 38.188,93.357 38.353,93.082 38.518,92.502 38.629,92.197 38.794,91.977 39.043,91.811   39.375,91.701 39.678,91.645 40.01,91.645 40.313,91.729 40.562,91.895 40.921,92.418 41.086,92.668 41.307,92.861 41.611,92.943   41.915,92.943 42.577,92.861 43.184,92.668 43.764,92.418 44.261,92.088 44.675,91.674 45.006,91.203 45.283,90.68 45.78,89.492   46.028,88.885 46,88.58 45.807,88.359 45.531,88.221 45.228,88.166 44.621,88.193 44.317,88.166 44.012,88.027 43.737,87.861   43.516,87.641 43.129,87.088 43.019,86.785 42.963,86.51 42.963,85.902 43.102,85.322 43.267,84.686 43.35,84.383 43.378,84.105   43.267,83.969 43.074,83.914 42.798,83.969 42.44,84.051 41.667,84.328 40.866,84.52 "></polygon><polygon points="25.819,77.285 25.516,77.645 25.295,78.031 24.88,78.693 24.301,79.301 23.998,79.605 23.721,79.963 23.555,80.406   23.555,80.627 23.583,80.82 23.694,81.014 23.886,81.152 24.274,81.346 24.715,81.482 25.101,81.648 25.405,81.953 25.571,82.367   25.681,82.588 25.819,82.727 26.012,82.809 26.206,82.781 26.343,82.67 26.426,82.506 26.455,82.283 26.426,82.063 26.178,80.986   26.095,80.488 26.068,80.074 26.095,79.246 26.234,78.445 26.317,78.031 26.343,77.59 26.317,77.369 26.206,77.174 26.123,77.119   26.012,77.119 25.819,77.285 "></polygon><polygon points="23.169,71.266 22.783,70.574 22.534,70.299 22.203,70.049 21.816,69.773 21.485,69.498 21.375,69.359 21.32,69.193   21.347,69 21.458,68.834 21.706,68.504 21.982,68.199 22.341,68.006 22.727,67.867 23.141,67.84 23.611,67.924 24.081,68.006   24.466,68.006 24.604,67.951 24.715,67.813 24.77,67.398 24.687,67.039 24.494,66.682 23.998,66.018 23.417,65.492 22.727,65.078   22.341,64.914 21.954,64.83 21.54,64.803 21.126,64.83 20.767,64.969 20.435,65.189 20.188,65.492 19.966,65.824 19.829,66.211   19.717,66.598 19.691,66.984 19.746,67.398 19.966,68.199 19.966,68.393 19.912,68.559 19.773,68.697 19.608,68.807 19.194,68.973   18.779,69 18.393,68.945 18.006,68.807 17.703,68.559 17.455,68.227 17.289,67.867 17.206,67.482 17.151,67.096 16.985,66.707   16.846,66.543 16.681,66.459 16.543,66.57 16.433,66.764 16.377,67.178 16.433,67.564 16.543,68.006 16.598,68.447 16.571,68.641   16.488,68.752 16.322,68.807 16.129,68.807 15.687,68.834 15.522,68.918 15.356,69.055 15.163,69.414 15.08,69.828 15.108,70.215   15.274,70.602 15.549,70.906 15.88,71.127 16.267,71.209 16.709,71.209 17.123,71.154 17.509,71.127 17.648,71.182 17.786,71.293   17.979,71.623 18.089,72.066 18.145,72.48 18.228,72.838 18.475,73.17 19.055,73.723 19.25,74.055 19.359,74.441 19.469,74.828   19.552,75.021 19.691,75.076 19.883,75.021 20.077,74.855 20.353,74.551 20.629,74.303 20.794,74.221 21.015,74.221 21.208,74.248   21.403,74.33 21.54,74.441 21.623,74.605 21.706,74.992 21.678,75.463 21.651,75.877 21.623,76.291 21.651,76.98 21.623,77.754   21.568,78.197 21.485,78.721 21.429,78.998 21.458,79.191 21.512,79.301 21.651,79.301 22.009,79.08 22.258,78.777 22.645,78.086   23.141,77.479 23.721,76.926 24.246,76.375 24.439,76.043 24.604,75.684 24.825,74.91 25.046,74.109 25.184,73.309 25.184,72.922   25.101,72.535 24.908,72.203 24.632,71.928 24.274,71.707 23.86,71.568 23.472,71.459 23.169,71.266 "></polygon><polygon points="22.948,46.299 22.506,46.299 22.065,46.382 21.237,46.714 20.463,47.211 19.8,47.818 19.304,48.537 19.111,48.951   18.945,49.392 18.834,49.89 18.807,50.166 18.834,50.386 18.917,50.553 19.111,50.664 19.304,50.801 19.415,51.021 19.525,51.188   19.746,51.133 20.16,50.885 20.823,50.277 21.154,50 21.54,49.751 21.926,49.503 22.065,49.337 22.147,49.144 22.258,48.702   22.424,48.26 22.672,47.874 22.975,47.542 23.334,47.266 23.472,47.072 23.555,46.852 23.528,46.631 23.417,46.465 23.197,46.354   22.948,46.299 "></polygon><polygon points="26.343,56.711 26.343,51.547 26.317,51.326 26.234,51.105 26.041,51.021 25.792,50.994 24.825,50.967   24.357,50.912 23.915,50.773 23.472,50.607 23.003,50.525 22.783,50.553 22.562,50.635 22.203,50.939 21.926,51.381 21.789,51.879   21.761,52.402 21.789,52.928 21.761,53.148 21.706,53.342 21.375,53.674 21.015,54.006 20.684,54.363 20.381,54.75 20.16,55.137   19.966,55.578 19.829,56.02 19.746,56.49 19.717,56.988 19.829,57.457 19.912,57.678 20.049,57.871 20.243,57.982 20.463,58.037   20.711,58.092 20.932,58.203 21.098,58.367 21.264,58.563 21.458,59.004 21.623,59.914 21.844,60.467 22.009,60.715 22.175,60.826   22.313,60.826 22.451,60.66 22.672,60.162 22.838,59.252 22.921,58.783 23.058,58.313 23.307,57.926 23.694,57.65 24.135,57.457   24.577,57.346 25.046,57.264 25.543,57.18 26.041,57.016 26.234,56.904 26.343,56.711 "></polygon><polygon points="25.958,39.754 25.709,40.113 25.543,40.444 25.129,41.107 24.66,41.77 24.163,42.46 23.583,43.261 23.445,43.482   23.363,43.675 23.363,43.841 23.472,44.007 23.86,44.229 24.246,44.366 25.019,44.504 25.433,44.587 25.929,44.726 26.178,44.78   26.317,44.726 26.343,44.504 26.343,44.283 26.343,43.455 26.343,42.737 26.343,41.991 26.372,41.577 26.372,41.08 26.372,40.527   26.372,39.92 26.343,39.671 26.261,39.561 26.123,39.589 25.958,39.754 "></polygon><polygon points="51.508,27.56 50.625,26.399 49.907,25.102 49.382,23.749 48.859,25.102 48.14,26.399 47.285,27.56 47.285,27.919   47.616,28.112 49.382,28.112 51.15,28.112 51.48,27.919 "></polygon><g><path d="M254.134,92.139l0.441-0.055l0.442-0.139l0.359-0.277l0.331-0.414l0.276-0.414l0.138-0.109l0.193-0.027l0.414,0.166   l0.249,0.082l0.22,0.027l0.248-0.055l0.194-0.111l0.193-0.193l0.138-0.221l0.083-0.275v-0.305l-0.056-0.303v-0.25l0.056-0.166   l0.083-0.027l0.138,0.027l0.248,0.029l0.083-0.057l0.027-0.082l-0.027-0.248l0.027-0.084l0.083-0.027l0.248,0.055l0.305,0.111   l0.552,0.248l0.47,0.193l0.801,0.305l0.744,0.193l0.802,0.137l0.883,0.084l0.911,0.027l0.966-0.084l0.967-0.137l0.966-0.248   l0.938-0.359l0.912-0.441l0.855-0.58l0.745-0.691l0.663-0.746l0.47-0.828l0.193-0.414l0.109-0.441l0.056-0.414l0.027-0.414   l-0.11-0.912l-0.027-0.525l0.027-0.248l0.11-0.166l0.222-0.027h0.248l0.414,0.193l0.359,0.332l0.275,0.414l0.222,0.414l0.192,0.441   l0.11,0.441l0.083,0.443l-0.056,0.938l-0.358,1.879l-0.027,0.912l0.056,0.414l0.137,0.441l0.193,0.387l0.276,0.387l0.663,0.689   l0.773,0.58l0.827,0.498l0.856,0.357l0.883,0.223l0.911,0.055l0.912-0.084l0.91-0.221l0.884-0.33l0.855-0.387l0.828-0.441   l0.773-0.525l0.718-0.553l0.662-0.635l0.636-0.664l2.43-2.789l0.413-0.828l0.359-0.828l0.387-0.828l0.469-0.773l0.636-0.801   l0.082-0.193l0.028-0.221l-0.11-0.193l-0.166-0.193l-0.221-0.139l-0.193-0.082l-0.414-0.027l-0.47,0.109l-0.524,0.193l-0.607,0.166   l-0.221,0.027l-0.138-0.109l-0.028-0.195l0.028-0.248l0.11-0.469l0.138-0.469l0.193-0.414l0.249-0.389l0.303-0.33l0.304-0.332   l0.276-0.359l0.11-0.248l0.056-0.275v-0.305l-0.056-0.248l-0.11-0.166l-0.193-0.082l-0.47,0.109l-0.137-0.055l-0.056-0.221   l0.056-0.58l0.137-0.498l0.139-0.441l0.138-0.387l0.028-0.441l-0.083-0.469l-0.166-0.471l-0.304-0.332l-0.193-0.109l-0.221-0.055   l-0.469,0.027l-0.497,0.193l-0.47,0.332l-0.414,0.303l-0.193,0.082l-0.193,0.029l-0.166-0.084l-0.138-0.166l-0.221-0.441   l-0.083-0.441l0.027-0.471l0.139-0.441l0.249-0.469l0.33-0.414l0.387-0.387l0.442-0.359l0.413-0.303l0.083-0.166l0.028-0.193   l-0.083-0.193l-0.165-0.166l-0.249-0.139l-0.276-0.055l-0.524,0.027l-0.193-0.027l-0.056-0.111l0.056-0.221l0.138-0.221   l0.387-0.469l0.387-0.332l0.415-0.248l0.358-0.221l0.331-0.248l0.249-0.332l0.165-0.414l0.276-0.912l0.386-0.91l0.387-0.857   l0.359-0.883l0.221-0.857l0.027-0.469l-0.027-0.441l-0.249-0.967l-0.082-0.471l0.027-0.221l0.055-0.221l0.305-0.359l0.166-0.193   l0.082-0.164v-0.166l-0.082-0.166l-0.139-0.166l-0.193-0.166l-0.994-0.635l-0.192-0.166l-0.166-0.166l-0.083-0.193l0.027-0.191   l0.166-0.443l0.109-0.221l0.028-0.193l-0.028-0.193l-0.083-0.166l-0.137-0.137l-0.193-0.139l-0.47-0.193l-0.606-0.139l-0.608-0.055   l-0.635,0.027l-0.497-0.027l-0.221-0.055l-0.138-0.084l-0.056-0.166l-0.027-0.221l0.138-0.496l0.276-0.414l0.332-0.305l0.33-0.332   l0.276-0.33l0.193-0.414l0.139-0.441l0.331-0.885l0.22-0.387l0.332-0.331l0.69-0.608l0.33-0.332l0.277-0.414l0.165-0.415   l0.028-0.469v-0.469l0.055-0.221l0.11-0.221l0.58-0.829l0.11-0.193l0.056-0.166l-0.028-0.166l-0.11-0.166l-0.166-0.11l-0.192-0.11   l-0.525-0.138h-0.579l-0.553,0.138l-0.441,0.221l-0.192,0.056l-0.222-0.056l-0.166-0.166l-0.138-0.193l-0.083-0.442l0.056-0.994   l-0.027-0.966l-0.083-0.912l-0.028-0.856l0.166-0.829l0.304-0.829l0.441-0.829l0.553-0.883l0.304-0.47l0.248-0.469l0.056-0.194   V35.58l-0.083-0.166l-0.166-0.138l-0.441-0.222l-0.47-0.166l-0.496-0.055h-0.442l-0.441,0.083l-0.387,0.193l-0.414,0.221   l-0.442,0.194h-0.165l-0.083-0.139l-0.027-0.193l0.056-0.249l0.22-0.608l0.276-0.552l0.276-0.414l0.304-0.304l0.331-0.249   l0.414-0.276l0.442-0.331l0.193-0.166l0.11-0.193l0.026-0.193l-0.082-0.193l-0.276-0.387l-0.138-0.221l-0.027-0.194l0.056-0.193   l0.165-0.193l0.221-0.138l0.248-0.111l0.276-0.028l0.304,0.028l0.248,0.083l0.249,0.166l0.414,0.414l0.331,0.387l0.166,0.111   l0.138,0.055l0.139-0.055l0.138-0.166l0.166-0.469l0.083-0.47l-0.056-0.441l-0.193-0.415l-0.248-0.387l-0.276-0.387l-0.193-0.414   l-0.027-0.469l0.11-0.497l0.276-0.442l0.386-0.359l0.441-0.221h0.497l0.47,0.055h0.221l0.165-0.083l0.139-0.166l0.11-0.193   l0.139-0.497v-0.553l-0.028-0.524V23.65l0.056-0.193l0.11-0.166l0.359-0.275l0.192-0.166l0.139-0.193l0.083-0.221l0.055-0.249   V21.91l-0.083-0.249l-0.11-0.221l-0.165-0.221l-0.221-0.166l-0.277-0.138l-0.523-0.193l-0.166-0.11v-0.166l0.524-0.801l0.193-0.415   l0.166-0.441l0.055-0.414l-0.027-0.442l-0.139-0.469l-0.221-0.442l-0.304-0.414l-0.386-0.332l-0.193-0.111l-0.193-0.027   l-0.193,0.027l-0.166,0.056l-0.386,0.276l-0.497,0.332l-0.249,0.111l-0.193,0.028l-0.055-0.028v-0.083l0.055-0.221l0.249-0.553   l0.221-0.497l0.11-0.469V14.73l-0.11-0.387l-0.276-0.359l-0.387-0.276l-0.469-0.193l-0.524-0.11l-0.525,0.055l-0.469,0.166   l-0.358,0.249l-0.111,0.193l-0.082,0.193l-0.111,0.442l-0.083,0.221l-0.165,0.222l-0.193,0.166l-0.109,0.027l-0.083-0.055   l-0.139-0.193l-0.027-0.249l0.138-0.441l0.193-0.442l0.055-0.414l-0.11-0.469l-0.221-0.442l-0.469-0.8l-0.111-0.47l-0.027-0.469   l-0.138-0.166l-0.193-0.111l-0.249-0.055l-0.248-0.028l-0.248,0.055l-0.221,0.11l-0.359,0.304l-0.221,0.441l-0.139,0.442   l-0.055,0.469v0.442v0.469l-0.11,0.525l-0.055,0.083l-0.056,0.055l-0.193-0.11l-0.414-0.332l-0.441-0.193l-0.222-0.028h-0.221   l-0.359,0.221l-0.331,0.332l-0.248,0.441l-0.165,0.47l-0.166,0.441l-0.138,0.194l-0.222,0.138l-0.248,0.056h-0.083l-0.056-0.083   v-0.221l0.056-0.276l0.056-0.525l-0.028-0.442l-0.027-0.883v-0.47l-0.083-0.442l-0.193-0.414l-0.303-0.387l-0.359-0.304   l-0.387-0.275l-0.828-0.47l-0.359-0.249l-0.331-0.276l-0.331-0.332l-0.387-0.359l-0.441-0.276l-0.222-0.083h-0.192l-0.166,0.083   l-0.11,0.166l-0.193,0.47l-0.027,0.525l-0.027,0.469l-0.083,0.193l-0.11,0.193l-0.221,0.111l-0.249,0.027l-0.221-0.083l-0.193-0.11   l-0.248-0.415l-0.304-0.856l-0.111-0.47l-0.165-0.497l-0.11-0.221l-0.139-0.138l-0.192-0.083H272.3l-0.248,0.027l-0.193-0.083   l-0.166-0.166l-0.056-0.249l0.056-0.469l-0.027-0.221l-0.11-0.194l-0.221-0.11l-0.221-0.027l-0.221,0.055l-0.194,0.138   l-0.662,0.746l-0.249,0.387l-0.083,0.221l-0.026,0.276l-0.027,0.607l-0.028,0.276l-0.055,0.221l-0.083,0.11l-0.139-0.027   l-0.221-0.11l-0.193-0.194l-0.883-0.773l-0.222-0.138l-0.192-0.083l-0.166-0.027l-0.139,0.055l-0.138,0.138l-0.11,0.221   l-0.249,0.414l-0.192,0.138l-0.221,0.028l-0.221-0.055l-0.166-0.138l-0.139-0.193l-0.055-0.221V8.212l0.11-0.525l0.193-0.469   l0.304-0.332l0.414-0.249l1.021-0.332l0.414-0.193l0.166-0.138l0.082-0.166l0.056-0.193l-0.027-0.221l-0.222-0.469l-0.275-0.415   l-0.193-0.387l-0.027-0.193l0.083-0.221l0.221-0.414l0.192-0.442l0.083-0.47V1.888l-0.11-0.47l-0.165-0.441l-0.276-0.442   l-0.304-0.387l-0.387-0.304l-0.413-0.276l-0.471-0.166l-0.441-0.083h-0.47l-0.91,0.249l-0.221,0.028l-0.249-0.028l-0.221-0.083   l-0.138-0.166l-0.056-0.469l-0.055-0.221l-0.139-0.166l-0.221-0.111l-0.249-0.027l-0.303,0.055l-0.276,0.083l-0.221,0.11   l-0.193,0.028l-0.083-0.11v-0.249l0.138-1.104l-0.027-0.469l-0.056-0.221l-0.083-0.166l-0.165-0.138l-0.193-0.11l-0.221-0.055   h-0.248l-0.249,0.055l-0.193,0.138l-0.331,0.387l-0.332,0.331l-0.165,0.083h-0.221l-0.221-0.111l-0.138-0.193l-0.166-0.47   l-0.11-0.193l-0.166-0.11l-0.221-0.028l-0.248,0.056l-0.497,0.276l-0.47,0.359l-0.193,0.138l-0.192,0.083h-0.166l-0.139-0.138   l-0.083-0.221l-0.026-0.221l0.138-0.414l0.221-0.442l0.139-0.553v-0.276l-0.028-0.249l-0.055-0.193l-0.111-0.083l-0.165-0.028   l-0.193,0.083l-0.441,0.249l-0.524,0.249l-0.222,0.056l-0.166-0.083l-0.082-0.193l-0.056-0.276l-0.055-0.249l-0.11-0.193   l-0.277-0.332l-0.386-0.11l-0.331,0.11l-0.276,0.332l-0.11,0.193l-0.056,0.249l-0.027,0.276l-0.083,0.193l-0.166,0.083   l-0.248-0.056l-0.524-0.249l-0.441-0.249l-0.192-0.083l-0.139,0.028l-0.11,0.083l-0.083,0.193l-0.027,0.249v0.276l0.138,0.553   l0.222,0.442l0.137,0.414L251.76-3.58l-0.083,0.221l-0.138,0.138h-0.166l-0.165-0.083l-0.221-0.138l-0.442-0.359l-0.524-0.276   l-0.248-0.056l-0.221,0.028l-0.166,0.11l-0.083,0.193l-0.193,0.47l-0.138,0.193l-0.193,0.111h-0.221l-0.193-0.083l-0.331-0.331   l-0.332-0.387l-0.193-0.138l-0.221-0.055h-0.248l-0.249,0.055l-0.192,0.11l-0.166,0.138l-0.083,0.166l-0.056,0.221l-0.027,0.469   l0.166,1.104l-0.027,0.249l-0.083,0.11l-0.166-0.028l-0.248-0.11l-0.276-0.083l-0.276-0.055l-0.275,0.027l-0.193,0.111   l-0.138,0.166l-0.056,0.221l-0.083,0.469l-0.138,0.166l-0.222,0.083l-0.248,0.028l-0.221-0.028l-0.884-0.249h-0.469l-0.47,0.083   l-0.469,0.166l-0.414,0.276l-0.359,0.304l-0.332,0.387l-0.248,0.442l-0.193,0.441l-0.083,0.47l-0.026,0.497l0.082,0.47l0.193,0.442   l0.222,0.414l0.082,0.221v0.193l-0.193,0.387l-0.304,0.415l-0.193,0.469l-0.027,0.221l0.027,0.193l0.083,0.166l0.166,0.138   l0.441,0.193l0.994,0.332l0.413,0.249l0.305,0.332l0.192,0.469l0.139,0.525l-0.027,0.525l-0.056,0.221l-0.138,0.193l-0.166,0.138   l-0.22,0.055l-0.222-0.028l-0.166-0.138l-0.275-0.414l-0.11-0.221l-0.111-0.138l-0.166-0.055l-0.165,0.027l-0.193,0.083   l-0.192,0.138l-0.885,0.773l-0.221,0.194l-0.193,0.11l-0.165,0.027l-0.083-0.11l-0.055-0.221V9.096l-0.056-0.607l-0.027-0.276   l-0.083-0.221l-0.248-0.387l-0.663-0.746l-0.192-0.138l-0.222-0.055l-0.221,0.027l-0.221,0.11l-0.11,0.194l-0.028,0.221   l0.056,0.469l-0.056,0.249l-0.166,0.166l-0.192,0.083l-0.249-0.027h-0.221l-0.221,0.083l-0.138,0.138l-0.11,0.221l-0.166,0.497   l-0.11,0.47l-0.304,0.856l-0.248,0.415l-0.193,0.11l-0.222,0.083l-0.248-0.027l-0.193-0.111l-0.139-0.193l-0.082-0.193v-0.469   l-0.055-0.525l-0.166-0.47l-0.139-0.166l-0.165-0.083h-0.193l-0.221,0.083l-0.441,0.276l-0.387,0.359l-0.331,0.332l-0.304,0.276   l-0.388,0.249l-0.827,0.47l-0.387,0.275l-0.358,0.304l-0.276,0.387l-0.221,0.414l-0.083,0.442v0.47l-0.028,0.883l-0.027,0.442   l0.056,0.525l0.055,0.276v0.221l-0.055,0.083h-0.083l-0.248-0.056l-0.222-0.138l-0.138-0.194l-0.165-0.441l-0.166-0.47   l-0.248-0.441l-0.305-0.332l-0.386-0.221h-0.222l-0.221,0.028l-0.441,0.193l-0.415,0.332l-0.192,0.11l-0.055-0.055l-0.056-0.083   l-0.11-0.525v-0.469v-0.442l-0.056-0.469l-0.11-0.442l-0.248-0.441l-0.359-0.304l-0.221-0.11l-0.249-0.055l-0.248,0.028   l-0.249,0.055l-0.192,0.111l-0.11,0.166l-0.056,0.469l-0.11,0.47l-0.47,0.8l-0.221,0.442l-0.11,0.469l0.083,0.414l0.193,0.442   l0.11,0.441l-0.027,0.249l-0.138,0.193l-0.083,0.055l-0.111-0.027l-0.193-0.166l-0.137-0.222l-0.111-0.221l-0.11-0.442   l-0.083-0.193l-0.109-0.193l-0.359-0.249l-0.47-0.166l-0.524-0.055l-0.524,0.11l-0.442,0.193l-0.386,0.276l-0.276,0.359   l-0.138,0.387v0.387l0.138,0.469l0.193,0.497l0.249,0.553l0.055,0.221v0.083l-0.055,0.028l-0.193-0.028l-0.249-0.111l-0.469-0.332   l-0.415-0.276l-0.165-0.056l-0.193-0.027l-0.193,0.027l-0.193,0.111l-0.358,0.332l-0.332,0.414l-0.221,0.442l-0.138,0.469   l-0.027,0.442l0.082,0.414l0.139,0.441l0.193,0.415l0.552,0.801l-0.027,0.166l-0.139,0.11l-0.552,0.193l-0.276,0.138l-0.221,0.166   l-0.166,0.221l-0.11,0.221l-0.055,0.249l-0.028,0.276l0.056,0.249l0.083,0.221l0.138,0.193l0.193,0.166l0.359,0.275l0.11,0.166   l0.055,0.193l0.028,0.442l-0.056,0.524l0.027,0.553l0.11,0.497l0.111,0.193l0.137,0.166l0.194,0.083h0.193l0.469-0.055h0.497   l0.441,0.221l0.387,0.359l0.276,0.442l0.138,0.497l-0.056,0.469l-0.192,0.414l-0.249,0.387l-0.275,0.387l-0.193,0.415l-0.056,0.441   l0.083,0.47l0.193,0.469l0.11,0.166l0.138,0.055l0.139-0.055l0.166-0.111l0.331-0.387l0.441-0.414l0.221-0.166l0.276-0.083   l0.275-0.028l0.276,0.028l0.276,0.111l0.193,0.138l0.166,0.193l0.055,0.193l-0.027,0.194l-0.139,0.221l-0.276,0.387l-0.082,0.193   l0.055,0.193l0.11,0.193l0.166,0.166l0.442,0.331l0.413,0.276l0.331,0.249l0.305,0.304l0.275,0.414l0.276,0.552l0.221,0.608   l0.056,0.249v0.193l-0.083,0.139h-0.165l-0.47-0.194l-0.415-0.221l-0.386-0.193l-0.441-0.083h-0.442l-0.469,0.055l-0.497,0.166   l-0.442,0.222l-0.165,0.138L219.1,35.58l-0.027,0.221l0.055,0.194l0.249,0.469l0.304,0.47l0.552,0.883l0.442,0.829l0.331,0.829   l0.138,0.829v0.856l-0.083,0.912l-0.055,0.966l0.055,0.994l-0.082,0.442l-0.11,0.193l-0.193,0.166l-0.193,0.056l-0.221-0.056   l-0.442-0.221l-0.524-0.138h-0.58l-0.552,0.138l-0.193,0.11l-0.165,0.11l-0.111,0.166l-0.027,0.166l0.056,0.166l0.11,0.193   l0.58,0.829l0.11,0.221l0.056,0.221v0.469l0.026,0.469l0.166,0.415l0.275,0.414l0.332,0.332l0.689,0.608l0.332,0.331l0.248,0.387   l0.305,0.885l0.138,0.441l0.193,0.414l0.275,0.33l0.332,0.332l0.331,0.305l0.275,0.414l0.139,0.496v0.221l-0.083,0.166   l-0.138,0.084l-0.193,0.055l-0.524,0.027l-0.607-0.027l-0.635,0.055l-0.607,0.139l-0.47,0.193l-0.193,0.139l-0.139,0.137   l-0.082,0.166l-0.027,0.193l0.055,0.193l0.083,0.221l0.193,0.443v0.191l-0.083,0.193l-0.165,0.166l-0.193,0.166l-0.967,0.635   l-0.221,0.166l-0.138,0.166l-0.083,0.166v0.166l0.11,0.164l0.138,0.193l0.304,0.359l0.083,0.221v0.221l-0.083,0.471l-0.248,0.967   l-0.028,0.441l0.056,0.469l0.221,0.857L218.3,63.5l0.413,0.857l0.359,0.91l0.276,0.912l0.166,0.414l0.248,0.332l0.331,0.248   l0.387,0.221l0.387,0.248l0.414,0.332l0.358,0.469l0.138,0.221l0.056,0.221l-0.056,0.111l-0.193,0.027l-0.524-0.027l-0.275,0.055   l-0.249,0.139l-0.165,0.166l-0.083,0.193l0.027,0.193l0.11,0.166l0.387,0.303l0.442,0.359l0.413,0.387l0.305,0.414l0.248,0.469   l0.138,0.441l0.056,0.471l-0.083,0.441l-0.221,0.441l-0.166,0.166l-0.166,0.084l-0.193-0.029l-0.192-0.082l-0.414-0.303   l-0.47-0.332l-0.496-0.193l-0.471-0.027l-0.221,0.055l-0.193,0.109l-0.275,0.332l-0.193,0.471l-0.082,0.469l0.054,0.441   l0.111,0.387l0.138,0.441l0.139,0.498l0.055,0.58l-0.055,0.221l-0.139,0.055l-0.469-0.109l-0.193,0.082l-0.111,0.166l-0.055,0.248   v0.305l0.055,0.275l0.111,0.248l0.276,0.359l0.331,0.332l0.275,0.33l0.249,0.389l0.192,0.414l0.166,0.469l0.083,0.469l0.027,0.248   v0.195l-0.165,0.109l-0.221-0.027l-0.607-0.166l-0.524-0.193l-0.47-0.109l-0.414,0.027l-0.193,0.082l-0.193,0.139l-0.193,0.193   l-0.083,0.193v0.221l0.083,0.193l0.635,0.801l0.47,0.773l0.387,0.828l0.358,0.828l0.441,0.828l2.403,2.789l0.634,0.664l0.663,0.635   l0.745,0.553l0.773,0.525l0.801,0.441l0.855,0.387l0.883,0.33l0.911,0.221l0.911,0.084l0.911-0.055l0.883-0.223l0.856-0.357   l0.828-0.498l0.773-0.58l0.69-0.689l0.248-0.387l0.221-0.387l0.139-0.441l0.055-0.414l-0.055-0.912l-0.359-1.879l-0.027-0.938   l0.056-0.443l0.109-0.441l0.193-0.441l0.222-0.414l0.304-0.414l0.331-0.332l0.441-0.193h0.221l0.221,0.027l0.139,0.166l0.027,0.248   l-0.056,0.525l-0.082,0.912V84.6l0.055,0.414l0.139,0.441l0.165,0.414l0.497,0.828l0.635,0.746l0.746,0.691l0.855,0.58l0.911,0.441   l0.938,0.359l0.966,0.248l0.967,0.137l0.966,0.084l0.912-0.027l0.883-0.084l0.801-0.137l0.746-0.193l0.8-0.305l0.47-0.193   l0.552-0.248l0.304-0.111l0.249-0.055l0.083,0.027l0.026,0.084l-0.026,0.248l0.026,0.082l0.083,0.057l0.276-0.029l0.111-0.027   l0.082,0.027l0.083,0.166l-0.028,0.25l-0.055,0.303l0.027,0.305l0.056,0.275l0.138,0.221l0.193,0.193l0.193,0.111l0.249,0.055   l0.221-0.027l0.248-0.082l0.414-0.166l0.193,0.027l0.166,0.109l0.276,0.414l0.303,0.414l0.359,0.277l0.441,0.139L254.134,92.139   L254.134,92.139z M236.409,26.412h35.449v45.18h-35.449V26.412L236.409,26.412z M261.202,6.859l0.911,0.276l0.855,0.387   l0.801,0.524l0.221,0.111l0.221-0.028l0.221-0.11l0.11-0.221l0.027-0.249l-0.193-0.58l-0.358-0.552l-0.469-0.442l-0.553-0.304   l-0.606-0.166h-0.636l-0.607,0.166l-0.58,0.304l-0.441,0.442l-0.056,0.138l0.056,0.138l0.138,0.056L261.202,6.859z M258.606,1.501   l-0.139,1.105l-0.33,1.049l-0.525,0.994l-0.662,0.911l-0.801,0.773l-0.911,0.607l0.139-1.104l0.331-1.049l0.497-0.994l0.662-0.912   l0.828-0.773L258.606,1.501z M261.864,9.952l-0.166,1.74l-0.027,0.636l-0.193,0.635l-0.358,0.525l-0.47,0.441l-0.552,0.332   l-0.111,0.111l-0.027,0.166l0.11,0.111l0.083,0.221l-0.027,0.221l-0.139,0.193l-0.192,0.111l-0.553,0.221L258.772,16l-0.331,0.525   l-0.139,0.552v0.608l0.193,0.58l0.359,0.469l0.469,0.359l0.855,0.359l0.912,0.193h0.91l0.911-0.221l0.829-0.387l0.745-0.553   l1.076-0.883l0.994-0.994l0.884-1.105l0.744-1.187l0.056-0.359l-0.082-0.359l-0.221-0.276l-0.332-0.193l-0.69-0.221l-0.607-0.359   l-0.248-0.083l-0.193,0.138l-1.242,1.823l-0.358,0.166l-0.387-0.083l-0.276-0.249l-0.11-0.386l-0.056-0.773l0.056-0.773   l-0.027-0.359l-0.138-0.304l-0.249-0.249l-0.607-0.718l-0.358-0.856l-0.111-0.055l-0.109,0.028L261.864,9.952z M274.067,20.53   l0.082,0.249l0.193,0.166l0.248,0.083h1.492l0.303-0.056l0.221-0.221l0.056-0.304l-0.028-3.259l-0.165-0.773l-0.359-0.718   l-0.497-0.635l-0.606-0.497l-0.69-0.359l-0.745-0.221l-0.801-0.056l-0.773,0.139l-0.745,0.276l-0.524,0.497l-0.387,0.607   l-0.276,0.663l-0.138,0.69v0.718l0.11,0.194l0.165,0.11h0.222l0.58-0.276l0.607-0.138l0.606,0.056l0.607,0.193l0.525,0.331   l0.413,0.47l0.277,0.58l0.109,0.607l-0.056,0.608L274.067,20.53z M282.515,23.401l-0.524-0.083l-0.47-0.303l-0.414-0.249   l-0.496-0.056l-0.497,0.11l-0.387,0.276l-0.275,0.415l-0.332,1.215l-0.11,1.271l0.055,1.243l0.222,1.243l0.414,1.187l0.607,1.105   l1.353,2.209l1.215,2.293l0.47,0.275l0.579-0.358l-0.441-1.188l-0.11-1.049l0.11-1.05l0.304-0.995l0.524-0.938l0.662-0.801   l0.829-0.663l0.192-0.249l0.028-0.304l-0.083-0.276l-0.193-0.221l-0.027-0.276l0.083-0.249l0.221-0.193l0.855-0.276l0.884-0.055   l0.523-0.138l0.415-0.359l0.276-0.47l0.055-0.524l-0.166-0.525l-0.58-0.663l-0.744-0.525l-0.636-0.441l-0.497-0.608l-0.358-0.718   l-0.139-0.773l-0.165-0.856l-0.359-0.773l-0.497-0.718l-0.635-0.332l-0.745-0.11l-0.718,0.138l-0.635,0.359l-0.193,0.249   l-0.028,0.304l0.139,0.249l0.249,0.166l0.855,0.332l0.745,0.497l0.607,0.69l0.414,0.801l0.221,0.883l-0.027,0.304l-0.166,0.276   l-0.275,0.139h-0.305l-0.662-0.111l-0.69,0.083L282.515,23.401z M253.03,6.942l-0.912-0.607l-0.8-0.773l-0.663-0.911l-0.497-0.994   l-0.331-1.049l-0.166-1.105l0.938,0.608l0.802,0.773l0.662,0.912l0.497,0.994l0.331,1.049L253.03,6.942z M248.005,6.749   l0.138-0.056l0.057-0.138l-0.028-0.138l-0.47-0.442l-0.579-0.304l-0.607-0.166h-0.636l-0.607,0.166l-0.552,0.304l-0.47,0.442   l-0.331,0.552l-0.221,0.58l0.028,0.249l0.109,0.221l0.222,0.11l0.221,0.028l0.221-0.111l0.801-0.524l0.855-0.387l0.911-0.276   L248.005,6.749z M246.376,9.814l-0.11-0.028l-0.11,0.055l-0.358,0.856l-0.607,0.718l-0.249,0.249l-0.138,0.304l-0.028,0.359   l0.056,0.773l-0.056,0.773l-0.082,0.386l-0.304,0.249l-0.387,0.083l-0.358-0.166l-1.243-1.823l-0.192-0.138l-0.222,0.083   l-0.634,0.359l-0.691,0.221l-0.304,0.193l-0.248,0.276l-0.083,0.359l0.056,0.359l0.745,1.187l0.884,1.105l0.994,0.994l1.104,0.883   l0.718,0.553l0.856,0.387l0.883,0.221h0.912l0.91-0.193l0.855-0.359l0.47-0.359l0.359-0.469l0.193-0.58l0.027-0.608l-0.166-0.552   L249.496,16l-0.47-0.386l-0.552-0.221l-0.193-0.111l-0.139-0.193l-0.026-0.221l0.109-0.221l0.083-0.111l-0.027-0.166l-0.082-0.111   l-0.58-0.332l-0.47-0.441l-0.331-0.525l-0.221-0.635l-0.028-0.636l-0.165-1.74L246.376,9.814z M234.174,20.253l-0.056-0.608   l0.11-0.607l0.277-0.58l0.414-0.47l0.524-0.331l0.606-0.193l0.607-0.056l0.636,0.138l0.552,0.276h0.221l0.193-0.11l0.083-0.194   l0.027-0.718l-0.138-0.69l-0.276-0.663l-0.414-0.607l-0.524-0.497l-0.718-0.276l-0.801-0.139l-0.773,0.056l-0.773,0.221   l-0.689,0.359l-0.607,0.497l-0.497,0.635l-0.331,0.718l-0.193,0.773l-0.027,3.259l0.055,0.304l0.222,0.221l0.303,0.056h1.491   l0.275-0.083l0.194-0.166l0.082-0.249L234.174,20.253z M225.229,23.236l-0.69-0.083l-0.662,0.111h-0.304l-0.276-0.139l-0.165-0.276   l-0.028-0.304l0.222-0.883l0.414-0.801l0.607-0.69l0.745-0.497l0.855-0.332l0.276-0.166l0.11-0.249l-0.027-0.304l-0.193-0.249   l-0.635-0.359l-0.718-0.138l-0.718,0.11l-0.663,0.332l-0.496,0.718l-0.332,0.773l-0.165,0.856l-0.166,0.773l-0.359,0.718   l-0.496,0.608l-0.636,0.441l-0.717,0.525l-0.608,0.663l-0.165,0.525l0.082,0.524l0.249,0.47l0.413,0.359l0.525,0.138l0.911,0.055   l0.855,0.276l0.194,0.193l0.109,0.249l-0.055,0.276l-0.193,0.221l-0.083,0.276l0.056,0.304l0.166,0.249l0.827,0.663l0.663,0.801   l0.524,0.938l0.304,0.995l0.11,1.05l-0.083,1.049l-0.441,1.188l0.553,0.358l0.469-0.275l1.214-2.293l1.381-2.209l0.58-1.105   l0.414-1.187l0.248-1.243l0.028-1.243l-0.111-1.271l-0.33-1.215l-0.276-0.415l-0.387-0.276l-0.496-0.11l-0.497,0.056l-0.415,0.249   l-0.47,0.303l-0.524,0.083L225.229,23.236z M278.374,78.385l-0.276,0.027l-0.221,0.057l-0.083,0.109l0.027,0.166l0.083,0.221   l0.138,0.248l0.359,0.498l0.248,0.525l0.083,0.469l-0.055,0.912l-0.111,0.938l-0.055,0.498v0.441l0.193,0.414l0.332,0.387   l0.303,0.387l0.221,0.414l0.139,0.441l0.055,0.498l-0.027,0.525l-0.139,0.551l-0.248,0.471l-0.165,0.166l-0.194,0.137l-0.221,0.084   l-0.248,0.027l-0.276-0.027l-0.22,0.055l-0.139,0.166v0.248l0.083,0.193l0.165,0.166l0.497,0.248l0.524,0.166l0.47,0.084   l0.469,0.025l0.911-0.109l0.441-0.139l0.471-0.193l0.414-0.221l0.386-0.275l0.331-0.359l0.305-0.359l0.248-0.414l0.193-0.441   l0.275-0.912l0.083-0.967l-0.055-0.965l-0.194-0.939l-0.331-0.912l-0.441-0.855l-0.552-0.773l-0.636-0.691l-0.745-0.607   l-0.828-0.441l-0.469-0.166l-0.47-0.137l-0.524-0.057H278.374L278.374,78.385z M262.665,77.475l-0.801-0.193l-0.772-0.277   l-0.359-0.082l-0.276-0.055l-0.193,0.055l-0.11,0.139l0.027,0.275l0.083,0.303l0.166,0.637l0.138,0.58v0.607l-0.055,0.275   l-0.111,0.305l-0.386,0.553l-0.221,0.221l-0.276,0.164l-0.276,0.139l-0.331,0.027l-0.607-0.027l-0.304,0.057l-0.276,0.137   l-0.193,0.221l-0.027,0.305l0.249,0.607l0.497,1.188l0.275,0.525l0.359,0.469l0.414,0.414l0.497,0.332l0.552,0.248l0.607,0.193   l0.662,0.082h0.332l0.276-0.082l0.221-0.193l0.165-0.248l0.359-0.525l0.248-0.166l0.304-0.082h0.331l0.332,0.055l0.304,0.109   l0.248,0.166l0.193,0.223l0.083,0.303l0.166,0.58l0.166,0.275l0.248,0.193l0.275,0.139l0.304,0.055h0.304l0.305-0.055l0.579-0.221   l0.58-0.332l0.524-0.414l0.469-0.441l0.387-0.496l0.249-0.525l0.11-0.607l-0.027-0.607l-0.166-0.607l-0.276-0.553l-0.773-1.021   l-0.358-0.498l-0.276-0.496l-0.165-0.525v-0.275l0.055-0.305l0.11-0.332l0.193-0.357l0.222-0.389l0.165-0.33l0.027-0.139   l-0.027-0.082l-0.111-0.027h-0.137h-0.69l-1.242-0.084l-0.607-0.027l-0.58,0.027l-0.553,0.111l-0.524,0.193l-0.58,0.166   l-0.331,0.055L262.665,77.475L262.665,77.475z M277.711,70.238l-0.192-0.166h-0.083l-0.083,0.057l-0.11,0.193l-0.056,0.221   l0.027,0.441l0.083,0.414l0.139,0.801l0.027,0.828l-0.027,0.414l-0.083,0.498l-0.249,1.076v0.221v0.223l0.083,0.164l0.138,0.111   l0.221,0.027l0.194-0.082l0.11-0.139l0.11-0.221l0.165-0.414l0.304-0.305l0.387-0.166l0.442-0.137l0.413-0.193l0.166-0.139   l0.11-0.193l0.028-0.193v-0.221l-0.166-0.441l-0.249-0.359l-0.303-0.305l-0.608-0.607l-0.414-0.662l-0.22-0.387L277.711,70.238   L277.711,70.238z M280.361,64.219l-0.304,0.193l-0.387,0.109l-0.413,0.139l-0.359,0.221l-0.276,0.277l-0.193,0.33l-0.083,0.387   v0.387l0.166,0.801l0.193,0.801l0.221,0.773l0.166,0.359l0.193,0.332l0.524,0.551l0.58,0.553l0.524,0.607l0.358,0.691l0.248,0.303   l0.359,0.221h0.138l0.083-0.109v-0.193l-0.027-0.277l-0.11-0.523l-0.055-0.441v-0.773v-0.691l-0.028-0.414l-0.027-0.414v-0.471   l0.056-0.385l0.082-0.166l0.139-0.111l0.193-0.082l0.192-0.027h0.221l0.166,0.082l0.276,0.248l0.275,0.305l0.193,0.166l0.193,0.055   l0.138-0.055l0.111-0.193l0.082-0.387l0.111-0.387l0.192-0.332l0.58-0.553l0.249-0.33l0.082-0.359l0.056-0.414l0.11-0.441   l0.193-0.332l0.138-0.111l0.139-0.055l0.386,0.027l0.415,0.055h0.441l0.387-0.082l0.358-0.221l0.249-0.305l0.165-0.387l0.027-0.385   l-0.083-0.414l-0.192-0.359l-0.166-0.139l-0.166-0.082l-0.441-0.029h-0.193l-0.165-0.055l-0.083-0.109l-0.028-0.195l0.056-0.441   l0.11-0.441l0.083-0.387l-0.083-0.414l-0.11-0.193l-0.139-0.111l-0.138,0.084l-0.165,0.166l-0.165,0.387l-0.057,0.387l-0.082,0.385   l-0.166,0.359l-0.248,0.332l-0.304,0.248l-0.387,0.139l-0.387,0.055l-0.414-0.027l-0.414-0.166l-0.165-0.109l-0.111-0.139   l-0.083-0.166v-0.193l0.222-0.801l0.055-0.414l-0.027-0.387l-0.11-0.387l-0.139-0.387l-0.22-0.33l-0.249-0.305l-0.304-0.221   l-0.386-0.139l-0.388-0.027l-0.414,0.027l-0.414,0.084l-0.386,0.166l-0.69,0.414l-0.579,0.523l-0.471,0.664l-0.221,0.357   l-0.083,0.359l0.056,0.414l0.11,0.139l0.138,0.055h0.388l0.469-0.082l0.47-0.082l0.441,0.025l0.386,0.139l0.332,0.193l0.304,0.305   l0.248,0.332l0.083,0.164l0.027,0.193l-0.055,0.166l-0.11,0.139l-0.332,0.275l-0.386,0.277l-0.332,0.248l-0.248,0.275   L280.361,64.219L280.361,64.219z M280.582,39.253l-0.248,0.055l-0.221,0.11l-0.111,0.166v0.221l0.056,0.221l0.139,0.193   l0.358,0.276l0.304,0.332l0.248,0.386l0.166,0.442l0.11,0.442l0.083,0.193l0.138,0.166l0.387,0.249l0.387,0.249l0.358,0.276   l0.636,0.607l0.414,0.249l0.221,0.056l0.11-0.166l0.11-0.221l0.193-0.138l0.193-0.111l0.11-0.166V43.12l-0.027-0.276l-0.11-0.497   l-0.166-0.441l-0.193-0.415l-0.497-0.718l-0.635-0.607l-0.772-0.497l-0.856-0.331l-0.414-0.083H280.582L280.582,39.253z    M277.187,49.665l0.11,0.193l0.193,0.11l0.496,0.166l0.525,0.083l0.442,0.083l0.441,0.111l0.441,0.193l0.387,0.275l0.249,0.387   l0.138,0.471l0.083,0.469l0.193,0.912l0.192,0.496l0.138,0.166h0.166l0.138-0.109l0.166-0.25l0.222-0.553l0.165-0.91l0.221-0.441   l0.138-0.193l0.193-0.166l0.193-0.111l0.249-0.055l0.221-0.055l0.193-0.111l0.138-0.193l0.083-0.221l0.11-0.469v-0.497l-0.083-0.47   l-0.138-0.442l-0.193-0.442l-0.248-0.386l-0.304-0.387l-0.332-0.358l-0.358-0.332l-0.331-0.332l-0.056-0.193l-0.027-0.221   l0.027-0.525l-0.027-0.525l-0.139-0.497l-0.275-0.441l-0.358-0.304l-0.222-0.083l-0.221-0.027l-0.47,0.083l-0.441,0.166   l-0.441,0.138l-0.442,0.055l-0.993,0.028l-0.249,0.028l-0.193,0.083l-0.083,0.221l-0.027,0.221V49.665L277.187,49.665z    M277.573,32.708l-0.166-0.166l-0.138-0.028l-0.083,0.111l-0.027,0.249v0.607v0.553v0.497l0.027,0.415v0.746l0.027,0.718   l-0.027,0.829v0.221l0.027,0.221l0.139,0.055l0.248-0.055l0.497-0.139l0.441-0.083l0.746-0.138l0.386-0.138l0.387-0.221l0.11-0.166   v-0.166l-0.083-0.193l-0.109-0.221l-0.607-0.801l-0.497-0.69l-0.47-0.663l-0.386-0.663l-0.194-0.332L277.573,32.708L277.573,32.708   z M229.922,78.385h-0.552l-0.497,0.057l-0.497,0.137l-0.441,0.166l-0.855,0.441l-0.746,0.607l-0.635,0.691l-0.552,0.773   l-0.442,0.855l-0.331,0.912l-0.193,0.939l-0.055,0.965l0.082,0.967l0.276,0.912l0.193,0.441l0.249,0.414l0.303,0.359l0.332,0.359   l0.386,0.275l0.414,0.221l0.47,0.193l0.441,0.139l0.938,0.109l0.442-0.025l0.496-0.084l0.525-0.166l0.469-0.248l0.166-0.166   l0.083-0.193v-0.248l-0.138-0.166l-0.221-0.055l-0.276,0.027l-0.249-0.027l-0.221-0.084l-0.192-0.137l-0.166-0.166l-0.249-0.471   l-0.138-0.551l-0.027-0.525l0.055-0.498l0.138-0.441l0.222-0.414l0.303-0.387l0.331-0.387l0.194-0.414v-0.441l-0.056-0.498   l-0.11-0.938l-0.028-0.912l0.083-0.469l0.222-0.525l0.358-0.498l0.139-0.248l0.11-0.221v-0.166l-0.083-0.109l-0.221-0.057   L229.922,78.385L229.922,78.385z M245.604,77.475l-0.358,0.027l-0.305-0.055l-0.607-0.166l-0.524-0.193l-0.553-0.111l-0.579-0.027   l-0.58,0.027l-1.27,0.084h-0.662h-0.166l-0.11,0.027l-0.028,0.082l0.028,0.139l0.166,0.33l0.221,0.389l0.192,0.357l0.11,0.332   l0.056,0.305v0.275l-0.138,0.525l-0.304,0.496l-0.358,0.498l-0.773,1.021l-0.276,0.553l-0.165,0.607l-0.028,0.607l0.11,0.607   l0.276,0.525l0.359,0.496l0.469,0.441l0.525,0.414l0.579,0.332l0.607,0.221l0.276,0.055h0.303l0.304-0.055l0.276-0.139l0.249-0.193   l0.165-0.275l0.165-0.58l0.111-0.303l0.165-0.223l0.249-0.166l0.331-0.109l0.304-0.055h0.332l0.303,0.082l0.249,0.166l0.359,0.525   l0.165,0.248l0.221,0.193l0.304,0.082h0.304l0.662-0.082l0.607-0.193l0.58-0.248l0.497-0.332l0.414-0.414l0.331-0.469l0.276-0.525   l0.497-1.188l0.248-0.607l-0.027-0.305l-0.193-0.221l-0.276-0.137l-0.303-0.057l-0.607,0.027l-0.304-0.027l-0.305-0.139   l-0.275-0.164l-0.221-0.221l-0.387-0.553l-0.11-0.305l-0.056-0.275v-0.607l0.139-0.58l0.165-0.637l0.083-0.303l0.028-0.275   l-0.111-0.139l-0.193-0.055l-0.275,0.055l-0.358,0.082l-0.773,0.277L245.604,77.475L245.604,77.475z M230.557,70.238l-0.303,0.359   l-0.221,0.387l-0.415,0.662l-0.579,0.607l-0.304,0.305l-0.276,0.359l-0.166,0.441v0.221l0.028,0.193l0.11,0.193l0.192,0.139   l0.388,0.193l0.441,0.137l0.386,0.166l0.304,0.305l0.166,0.414l0.11,0.221l0.138,0.139l0.193,0.082l0.193-0.027l0.138-0.111   l0.083-0.164l0.028-0.223l-0.028-0.221l-0.248-1.076l-0.083-0.498l-0.027-0.414l0.027-0.828l0.139-0.801l0.083-0.414l0.026-0.441   l-0.026-0.221l-0.111-0.193l-0.083-0.057h-0.11L230.557,70.238L230.557,70.238z M227.907,64.219l-0.387-0.691l-0.249-0.275   l-0.331-0.248l-0.387-0.277l-0.331-0.275l-0.11-0.139l-0.055-0.166l0.027-0.193l0.11-0.164l0.248-0.332l0.276-0.305l0.359-0.193   l0.386-0.139l0.414-0.025l0.47,0.082l0.47,0.082h0.386l0.138-0.055l0.111-0.139l0.055-0.414l-0.083-0.359l-0.193-0.357   l-0.496-0.664l-0.58-0.523l-0.69-0.414l-0.386-0.166l-0.388-0.084l-0.414-0.027l-0.413,0.027l-0.359,0.139l-0.332,0.221   l-0.247,0.305l-0.222,0.33l-0.138,0.387l-0.111,0.387l-0.026,0.387l0.055,0.414l0.221,0.801v0.193l-0.055,0.166l-0.139,0.139   l-0.165,0.109l-0.414,0.166l-0.415,0.027l-0.386-0.055l-0.387-0.139l-0.304-0.248l-0.248-0.332l-0.166-0.359l-0.083-0.385   l-0.055-0.387l-0.166-0.387l-0.139-0.166l-0.165-0.084l-0.138,0.111l-0.11,0.193l-0.056,0.414l0.056,0.387l0.11,0.441l0.055,0.441   l-0.027,0.195l-0.083,0.109l-0.166,0.055h-0.192l-0.442,0.029l-0.165,0.082l-0.166,0.139l-0.193,0.359l-0.083,0.414l0.028,0.385   l0.166,0.387l0.275,0.305l0.331,0.221l0.387,0.082h0.442l0.413-0.055l0.387-0.027l0.139,0.055l0.138,0.111l0.193,0.332l0.11,0.441   l0.056,0.414l0.083,0.359l0.247,0.33l0.58,0.553l0.193,0.332l0.11,0.387l0.11,0.387l0.083,0.193l0.139,0.055l0.192-0.055   l0.193-0.166l0.276-0.305l0.276-0.248l0.165-0.082h0.221l0.193,0.027l0.194,0.082l0.137,0.111l0.083,0.166l0.083,0.385   l-0.027,0.471l-0.027,0.414l-0.028,0.414l0.028,0.691l-0.028,0.773l-0.055,0.441l-0.083,0.523l-0.056,0.277l0.028,0.193   l0.055,0.109h0.139l0.358-0.221l0.249-0.303l0.387-0.691l0.496-0.607l0.58-0.553l0.524-0.551l0.193-0.332l0.165-0.359l0.221-0.773   l0.222-0.801l0.138-0.801v-0.387l-0.083-0.387l-0.193-0.33l-0.275-0.277l-0.358-0.221l-0.414-0.139l-0.388-0.109L227.907,64.219   L227.907,64.219z M227.686,39.253h-0.441l-0.441,0.083l-0.828,0.331l-0.773,0.497l-0.663,0.607l-0.496,0.718l-0.193,0.415   l-0.166,0.441l-0.11,0.497l-0.027,0.276l0.027,0.221l0.083,0.166l0.193,0.111l0.193,0.138l0.11,0.221l0.11,0.166l0.221-0.056   l0.414-0.249l0.663-0.607l0.331-0.276l0.386-0.249l0.387-0.249l0.139-0.166l0.082-0.193l0.111-0.442l0.166-0.442l0.248-0.386   l0.303-0.332l0.359-0.276l0.138-0.193l0.083-0.221l-0.027-0.221l-0.11-0.166l-0.221-0.11L227.686,39.253L227.686,39.253z    M231.081,49.665V44.5l-0.026-0.221l-0.083-0.221l-0.194-0.083l-0.247-0.028l-0.968-0.028l-0.468-0.055l-0.442-0.138l-0.442-0.166   l-0.469-0.083l-0.221,0.027l-0.221,0.083l-0.359,0.304l-0.276,0.441l-0.138,0.497l-0.027,0.525l0.027,0.525l-0.027,0.221   l-0.056,0.193l-0.331,0.332l-0.359,0.332l-0.331,0.358l-0.303,0.387l-0.222,0.386l-0.193,0.442l-0.138,0.442l-0.083,0.47   l-0.028,0.497l0.111,0.469l0.083,0.221l0.138,0.193l0.193,0.111l0.221,0.055l0.248,0.055l0.221,0.111l0.166,0.166l0.166,0.193   l0.193,0.441l0.165,0.91l0.222,0.553l0.165,0.25l0.166,0.109h0.138l0.138-0.166l0.222-0.496l0.166-0.912l0.083-0.469l0.137-0.471   l0.249-0.387l0.387-0.275l0.441-0.193l0.441-0.111l0.47-0.083l0.497-0.083l0.496-0.166l0.194-0.11L231.081,49.665L231.081,49.665z    M230.695,32.708l-0.248,0.358l-0.166,0.332l-0.414,0.663l-0.47,0.663l-0.497,0.69l-0.579,0.801l-0.139,0.221l-0.082,0.193v0.166   l0.109,0.166l0.388,0.221l0.386,0.138l0.773,0.138l0.414,0.083l0.496,0.139l0.249,0.055l0.139-0.055l0.026-0.221v-0.221v-0.829   v-0.718v-0.746l0.028-0.415v-0.497v-0.553v-0.607l-0.028-0.249l-0.082-0.111l-0.139,0.028L230.695,32.708L230.695,32.708z    M256.246,20.513l-0.883-1.16l-0.719-1.298l-0.524-1.354l-0.523,1.354l-0.719,1.298l-0.855,1.16v0.359l0.331,0.193h1.767h1.768   l0.331-0.193L256.246,20.513z"></path><g><polygon fill="#000000" points="236.409,26.357 271.858,26.357 271.858,71.537 236.409,71.537 236.409,26.357   "></polygon><polygon fill="#000000" points="261.202,6.804 262.113,7.08 262.969,7.467 263.77,7.992 263.99,8.102 264.211,8.074     264.432,7.964 264.542,7.743 264.569,7.495 264.376,6.915 264.018,6.362 263.549,5.92 262.996,5.617 262.39,5.451 261.754,5.451     261.146,5.617 260.566,5.92 260.125,6.362 260.069,6.5 260.125,6.639 260.263,6.694   "></polygon><polygon fill="#000000" points="258.606,1.446 258.468,2.551 258.138,3.601 257.612,4.595 256.95,5.506 256.149,6.28     255.238,6.887 255.377,5.783 255.708,4.733 256.205,3.739 256.867,2.828 257.695,2.054   "></polygon><polygon fill="#000000" points="261.864,9.897 261.698,11.637 261.671,12.272 261.478,12.908 261.119,13.433 260.649,13.874     260.098,14.205 259.986,14.316 259.959,14.481 260.069,14.592 260.152,14.813 260.125,15.034 259.986,15.227 259.794,15.338     259.241,15.559 258.772,15.945 258.441,16.47 258.303,17.022 258.303,17.63 258.496,18.21 258.855,18.679 259.324,19.038     260.18,19.397 261.092,19.59 262.002,19.59 262.913,19.37 263.742,18.983 264.487,18.431 265.563,17.547 266.558,16.553     267.441,15.448 268.186,14.261 268.241,13.902 268.159,13.542 267.938,13.267 267.606,13.073 266.916,12.853 266.309,12.493     266.061,12.41 265.867,12.548 264.625,14.371 264.267,14.537 263.88,14.454 263.604,14.205 263.493,13.819 263.438,13.045     263.493,12.272 263.466,11.913 263.328,11.61 263.079,11.361 262.472,10.643 262.113,9.787 262.002,9.731 261.893,9.759   "></polygon><polygon fill="#000000" points="274.067,20.475 274.149,20.723 274.343,20.889 274.591,20.972 276.083,20.972 276.386,20.916     276.606,20.695 276.662,20.392 276.634,17.133 276.469,16.359 276.109,15.642 275.612,15.006 275.006,14.509 274.315,14.15     273.57,13.93 272.77,13.874 271.996,14.012 271.251,14.288 270.727,14.785 270.34,15.393 270.063,16.056 269.926,16.747     269.926,17.464 270.036,17.658 270.201,17.768 270.423,17.768 271.003,17.492 271.61,17.354 272.217,17.409 272.824,17.602     273.35,17.934 273.763,18.403 274.04,18.983 274.149,19.59 274.094,20.198   "></polygon><polygon fill="#000000" points="282.515,23.346 281.99,23.264 281.521,22.96 281.106,22.711 280.61,22.656 280.113,22.767     279.727,23.043 279.451,23.457 279.119,24.672 279.009,25.942 279.063,27.185 279.285,28.428 279.699,29.615 280.307,30.72     281.659,32.929 282.874,35.222 283.344,35.498 283.923,35.139 283.481,33.951 283.371,32.902 283.481,31.852 283.785,30.858     284.31,29.919 284.972,29.118 285.801,28.455 285.993,28.207 286.021,27.903 285.938,27.627 285.745,27.406 285.718,27.129     285.801,26.881 286.021,26.688 286.877,26.412 287.761,26.357 288.284,26.218 288.699,25.86 288.976,25.39 289.03,24.866     288.864,24.341 288.284,23.678 287.54,23.153 286.904,22.711 286.407,22.104 286.049,21.386 285.91,20.612 285.745,19.756     285.386,18.983 284.889,18.265 284.254,17.934 283.509,17.823 282.791,17.961 282.156,18.32 281.963,18.569 281.935,18.873     282.073,19.121 282.322,19.287 283.178,19.618 283.923,20.115 284.53,20.806 284.944,21.606 285.165,22.49 285.138,22.794     284.972,23.07 284.696,23.208 284.392,23.208 283.729,23.098 283.039,23.181   "></polygon><polygon fill="#000000" points="253.03,6.887 252.118,6.28 251.318,5.506 250.655,4.595 250.158,3.601 249.827,2.551     249.661,1.446 250.6,2.054 251.401,2.828 252.063,3.739 252.561,4.733 252.892,5.783   "></polygon><polygon fill="#000000" points="248.005,6.694 248.143,6.639 248.199,6.5 248.171,6.362 247.701,5.92 247.122,5.617     246.515,5.451 245.879,5.451 245.271,5.617 244.72,5.92 244.25,6.362 243.919,6.915 243.698,7.495 243.727,7.743 243.836,7.964     244.058,8.074 244.278,8.102 244.499,7.992 245.3,7.467 246.155,7.08 247.066,6.804   "></polygon><polygon fill="#000000" points="246.376,9.759 246.266,9.731 246.155,9.787 245.797,10.643 245.189,11.361 244.94,11.61     244.803,11.913 244.774,12.272 244.83,13.045 244.774,13.819 244.692,14.205 244.389,14.454 244.002,14.537 243.644,14.371     242.4,12.548 242.208,12.41 241.986,12.493 241.353,12.853 240.661,13.073 240.357,13.267 240.109,13.542 240.026,13.902     240.082,14.261 240.827,15.448 241.711,16.553 242.705,17.547 243.809,18.431 244.526,18.983 245.383,19.37 246.266,19.59     247.178,19.59 248.088,19.397 248.943,19.038 249.413,18.679 249.772,18.21 249.966,17.63 249.993,17.022 249.827,16.47     249.496,15.945 249.026,15.559 248.475,15.338 248.281,15.227 248.143,15.034 248.116,14.813 248.226,14.592 248.309,14.481     248.281,14.316 248.199,14.205 247.619,13.874 247.149,13.433 246.818,12.908 246.598,12.272 246.569,11.637 246.404,9.897   "></polygon><polygon fill="#000000" points="234.174,20.198 234.118,19.59 234.229,18.983 234.506,18.403 234.92,17.934 235.444,17.602     236.051,17.409 236.658,17.354 237.294,17.492 237.846,17.768 238.066,17.768 238.26,17.658 238.343,17.464 238.37,16.747     238.232,16.056 237.956,15.393 237.542,14.785 237.018,14.288 236.3,14.012 235.499,13.874 234.726,13.93 233.952,14.15     233.263,14.509 232.655,15.006 232.158,15.642 231.827,16.359 231.634,17.133 231.606,20.392 231.661,20.695 231.883,20.916     232.186,20.972 233.677,20.972 233.952,20.889 234.146,20.723 234.229,20.475   "></polygon><polygon fill="#000000" points="225.229,23.181 224.538,23.098 223.876,23.208 223.572,23.208 223.296,23.07 223.131,22.794     223.103,22.49 223.324,21.606 223.738,20.806 224.346,20.115 225.091,19.618 225.946,19.287 226.223,19.121 226.333,18.873     226.306,18.569 226.112,18.32 225.478,17.961 224.76,17.823 224.042,17.934 223.379,18.265 222.883,18.983 222.551,19.756     222.386,20.612 222.22,21.386 221.86,22.104 221.364,22.711 220.729,23.153 220.012,23.678 219.403,24.341 219.238,24.866     219.32,25.39 219.569,25.86 219.982,26.218 220.508,26.357 221.419,26.412 222.274,26.688 222.469,26.881 222.578,27.129     222.523,27.406 222.33,27.627 222.247,27.903 222.303,28.207 222.469,28.455 223.296,29.118 223.959,29.919 224.483,30.858     224.787,31.852 224.897,32.902 224.814,33.951 224.373,35.139 224.926,35.498 225.395,35.222 226.608,32.929 227.989,30.72     228.569,29.615 228.983,28.428 229.231,27.185 229.26,25.942 229.148,24.672 228.818,23.457 228.542,23.043 228.155,22.767     227.659,22.656 227.162,22.711 226.747,22.96 226.277,23.264 225.753,23.346   "></polygon><polygon fill="#000000" points="278.374,78.33 278.098,78.357 277.877,78.412 277.794,78.523 277.821,78.689 277.904,78.91     278.042,79.158 278.401,79.656 278.649,80.182 278.732,80.65 278.678,81.561 278.566,82.5 278.512,82.998 278.512,83.439     278.705,83.854 279.037,84.24 279.34,84.627 279.561,85.041 279.699,85.482 279.754,85.98 279.727,86.506 279.588,87.057     279.34,87.527 279.175,87.691 278.98,87.83 278.76,87.914 278.512,87.941 278.235,87.914 278.016,87.969 277.877,88.135     277.877,88.383 277.96,88.576 278.125,88.742 278.622,88.99 279.146,89.156 279.616,89.238 280.085,89.266 280.996,89.156     281.438,89.018 281.908,88.824 282.322,88.604 282.708,88.328 283.039,87.969 283.344,87.609 283.592,87.195 283.785,86.754     284.061,85.842 284.144,84.875 284.089,83.908 283.895,82.969 283.563,82.059 283.122,81.203 282.57,80.43 281.935,79.738     281.189,79.131 280.361,78.689 279.893,78.523 279.423,78.387 278.898,78.33 278.374,78.33   "></polygon><polygon fill="#000000" points="262.665,77.418 261.864,77.227 261.092,76.949 260.732,76.867 260.456,76.813 260.263,76.867     260.152,77.004 260.18,77.281 260.263,77.584 260.429,78.221 260.566,78.801 260.566,79.406 260.512,79.684 260.4,79.986     260.015,80.539 259.794,80.76 259.518,80.926 259.241,81.064 258.91,81.092 258.303,81.064 257.999,81.119 257.723,81.258     257.529,81.479 257.502,81.783 257.751,82.391 258.248,83.578 258.523,84.102 258.883,84.572 259.297,84.986 259.794,85.316     260.346,85.566 260.953,85.76 261.615,85.842 261.947,85.842 262.224,85.76 262.444,85.566 262.609,85.316 262.969,84.793     263.217,84.627 263.521,84.543 263.852,84.543 264.184,84.6 264.487,84.709 264.735,84.875 264.929,85.096 265.012,85.4     265.178,85.98 265.344,86.256 265.592,86.449 265.867,86.588 266.171,86.643 266.475,86.643 266.779,86.588 267.358,86.367     267.938,86.035 268.463,85.621 268.932,85.18 269.318,84.682 269.567,84.158 269.678,83.549 269.65,82.943 269.484,82.334     269.208,81.783 268.435,80.76 268.076,80.264 267.8,79.766 267.635,79.242 267.635,78.965 267.689,78.662 267.8,78.33     267.993,77.971 268.215,77.584 268.38,77.254 268.407,77.115 268.38,77.033 268.269,77.004 268.132,77.004 267.441,77.004     266.199,76.922 265.592,76.895 265.012,76.922 264.459,77.033 263.935,77.227 263.354,77.393 263.023,77.447 262.665,77.418   "></polygon><polygon fill="#000000" points="277.711,70.184 277.519,70.018 277.436,70.018 277.353,70.072 277.242,70.268 277.187,70.488     277.214,70.93 277.297,71.344 277.436,72.145 277.463,72.973 277.436,73.387 277.353,73.885 277.104,74.961 277.104,75.182     277.104,75.402 277.187,75.568 277.324,75.68 277.545,75.707 277.739,75.623 277.85,75.486 277.96,75.266 278.125,74.85     278.429,74.547 278.815,74.381 279.258,74.244 279.671,74.051 279.837,73.912 279.947,73.719 279.976,73.525 279.976,73.305     279.81,72.861 279.561,72.504 279.258,72.199 278.649,71.592 278.235,70.93 278.016,70.543 277.711,70.184   "></polygon><polygon fill="#000000" points="280.361,64.162 280.058,64.357 279.671,64.467 279.258,64.605 278.898,64.826 278.622,65.102     278.429,65.434 278.346,65.82 278.346,66.207 278.512,67.008 278.705,67.809 278.926,68.582 279.092,68.941 279.285,69.273     279.81,69.824 280.39,70.377 280.914,70.984 281.272,71.676 281.521,71.979 281.88,72.199 282.018,72.199 282.101,72.09     282.101,71.896 282.073,71.619 281.963,71.096 281.908,70.652 281.908,69.879 281.908,69.189 281.88,68.775 281.853,68.361     281.853,67.891 281.908,67.504 281.99,67.34 282.129,67.229 282.322,67.146 282.515,67.119 282.735,67.119 282.901,67.201     283.178,67.449 283.453,67.754 283.646,67.92 283.84,67.975 283.978,67.92 284.089,67.725 284.171,67.34 284.282,66.953     284.475,66.621 285.055,66.068 285.304,65.736 285.386,65.379 285.441,64.965 285.552,64.521 285.745,64.191 285.883,64.08     286.021,64.025 286.407,64.053 286.822,64.107 287.264,64.107 287.65,64.025 288.009,63.805 288.258,63.5 288.423,63.113     288.45,62.727 288.367,62.313 288.175,61.953 288.009,61.816 287.843,61.732 287.401,61.705 287.208,61.705 287.043,61.65     286.96,61.539 286.932,61.346 286.987,60.904 287.098,60.463 287.181,60.076 287.098,59.662 286.987,59.469 286.849,59.357     286.711,59.441 286.546,59.605 286.381,59.994 286.324,60.379 286.242,60.766 286.076,61.125 285.828,61.457 285.524,61.705     285.138,61.844 284.751,61.898 284.337,61.871 283.923,61.705 283.758,61.596 283.646,61.457 283.563,61.291 283.563,61.098     283.785,60.297 283.84,59.883 283.813,59.496 283.702,59.109 283.563,58.723 283.344,58.391 283.095,58.088 282.791,57.867     282.405,57.729 282.018,57.701 281.604,57.729 281.189,57.811 280.804,57.977 280.113,58.391 279.534,58.916 279.063,59.58     278.843,59.938 278.76,60.297 278.815,60.711 278.926,60.85 279.063,60.904 279.451,60.904 279.92,60.822 280.39,60.738     280.831,60.766 281.217,60.904 281.549,61.098 281.853,61.402 282.101,61.732 282.184,61.898 282.211,62.092 282.156,62.258     282.046,62.396 281.714,62.672 281.328,62.947 280.996,63.197 280.748,63.473 280.361,64.162   "></polygon><polygon fill="#000000" points="280.582,39.198 280.334,39.253 280.113,39.364 280.002,39.53 280.002,39.75 280.058,39.971     280.196,40.165 280.555,40.441 280.858,40.772 281.106,41.159 281.272,41.601 281.383,42.042 281.466,42.236 281.604,42.402     281.99,42.65 282.377,42.899 282.735,43.175 283.371,43.782 283.785,44.031 284.006,44.086 284.116,43.921 284.227,43.699     284.42,43.562 284.613,43.451 284.724,43.285 284.724,43.064 284.696,42.788 284.586,42.291 284.42,41.85 284.227,41.435     283.729,40.717 283.095,40.11 282.322,39.613 281.466,39.281 281.052,39.198 280.582,39.198   "></polygon><polygon fill="#000000" points="277.187,49.609 277.297,49.803 277.49,49.913 277.986,50.079 278.512,50.162 278.954,50.245     279.396,50.355 279.837,50.549 280.224,50.824 280.473,51.211 280.61,51.682 280.693,52.15 280.887,53.061 281.079,53.559     281.217,53.725 281.383,53.725 281.521,53.613 281.687,53.365 281.908,52.813 282.073,51.902 282.294,51.461 282.432,51.266     282.625,51.102 282.818,50.99 283.067,50.936 283.288,50.88 283.481,50.77 283.619,50.576 283.702,50.355 283.813,49.886     283.813,49.389 283.729,48.919 283.592,48.478 283.398,48.035 283.15,47.649 282.847,47.262 282.515,46.903 282.156,46.572     281.825,46.241 281.77,46.047 281.742,45.826 281.77,45.301 281.742,44.776 281.604,44.279 281.328,43.838 280.97,43.534     280.748,43.451 280.527,43.424 280.058,43.506 279.616,43.672 279.175,43.81 278.732,43.865 277.739,43.893 277.49,43.921     277.297,44.003 277.214,44.224 277.187,44.445 277.187,49.609   "></polygon><polygon fill="#000000" points="277.573,32.653 277.407,32.488 277.27,32.46 277.187,32.57 277.159,32.819 277.159,33.426     277.159,33.979 277.159,34.476 277.187,34.89 277.187,35.636 277.214,36.354 277.187,37.182 277.187,37.403 277.214,37.624     277.353,37.679 277.601,37.624 278.098,37.486 278.539,37.403 279.285,37.265 279.671,37.127 280.058,36.906 280.168,36.74     280.168,36.574 280.085,36.381 279.976,36.16 279.368,35.359 278.871,34.669 278.401,34.006 278.016,33.343 277.821,33.012     277.573,32.653   "></polygon><polygon fill="#000000" points="229.922,78.33 229.37,78.33 228.873,78.387 228.376,78.523 227.935,78.689 227.079,79.131     226.333,79.738 225.698,80.43 225.146,81.203 224.704,82.059 224.373,82.969 224.18,83.908 224.125,84.875 224.207,85.842     224.483,86.754 224.677,87.195 224.926,87.609 225.229,87.969 225.561,88.328 225.946,88.604 226.36,88.824 226.83,89.018     227.271,89.156 228.21,89.266 228.652,89.238 229.148,89.156 229.674,88.99 230.143,88.742 230.309,88.576 230.392,88.383     230.392,88.135 230.254,87.969 230.033,87.914 229.757,87.941 229.508,87.914 229.287,87.83 229.095,87.691 228.929,87.527     228.68,87.057 228.542,86.506 228.515,85.98 228.569,85.482 228.707,85.041 228.929,84.627 229.231,84.24 229.563,83.854     229.757,83.439 229.757,82.998 229.701,82.5 229.591,81.561 229.563,80.65 229.646,80.182 229.867,79.656 230.226,79.158     230.364,78.91 230.475,78.689 230.475,78.523 230.392,78.412 230.171,78.357 229.922,78.33   "></polygon><polygon fill="#000000" points="245.604,77.418 245.245,77.447 244.94,77.393 244.333,77.227 243.809,77.033 243.256,76.922     242.677,76.895 242.097,76.922 240.827,77.004 240.165,77.004 239.999,77.004 239.889,77.033 239.86,77.115 239.889,77.254     240.055,77.584 240.275,77.971 240.468,78.33 240.578,78.662 240.634,78.965 240.634,79.242 240.496,79.766 240.192,80.264     239.834,80.76 239.061,81.783 238.784,82.334 238.619,82.943 238.591,83.549 238.701,84.158 238.978,84.682 239.337,85.18     239.806,85.621 240.331,86.035 240.91,86.367 241.518,86.588 241.794,86.643 242.097,86.643 242.4,86.588 242.677,86.449     242.926,86.256 243.091,85.98 243.256,85.4 243.367,85.096 243.532,84.875 243.781,84.709 244.112,84.6 244.416,84.543     244.748,84.543 245.051,84.627 245.3,84.793 245.659,85.316 245.824,85.566 246.045,85.76 246.349,85.842 246.652,85.842     247.314,85.76 247.922,85.566 248.502,85.316 248.999,84.986 249.413,84.572 249.744,84.102 250.021,83.578 250.518,82.391     250.766,81.783 250.738,81.479 250.545,81.258 250.269,81.119 249.966,81.064 249.358,81.092 249.055,81.064 248.75,80.926     248.475,80.76 248.254,80.539 247.867,79.986 247.757,79.684 247.701,79.406 247.701,78.801 247.84,78.221 248.005,77.584     248.088,77.281 248.116,77.004 248.005,76.867 247.812,76.813 247.536,76.867 247.178,76.949 246.404,77.227 245.604,77.418   "></polygon><polygon fill="#000000" points="230.557,70.184 230.254,70.543 230.033,70.93 229.618,71.592 229.039,72.199 228.735,72.504     228.459,72.861 228.293,73.305 228.293,73.525 228.321,73.719 228.432,73.912 228.624,74.051 229.012,74.244 229.453,74.381     229.839,74.547 230.143,74.85 230.309,75.266 230.419,75.486 230.557,75.623 230.75,75.707 230.943,75.68 231.081,75.568     231.164,75.402 231.192,75.182 231.164,74.961 230.916,73.885 230.833,73.387 230.806,72.973 230.833,72.145 230.972,71.344     231.055,70.93 231.081,70.488 231.055,70.268 230.943,70.072 230.86,70.018 230.75,70.018 230.557,70.184   "></polygon><polygon fill="#000000" points="227.907,64.162 227.521,63.473 227.271,63.197 226.94,62.947 226.554,62.672 226.223,62.396     226.112,62.258 226.058,62.092 226.085,61.898 226.195,61.732 226.443,61.402 226.72,61.098 227.079,60.904 227.465,60.766     227.879,60.738 228.349,60.822 228.818,60.904 229.204,60.904 229.342,60.85 229.453,60.711 229.508,60.297 229.425,59.938     229.231,59.58 228.735,58.916 228.155,58.391 227.465,57.977 227.079,57.811 226.691,57.729 226.277,57.701 225.864,57.729     225.505,57.867 225.173,58.088 224.926,58.391 224.704,58.723 224.566,59.109 224.455,59.496 224.429,59.883 224.483,60.297     224.704,61.098 224.704,61.291 224.649,61.457 224.511,61.596 224.346,61.705 223.932,61.871 223.517,61.898 223.131,61.844     222.744,61.705 222.44,61.457 222.192,61.125 222.026,60.766 221.943,60.379 221.889,59.994 221.723,59.605 221.584,59.441     221.419,59.357 221.281,59.469 221.171,59.662 221.115,60.076 221.171,60.463 221.281,60.904 221.336,61.346 221.309,61.539     221.226,61.65 221.06,61.705 220.867,61.705 220.425,61.732 220.26,61.816 220.094,61.953 219.9,62.313 219.817,62.727     219.846,63.113 220.012,63.5 220.287,63.805 220.618,64.025 221.005,64.107 221.447,64.107 221.86,64.053 222.247,64.025     222.386,64.08 222.523,64.191 222.717,64.521 222.827,64.965 222.883,65.379 222.966,65.736 223.213,66.068 223.793,66.621     223.986,66.953 224.097,67.34 224.207,67.725 224.29,67.92 224.429,67.975 224.621,67.92 224.814,67.754 225.091,67.449     225.367,67.201 225.532,67.119 225.753,67.119 225.946,67.146 226.141,67.229 226.277,67.34 226.36,67.504 226.443,67.891     226.416,68.361 226.389,68.775 226.36,69.189 226.389,69.879 226.36,70.652 226.306,71.096 226.223,71.619 226.167,71.896     226.195,72.09 226.25,72.199 226.389,72.199 226.747,71.979 226.996,71.676 227.383,70.984 227.879,70.377 228.459,69.824     228.983,69.273 229.177,68.941 229.342,68.582 229.563,67.809 229.784,67.008 229.922,66.207 229.922,65.82 229.839,65.434     229.646,65.102 229.37,64.826 229.012,64.605 228.598,64.467 228.21,64.357 227.907,64.162   "></polygon><polygon fill="#000000" points="227.686,39.198 227.244,39.198 226.803,39.281 225.975,39.613 225.201,40.11 224.538,40.717     224.042,41.435 223.849,41.85 223.683,42.291 223.572,42.788 223.545,43.064 223.572,43.285 223.655,43.451 223.849,43.562     224.042,43.699 224.152,43.921 224.263,44.086 224.483,44.031 224.897,43.782 225.561,43.175 225.892,42.899 226.277,42.65     226.664,42.402 226.803,42.236 226.885,42.042 226.996,41.601 227.162,41.159 227.41,40.772 227.713,40.441 228.072,40.165     228.21,39.971 228.293,39.75 228.266,39.53 228.155,39.364 227.935,39.253 227.686,39.198   "></polygon><polygon fill="#000000" points="231.081,49.609 231.081,44.445 231.055,44.224 230.972,44.003 230.777,43.921 230.53,43.893     229.563,43.865 229.095,43.81 228.652,43.672 228.21,43.506 227.741,43.424 227.521,43.451 227.3,43.534 226.94,43.838     226.664,44.279 226.526,44.776 226.499,45.301 226.526,45.826 226.499,46.047 226.443,46.241 226.112,46.572 225.753,46.903     225.422,47.262 225.119,47.649 224.897,48.035 224.704,48.478 224.566,48.919 224.483,49.389 224.455,49.886 224.566,50.355     224.649,50.576 224.787,50.77 224.98,50.88 225.201,50.936 225.449,50.99 225.67,51.102 225.836,51.266 226.002,51.461     226.195,51.902 226.36,52.813 226.582,53.365 226.747,53.613 226.913,53.725 227.051,53.725 227.188,53.559 227.41,53.061     227.576,52.15 227.659,51.682 227.796,51.211 228.045,50.824 228.432,50.549 228.873,50.355 229.314,50.245 229.784,50.162     230.281,50.079 230.777,49.913 230.972,49.803 231.081,49.609   "></polygon><polygon fill="#000000" points="230.695,32.653 230.447,33.012 230.281,33.343 229.867,34.006 229.397,34.669 228.9,35.359     228.321,36.16 228.183,36.381 228.101,36.574 228.101,36.74 228.21,36.906 228.598,37.127 228.983,37.265 229.757,37.403     230.171,37.486 230.667,37.624 230.916,37.679 231.055,37.624 231.081,37.403 231.081,37.182 231.081,36.354 231.081,35.636     231.081,34.89 231.109,34.476 231.109,33.979 231.109,33.426 231.109,32.819 231.081,32.57 230.999,32.46 230.86,32.488     230.695,32.653   "></polygon><polygon fill="#000000" points="256.246,20.458 255.363,19.298 254.645,18 254.12,16.647 253.597,18 252.878,19.298     252.022,20.458 252.022,20.817 252.354,21.011 254.12,21.011 255.888,21.011 256.219,20.817   "></polygon></g></g></svg>