<svg xmlns="http://www.w3.org/2000/svg" xmlns:xlink="http://www.w3.org/1999/xlink" viewBox="0 0 100 100" version="1.1" xml:space="preserve" style="" x="0px" y="0px" fill-rule="evenodd" clip-rule="evenodd" stroke-linejoin="round" stroke-miterlimit="1.41421"><g transform="matrix(1,0,0,1,-110,-110)"><g transform="matrix(0.510204,-6.12068e-17,-1.19965e-16,0.510204,-31.3265,58.4694)"><g transform="matrix(1.69615,2.0348e-16,3.9882e-16,1.69615,-3475.27,-53.445)"><path d="M2258,107L2258,101C2258,100.888 2258,100.86 2258.02,100.749C2258.03,100.625 2258.06,100.501 2258.1,100.382C2258.28,99.82 2258.71,99.358 2259.26,99.14C2259.42,99.079 2259.58,99.037 2259.75,99.016C2259.86,99.002 2259.89,99.004 2260,99C2266.68,99 2273.37,98.795 2280.05,99.002C2280.07,99.002 2280.1,99.003 2280.12,99.004L2280.13,99.004L2280.16,99.007C2280.24,99.015 2280.28,99.017 2280.38,99.035C2280.49,99.056 2280.59,99.087 2280.7,99.126C2280.71,99.131 2280.72,99.136 2280.74,99.141C2280.76,99.15 2280.78,99.159 2280.8,99.168C2280.86,99.192 2280.91,99.219 2280.96,99.247C2281.18,99.369 2281.38,99.531 2281.54,99.725C2281.68,99.887 2281.78,100.069 2281.86,100.264L2281.87,100.28C2281.87,100.286 2281.87,100.293 2281.87,100.299C2281.88,100.313 2281.88,100.328 2281.89,100.342C2281.94,100.495 2281.97,100.654 2281.99,100.814C2281.99,100.849 2282,100.885 2282,100.92C2282.04,102.947 2282.02,104.973 2282.01,107L2320,107C2320.09,107.006 2320.17,107.011 2320.26,107.017C2320.35,107.034 2320.43,107.046 2320.52,107.068C2320.69,107.113 2320.85,107.181 2321,107.268C2321.46,107.531 2321.8,107.974 2321.93,108.482C2321.99,108.708 2321.99,108.769 2322,109L2322,179C2321.99,179.087 2321.99,179.175 2321.98,179.261C2321.96,179.434 2321.91,179.604 2321.85,179.765C2321.61,180.335 2321.11,180.772 2320.52,180.932C2320.29,180.992 2320.23,180.985 2320,181L2292.47,181L2301.69,195.695C2301.75,195.797 2301.77,195.821 2301.82,195.929C2301.91,196.131 2301.97,196.349 2301.99,196.57C2302.01,196.747 2302,196.926 2301.97,197.101C2301.86,197.719 2301.46,198.263 2300.9,198.545C2300.7,198.645 2300.49,198.711 2300.27,198.741C2300.15,198.756 2300.12,198.754 2300,198.758L2288.34,198.758C2288.21,198.754 2288.09,198.747 2287.96,198.723C2287.59,198.651 2287.24,198.472 2286.97,198.211C2286.84,198.094 2286.74,197.963 2286.65,197.822L2276.08,181L2263.92,181L2253.35,197.822C2253.28,197.928 2253.21,198.028 2253.12,198.122C2252.87,198.399 2252.53,198.6 2252.16,198.695C2251.99,198.737 2251.83,198.753 2251.66,198.758L2240,198.758C2239.88,198.754 2239.85,198.756 2239.73,198.741C2239.51,198.711 2239.3,198.645 2239.1,198.545C2238.54,198.263 2238.14,197.719 2238.03,197.101C2238,196.926 2237.99,196.747 2238.01,196.57C2238.03,196.349 2238.09,196.131 2238.18,195.929C2238.23,195.821 2238.25,195.797 2238.31,195.695L2247.53,181L2220,181C2219.91,180.994 2219.83,180.994 2219.74,180.983C2219.57,180.96 2219.4,180.915 2219.24,180.848C2218.66,180.612 2218.23,180.113 2218.07,179.518C2218.01,179.292 2218.01,179.231 2218,179L2218,109C2218.01,108.913 2218.01,108.825 2218.02,108.739C2218.04,108.566 2218.09,108.396 2218.15,108.235C2218.39,107.665 2218.89,107.228 2219.48,107.068C2219.71,107.008 2219.77,107.015 2220,107L2258,107ZM2287.74,181L2280.81,181L2289.45,194.758L2296.38,194.758L2287.74,181ZM2259.19,181L2252.26,181L2243.62,194.758L2250.55,194.758L2259.19,181ZM2222,111L2222,177L2318,177L2318,111C2286,111 2254,111 2222,111ZM2312,173L2228,173C2227.92,172.995 2227.84,172.995 2227.76,172.985C2227.6,172.966 2227.44,172.927 2227.29,172.87C2226.76,172.669 2226.33,172.24 2226.13,171.709C2226.07,171.558 2226.03,171.401 2226.01,171.241C2226.01,171.161 2226.01,171.08 2226,171L2226,117C2226.01,116.92 2226.01,116.839 2226.01,116.759C2226.03,116.599 2226.07,116.442 2226.13,116.291C2226.33,115.76 2226.76,115.331 2227.29,115.13C2227.44,115.073 2227.6,115.034 2227.76,115.015C2227.84,115.005 2227.92,115.005 2228,115L2312,115C2312.08,115.005 2312.16,115.01 2312.24,115.015C2312.45,115.053 2312.51,115.054 2312.71,115.13C2313.24,115.331 2313.67,115.76 2313.87,116.291C2313.93,116.442 2313.97,116.599 2313.99,116.759C2313.99,116.839 2313.99,116.92 2314,117L2314,132.487C2314,132.497 2314,132.506 2314,132.516L2314,171C2313.99,171.08 2313.99,171.161 2313.99,171.241C2313.97,171.401 2313.93,171.558 2313.87,171.709C2313.67,172.24 2313.24,172.669 2312.71,172.87C2312.56,172.927 2312.4,172.966 2312.24,172.985C2312.16,172.995 2312.08,172.995 2312,173ZM2310,167.444L2307.47,167.444C2307.39,167.495 2307.31,167.543 2307.22,167.586C2306.9,167.752 2306.55,167.86 2306.18,167.904C2305.78,167.953 2305.36,167.922 2304.97,167.813C2304.71,167.741 2304.46,167.635 2304.23,167.5L2230,167.5L2230,169L2310,169L2310,167.444ZM2284.85,164.491L2230,164.491L2230,166.5L2303.01,166.5L2300.75,164.491L2297.16,164.491C2296.22,165.172 2295.16,165.695 2294.05,166.033C2293.1,166.32 2292.12,166.473 2291.13,166.485C2289.8,166.502 2288.47,166.262 2287.22,165.783C2286.38,165.457 2285.58,165.022 2284.85,164.491ZM2308.46,166.444L2310,166.444L2310,164.444L2308.91,164.444C2308.92,164.57 2308.93,164.698 2308.93,164.826C2308.92,165.187 2308.86,165.548 2308.73,165.888C2308.66,166.082 2308.57,166.268 2308.46,166.444ZM2291.62,147.164C2291.6,147.212 2291.58,147.259 2291.56,147.306C2291.3,147.87 2290.96,148.399 2290.55,148.868C2290.13,149.35 2289.64,149.766 2289.1,150.106C2288.77,150.312 2288.43,150.488 2288.07,150.64C2293.67,155.744 2299.26,160.866 2305.1,165.68C2305.22,165.769 2305.34,165.837 2305.48,165.878C2305.6,165.914 2305.72,165.93 2305.84,165.926C2306.05,165.92 2306.25,165.855 2306.43,165.738C2306.49,165.693 2306.55,165.641 2306.61,165.585C2306.61,165.583 2306.6,165.594 2306.6,165.592C2306.68,165.512 2306.74,165.432 2306.79,165.337C2306.93,165.076 2306.96,164.762 2306.88,164.477C2306.83,164.32 2306.75,164.18 2306.64,164.057L2291.62,147.164ZM2298.84,162.788C2298.78,162.932 2298.7,163.07 2298.6,163.196C2298.49,163.344 2298.45,163.384 2298.33,163.491L2298.34,163.491L2298.35,163.481L2298.34,163.491L2299.63,163.491L2298.84,162.788ZM2281.63,161.458L2230,161.458L2230,163.491L2283.66,163.491C2282.98,162.816 2282.3,162.138 2281.63,161.458ZM2308.61,163.444L2310,163.444L2310,161.444L2307.02,161.444C2307.41,161.892 2307.8,162.341 2308.19,162.79C2308.36,162.992 2308.5,163.21 2308.61,163.444ZM2310,133.265C2309.68,132.91 2309.37,132.555 2309.03,132.214C2308.83,132.006 2308.59,131.832 2308.32,131.701C2308.03,131.556 2307.71,131.467 2307.38,131.439C2306.87,131.394 2306.34,131.505 2305.89,131.755C2305.67,131.874 2305.47,132.022 2305.3,132.196C2305.15,132.34 2305.03,132.502 2304.89,132.656C2304.77,132.79 2304.77,132.79 2304.65,132.922C2304.32,133.268 2303.98,133.598 2303.62,133.907C2302.86,134.556 2302.02,135.113 2301.13,135.563C2299.81,136.224 2298.38,136.651 2296.92,136.817C2295.32,137 2293.69,136.871 2292.14,136.44C2291.01,136.125 2289.93,135.65 2288.93,135.033C2288.02,134.476 2287.19,133.804 2286.46,133.038C2286.13,132.692 2285.82,132.327 2285.53,131.949C2284.88,131.075 2284.24,130.189 2283.59,129.315C2283.34,128.992 2283.08,128.681 2282.79,128.389C2282.23,127.812 2281.6,127.303 2280.92,126.876C2280.01,126.309 2279.01,125.888 2277.97,125.636C2276.83,125.359 2275.64,125.286 2274.48,125.419C2273.37,125.547 2272.28,125.86 2271.28,126.344C2270.59,126.673 2269.95,127.082 2269.35,127.558C2269.07,127.787 2268.8,128.032 2268.54,128.288L2251.33,145.5C2253.05,147.231 2254.75,148.982 2256.51,150.675C2256.9,151.045 2257.35,151.354 2257.83,151.585C2258.64,151.968 2259.55,152.13 2260.44,152.052C2261,152.004 2261.54,151.863 2262.05,151.637C2262.47,151.452 2262.86,151.212 2263.21,150.923C2263.43,150.742 2263.63,150.537 2263.84,150.342C2263.92,150.264 2264.01,150.187 2264.1,150.111C2264.3,149.938 2264.51,149.772 2264.73,149.616C2265.3,149.204 2265.93,148.859 2266.59,148.593C2267.84,148.086 2269.2,147.864 2270.54,147.945C2271.67,148.012 2272.79,148.292 2273.82,148.769C2274.47,149.07 2275.08,149.448 2275.64,149.892C2275.88,150.084 2276.11,150.289 2276.33,150.503C2279.75,153.884 2283.07,157.366 2286.53,160.699C2287.05,161.191 2287.65,161.598 2288.3,161.898C2289.17,162.296 2290.13,162.497 2291.08,162.485C2291.98,162.474 2292.88,162.273 2293.7,161.898C2294.35,161.598 2294.95,161.191 2295.47,160.699L2295.53,160.644L2295.65,160.521L2295.72,160.467C2295.78,160.42 2295.84,160.371 2295.9,160.328C2295.93,160.307 2295.97,160.286 2296,160.267L2279.77,145.839L2279.7,145.766C2279.68,145.752 2279.67,145.739 2279.66,145.725C2279.04,145.719 2278.42,145.632 2277.82,145.462C2276.9,145.204 2276.04,144.758 2275.31,144.157C2275.04,143.936 2274.78,143.698 2274.55,143.434C2274.14,142.956 2273.81,142.408 2273.52,141.848C2273.17,141.172 2272.88,140.466 2272.62,139.753C2272.06,138.233 2271.62,136.667 2271.24,135.095C2271.02,134.222 2270.83,133.344 2270.65,132.464C2270.51,131.782 2270.37,131.097 2270.26,130.41L2270.25,130.338C2270.24,130.239 2270.24,130.143 2270.26,130.045C2270.33,129.73 2270.54,129.459 2270.84,129.329C2270.95,129.278 2271.07,129.255 2271.19,129.244C2271.27,129.243 2271.26,129.243 2271.34,129.247C2271.43,129.26 2271.43,129.261 2271.53,129.277C2271.82,129.328 2272.1,129.38 2272.39,129.434C2273.99,129.743 2275.59,130.094 2277.18,130.513C2278.38,130.832 2279.58,131.188 2280.75,131.619C2281.54,131.911 2282.33,132.237 2283.07,132.638C2283.62,132.934 2284.15,133.272 2284.6,133.701C2284.78,133.87 2284.94,134.052 2285.1,134.24C2285.49,134.708 2285.82,135.227 2286.08,135.78C2286.43,136.548 2286.65,137.381 2286.71,138.226C2286.72,138.371 2286.72,138.516 2286.73,138.661C2286.77,138.696 2286.79,138.719 2286.84,138.771C2291.57,144.088 2296.34,149.367 2301.06,154.684C2301.93,153.817 2302.79,152.947 2303.66,152.09C2303.9,151.864 2304.15,151.654 2304.41,151.466C2305.04,151.023 2305.75,150.697 2306.5,150.51C2306.93,150.4 2307.38,150.341 2307.83,150.323C2307.93,150.321 2308.02,150.32 2308.12,150.32C2308.76,150.334 2309.39,150.436 2310,150.637L2310,133.265ZM2278.63,158.425L2230,158.425L2230,160.458L2280.64,160.458C2279.97,159.78 2279.3,159.102 2278.63,158.425ZM2306.14,160.444L2310,160.444L2310,158.444L2304.39,158.444C2304.98,159.109 2305.56,159.776 2306.14,160.444ZM2309.99,155.444L2305.96,155.444L2303.96,157.444L2310,157.444L2310,155.453C2310,155.45 2310,155.447 2309.99,155.444ZM2275.66,155.444L2263.32,155.444C2262.26,155.857 2261.13,156.072 2260,156.072C2258.87,156.072 2257.74,155.857 2256.68,155.444L2230,155.444L2230,157.425L2277.64,157.425C2276.99,156.762 2276.33,156.101 2275.66,155.444ZM2252.66,152.5L2230,152.5L2230,154.444L2254.82,154.444C2254.68,154.352 2254.55,154.256 2254.43,154.157C2254.19,153.974 2253.97,153.777 2253.75,153.572L2253.67,153.494C2253.33,153.164 2253,152.832 2252.66,152.5ZM2272.34,152.5L2267.66,152.5C2267.34,152.668 2267.03,152.872 2266.75,153.105C2266.55,153.276 2266.36,153.467 2266.17,153.649C2266.09,153.725 2266,153.8 2265.92,153.874C2265.69,154.067 2265.46,154.251 2265.22,154.422C2265.2,154.429 2265.2,154.436 2265.18,154.444L2274.65,154.444C2274.26,154.068 2273.88,153.694 2273.49,153.322C2273.15,152.998 2272.76,152.719 2272.34,152.5ZM2308.77,154.444C2308.47,154.344 2308.16,154.302 2307.85,154.327C2307.66,154.342 2307.47,154.381 2307.29,154.444L2308.77,154.444ZM2249.67,149.5L2230.77,149.5L2230,150.305L2230,151.5L2251.66,151.5C2251,150.834 2250.34,150.167 2249.67,149.5ZM2286.29,141.164C2286.1,141.689 2285.84,142.19 2285.53,142.653C2285.13,143.242 2284.64,143.77 2284.08,144.213C2283.53,144.644 2282.93,144.994 2282.28,145.246C2282.24,145.262 2282.2,145.277 2282.16,145.292C2283.58,146.562 2284.99,147.841 2286.41,149.123C2286.41,149.12 2286.42,149.116 2286.43,149.113C2286.49,149.09 2286.55,149.073 2286.61,149.054C2286.7,149.023 2286.8,148.991 2286.89,148.957C2287.29,148.811 2287.68,148.636 2288.03,148.412C2288.3,148.243 2288.56,148.048 2288.78,147.828C2289.11,147.512 2289.39,147.146 2289.61,146.746C2289.74,146.489 2289.86,146.22 2289.95,145.944C2289.98,145.865 2290.01,145.786 2290.03,145.706C2290.05,145.623 2290.07,145.539 2290.1,145.457L2290.1,145.453L2286.29,141.164ZM2246.62,146.5L2233.73,146.5C2233.72,146.511 2233.7,146.522 2233.69,146.533C2233.43,146.751 2233.19,146.984 2232.96,147.225L2231.73,148.5L2248.68,148.5C2248.17,147.994 2247.66,147.489 2247.16,146.986C2247.07,146.899 2246.97,146.813 2246.88,146.728C2246.8,146.651 2246.71,146.575 2246.62,146.5ZM2285.06,144.946C2285.18,144.954 2285.28,145 2285.37,145.08C2285.87,145.559 2286.39,146.017 2286.83,146.543C2286.88,146.605 2286.92,146.675 2286.93,146.752C2286.98,146.981 2286.86,147.221 2286.65,147.317C2286.59,147.342 2286.53,147.356 2286.47,147.359C2286.41,147.362 2286.35,147.354 2286.29,147.335C2286.22,147.312 2286.16,147.274 2286.1,147.225C2285.61,146.746 2285.09,146.288 2284.64,145.762C2284.6,145.705 2284.57,145.64 2284.55,145.569C2284.49,145.348 2284.6,145.11 2284.8,145.003C2284.86,144.969 2284.93,144.951 2285.01,144.946C2285.02,144.946 2285.04,144.946 2285.06,144.946ZM2286.47,143.532C2286.59,143.54 2286.7,143.586 2286.79,143.666C2287.28,144.145 2287.8,144.603 2288.25,145.129C2288.29,145.186 2288.33,145.251 2288.34,145.321C2288.36,145.381 2288.36,145.443 2288.36,145.504C2288.35,145.565 2288.33,145.624 2288.3,145.678C2288.19,145.886 2287.95,145.991 2287.72,145.925C2287.64,145.903 2287.58,145.863 2287.52,145.811C2287.02,145.332 2286.5,144.873 2286.06,144.348C2286.01,144.29 2285.98,144.226 2285.96,144.155C2285.9,143.934 2286.01,143.695 2286.21,143.589C2286.28,143.555 2286.35,143.537 2286.42,143.532C2286.44,143.531 2286.45,143.531 2286.47,143.532ZM2245.2,145.5C2244.87,145.309 2244.53,145.136 2244.18,144.984C2242.81,144.385 2241.31,144.099 2239.82,144.152C2238.41,144.202 2237.02,144.552 2235.76,145.174C2235.55,145.275 2235.35,145.384 2235.15,145.5L2245.2,145.5ZM2310,128.069L2310,119C2283.33,119 2256.67,119 2230,119L2230,144.528C2230.07,144.46 2230.13,144.391 2230.2,144.323C2230.45,144.075 2230.7,143.833 2230.96,143.602C2231.49,143.144 2232.05,142.725 2232.63,142.35C2234.14,141.385 2235.84,140.715 2237.6,140.385C2238.34,140.245 2239.1,140.171 2239.86,140.149C2240.03,140.146 2240.21,140.145 2240.38,140.147C2241.14,140.163 2241.9,140.231 2242.64,140.365C2244.35,140.67 2245.99,141.295 2247.47,142.198C2247.78,142.386 2248.08,142.586 2248.37,142.798L2265.72,125.45C2266.22,124.962 2266.74,124.506 2267.3,124.094C2268.76,123.017 2270.42,122.229 2272.18,121.783C2272.84,121.614 2273.52,121.495 2274.21,121.425C2274.52,121.394 2274.83,121.375 2275.15,121.362C2275.34,121.357 2275.53,121.355 2275.72,121.355C2276.03,121.359 2276.35,121.37 2276.67,121.394C2277.3,121.441 2277.93,121.532 2278.55,121.664C2280.69,122.122 2282.71,123.087 2284.41,124.462C2285,124.936 2285.55,125.456 2286.05,126.018C2286.3,126.301 2286.54,126.596 2286.77,126.897C2287.43,127.771 2288.06,128.657 2288.72,129.53C2288.89,129.756 2289.07,129.975 2289.26,130.183C2289.73,130.682 2290.25,131.126 2290.83,131.5C2291.56,131.982 2292.37,132.35 2293.22,132.586C2294.19,132.858 2295.22,132.953 2296.23,132.867C2297.18,132.785 2298.13,132.54 2299,132.144C2299.84,131.765 2300.62,131.249 2301.3,130.622C2301.47,130.456 2301.65,130.283 2301.81,130.102C2301.95,129.945 2302.09,129.779 2302.23,129.62C2302.29,129.554 2302.35,129.489 2302.41,129.424C2302.95,128.878 2303.58,128.424 2304.27,128.089C2305.34,127.573 2306.54,127.352 2307.72,127.453C2308.51,127.521 2309.29,127.731 2310,128.069ZM2272.53,131.677C2272.78,132.925 2273.06,134.168 2273.38,135.401C2273.63,136.379 2273.91,137.351 2274.23,138.308C2274.49,139.064 2274.77,139.814 2275.11,140.537C2275.24,140.823 2275.38,141.105 2275.54,141.378C2275.67,141.599 2275.81,141.815 2275.97,142.015C2276.14,142.219 2276.32,142.4 2276.52,142.566C2276.8,142.793 2277.09,142.991 2277.4,143.156C2277.96,143.447 2278.57,143.631 2279.19,143.698C2279.79,143.762 2280.39,143.719 2280.98,143.569C2281.47,143.443 2281.94,143.241 2282.37,142.972C2282.8,142.702 2283.19,142.367 2283.53,141.981C2283.84,141.619 2284.09,141.213 2284.29,140.778C2284.79,139.656 2284.86,138.358 2284.49,137.187C2284.26,136.499 2283.89,135.862 2283.4,135.332C2283.31,135.238 2283.22,135.147 2283.12,135.064C2282.94,134.906 2282.74,134.768 2282.54,134.641C2282.31,134.5 2282.08,134.371 2281.84,134.251C2281.03,133.843 2280.17,133.521 2279.31,133.231C2278.44,132.938 2277.55,132.682 2276.67,132.447C2275.35,132.098 2274.01,131.799 2272.68,131.528L2272.49,131.491C2272.5,131.553 2272.52,131.615 2272.53,131.677ZM2262,103L2262,107L2277.98,107C2277.97,105.667 2277.99,104.333 2277.99,103L2262,103Z" style="" fill="black"></path></g></g></g></svg>