<svg xmlns="http://www.w3.org/2000/svg" xmlns:xlink="http://www.w3.org/1999/xlink" version="1.1" x="0px" y="0px" viewBox="0 0 100 100" style="enable-background:new 0 0 100 100;" xml:space="preserve"><path d="M34.6,44.9c0-1.6,0.1-3.3,0.1-4.9c0-1.5,0.1-3,0.2-4.5c0.1-1.7,0.2-3.3,0.3-5c0.1-1.1,0.2-2.3,0.3-3.4  c0.3-2.6,0.6-5.3,1.1-7.9c0.4-2,0.9-3.9,1.7-5.8c0.4-1,0.9-1.9,1.4-2.8c1.5-2.3,3.6-3.8,6.3-4.4C47,6.1,48,6,49,5.9  c1-0.1,2.1-0.1,3.1,0c1.4,0,2.7,0.2,4,0.5c2.4,0.6,4.3,1.9,5.7,3.9c0.9,1.2,1.6,2.6,2.1,4c0.7,1.7,1.1,3.4,1.5,5.1  c0.4,1.7,0.7,3.4,0.9,5.2c0.2,1.4,0.3,2.8,0.5,4.2c0.2,1.8,0.3,3.6,0.4,5.4c0.2,2.9,0.3,5.8,0.3,8.7c0.1,2.9,0.1,5.7,0.1,8.6  c0,1.7,0,3.4-0.1,5.1c-0.1,1.6-0.2,3.1-0.3,4.7c-0.2,2.4-0.5,4.9-0.9,7.3c-0.7,3.9-1.6,7.7-3,11.5c-1,2.7-2.2,5.3-3.6,7.8  c-0.9,1.5-1.9,2.9-3,4.2c-0.8,0.9-1.6,1.7-2.5,2.4c-0.5,0.4-1.1,0.8-1.7,1c-0.3,0.1-0.6,0.2-0.8,0.3c-0.5,0.1-1.1,0-1.6-0.1  c-0.5-0.2-1-0.4-1.5-0.7c-0.9-0.6-1.7-1.3-2.4-2.1c-1.3-1.4-2.3-2.9-3.3-4.4c-1.3-2.2-2.4-4.6-3.4-7c-1.1-2.9-2-5.9-2.7-9  c-0.5-2.1-0.9-4.2-1.2-6.3c-0.2-1.6-0.4-3.3-0.6-4.9c-0.2-2.1-0.3-4.1-0.4-6.2c-0.1-2-0.1-4.1-0.1-6.1  C34.6,47.6,34.6,46.2,34.6,44.9C34.6,44.9,34.6,44.9,34.6,44.9z M48.6,54.1c0,3.3,0,6.6,0,9.9c0,0,0,0,0,0.1c-0.1,0-0.2,0-0.3,0  c-0.5-0.1-0.9,0-1.4,0c-2.3,0.5-3.7,2.9-3,5.2c0.6,1.9,2.7,3.2,4.8,2.7c0.2-0.1,0.5-0.1,0.8-0.1c1.2,0,2.4,0,3.5,0  c0.3,0,0.5,0,0.8,0.1c0.6,0.1,1.1,0.2,1.7,0c2.3-0.5,3.7-2.8,3.1-5.1c-0.6-2-2.6-3.1-4.4-2.9c-0.1,0-0.3,0.1-0.4,0c0,0,0-0.1,0-0.1  c0-3.2,0-6.4,0-9.7c0.1-0.2,0.2-0.4,0.2-0.7c0-0.3-0.1-0.5-0.2-0.7c0-1.4,0-1.9,0.1-2.2c0.1,0,0.2,0,0.3,0c0.9,0.1,1.7,0,2.6-0.1  c1.4-0.2,2.8-0.7,4-1.5c1.6-1.1,2.8-2.5,3.9-4.1c0-0.1,0-0.1,0.1-0.2c-0.1,0-0.2,0-0.2-0.1c-0.1,0-0.1,0-0.2,0  c-1.4-0.3-2.8-0.3-4.2-0.2c-1.1,0.1-2.2,0.4-3.2,0.9c-1.1,0.6-2.1,1.3-3,2.2c-0.1,0.1-0.1,0.1-0.2,0.2c-0.3-0.3-0.5-0.6-0.7-0.9  c0.1-0.1,0.1-0.1,0.1-0.2c0.5-0.5,1.1-1,1.7-1.4c1.7-1.2,3.6-1.8,5.6-2c0.8-0.1,1.5-0.1,2.3,0c1.1,0.1,2.2,0.3,3.3,0.6  c0.1,0,0.2,0.1,0.4,0.1c0.1-0.2,0.2-0.4,0.3-0.6c0-0.8,0-1.6-0.1-2.3c-0.1,0-0.1-0.1-0.1-0.1c-0.1,0-0.2-0.1-0.3-0.1  c-1.8-0.4-3.6-0.6-5.5-0.4c-1.9,0.2-3.6,0.9-5.2,2.1c-1.3,1-2.4,2.2-3.3,3.5c-0.1,0.1-0.2,0.2-0.2,0.3c-0.5,0-0.9,0-1.3,0  c-0.1-0.1-0.2-0.2-0.2-0.3c-0.8-1.2-1.8-2.3-3-3.3c-1.7-1.4-3.7-2.2-5.9-2.4c-1.4-0.1-2.9,0-4.3,0.3c-0.4,0.1-0.8,0.2-1.2,0.3  c-0.1,0.8-0.1,1.7-0.1,2.5c0.2,0.2,0.2,0.3,0.4,0.4c0.2-0.1,0.5-0.1,0.7-0.2c1.7-0.4,3.4-0.6,5.1-0.5c1.1,0.1,2.1,0.3,3.1,0.6  c1.7,0.6,3.1,1.6,4.4,2.9c0,0,0,0.1,0,0.1c-0.2,0.3-0.5,0.6-0.7,0.9c-0.1-0.1-0.1-0.1-0.2-0.2c-0.2-0.2-0.4-0.4-0.7-0.6  c-1.7-1.6-3.8-2.4-6.1-2.5c-1.1-0.1-2.2,0-3.2,0.2c-0.3,0-0.5,0.1-0.8,0.2c0,0.1,0.1,0.2,0.1,0.2c0.9,1.5,2.1,2.8,3.5,3.8  c1.1,0.8,2.3,1.3,3.6,1.6c1.1,0.2,2.2,0.3,3.3,0.2c0.1,0,0.3,0,0.4,0c0,0.8,0,1.5,0,2.3C48.4,53.4,48.4,53.8,48.6,54.1z M38.6,15.9  c-0.1,0.2-0.1,0.2-0.1,0.3c-0.1,0.4-0.2,0.8-0.3,1.2c-0.1,0.3-0.1,0.7-0.1,1c0,6,0,12.1,0,18.1c0,0.1,0,0.2,0,0.4c0,0.1,0,0.2,0,0.2  c-0.2,0-0.3,0.1-0.5,0c0-0.4,0-0.9,0-1.3c0-0.4,0-0.9,0-1.3c0-0.4,0-0.9,0-1.3s0-0.9,0-1.3c0-0.4,0-0.9,0-1.3c0-0.4,0-0.9,0-1.3  c0-0.4,0-0.9,0-1.3c0-0.4,0-0.9,0-1.3c0-0.4,0-0.9,0-1.3c0-0.4,0-0.9,0-1.3s0-0.9,0-1.3c0-0.4,0-0.9,0-1.3c-0.1,0.2-0.1,0.4-0.1,0.6  c-0.1,0.9-0.3,1.8-0.4,2.7c-0.1,0.5-0.1,0.9-0.1,1.4c0,3.7,0,7.3,0,11c0,0.2,0,0.3,0,0.5c-0.2,0.1-0.3,0.1-0.5,0.1  c-0.1-0.1,0-0.3,0-0.4c0-1,0-2.1,0-3.1c0-0.2,0-0.4,0-0.7c-0.2,2.7-0.3,6.2-0.2,6.6c0.1,0,0.2,0,0.3,0c1.8-0.4,3.6-0.6,5.4-0.4  c1.1,0.1,2.1,0.3,3.1,0.7c1.5,0.6,2.9,1.5,4,2.6c0.8,0.7,1.5,1.5,2.1,2.4c0.1,0.1,0.2,0.2,0.3,0.3c0.1-0.1,0.2-0.2,0.2-0.3  c0.6-0.9,1.3-1.7,2.1-2.4c1.3-1.2,2.7-2.1,4.3-2.7c0.9-0.3,1.9-0.5,2.9-0.6c0.9-0.1,1.8-0.1,2.7,0c0.9,0.1,1.9,0.2,2.8,0.4  c0.1,0,0.2,0,0.2,0c0.1-0.5-0.1-4.4-0.2-5.2c0,0.2,0,0.4,0,0.6c0,0.6,0,1.3,0,1.9c0,0.1,0,0.2,0,0.3c-0.2,0-0.4,0-0.5-0.1  c0-0.2,0-0.3,0-0.5c0-3.2,0-6.4,0-9.7c0-0.2,0-0.3,0-0.5c-0.1-1-0.3-2-0.4-3.1c0-0.3-0.1-0.6-0.2-0.9c-0.1,0.2-0.1,0.3-0.1,0.5  c0,4.5,0,9,0,13.4c0,0.1,0,0.2,0,0.4c0,0.1,0,0.1,0,0.2c-0.2,0-0.4,0-0.5-0.1c0-0.1,0-0.3,0-0.4c0-1.9,0-3.7,0-5.6  c0-3.8,0-7.6,0-11.4c0-0.2,0-0.5-0.1-0.7c-0.1-0.5-0.3-1.1-0.4-1.6c0-0.1,0-0.2-0.1-0.3c0,0.2,0,0.3,0,0.5c0,6.3,0,12.5,0,18.8  c0,0.1,0,0.3,0,0.4c0,0.1,0,0.1,0,0.3c-0.2,0-0.4,0-0.5-0.1c0-0.2,0-0.4,0-0.5c0-6.8,0-13.6,0-20.3c0-1.1,0-1.1-0.4-2.1  c0,0,0-0.1-0.1-0.1c0,0,0,0-0.1,0c-0.1,0.2,0,0.3,0,0.5c0,7.3,0,14.7,0,22c0,0.1,0,0.3,0,0.4c0,0.1,0,0.1-0.1,0.2  c-0.2,0-0.3,0-0.5,0c0-1,0-2.1,0-3.1c0-1,0-2,0-3c0-1,0-2.1,0-3.1c0-1,0-2,0-3c0-1,0-2.1,0-3.1c0-1,0-2.1,0-3.1c0-1,0-2,0-3  c0-1,0-2.1,0-3.1c-0.2-0.3-0.3-0.5-0.5-0.8c0-0.1-0.1-0.1-0.2-0.1c0,0,0,0,0,0c0,8.4,0,16.8,0,25.2c0,0,0,0.1,0,0.1c0,0,0,0,0,0  c0,0,0,0.1,0,0.1c0,0,0,0,0,0c0,0,0,0,0,0c-0.2,0-0.3,0.1-0.5,0c0-0.2,0-0.3,0-0.5c0-2,0-4,0-5.9c0-0.1,0-0.1,0-0.2  c0-0.1,0-0.1-0.1-0.2c-0.2,0.4-0.4,0.7-0.6,1.1c0,0.4,0,0.7,0,1.1c0,0.4,0,0.7,0,1.1c0,0.4,0,0.8,0,1.2c0,0.4,0,0.7,0,1.1  c0,0.4,0,0.8,0,1.2c-0.2,0-0.3,0.1-0.5,0.1c0-0.2,0-0.3,0-0.4c0-0.9,0-1.7,0-2.6c0-0.6,0-1.1,0-1.7c0-0.1,0-0.1-0.1-0.2  c-0.2,0.2-0.4,0.4-0.5,0.6c0,0.5,0,1,0,1.5c0,0.5,0,1,0,1.5c0,0.5,0,1,0,1.5c-0.2,0.1-0.3,0.1-0.5,0.1c-0.1-0.1,0-0.3,0-0.4  c0-1.1,0-2.1,0-3.2c0-0.1,0-0.2-0.1-0.4c-0.1,0.1-0.2,0.1-0.3,0.2c-0.1,0.1-0.2,0.1-0.3,0.2c0,0.2,0,0.3,0,0.5c0,1,0,2,0,3  c0,0.1,0,0.3-0.1,0.4c-0.2,0-0.3,0.2-0.5,0.2c0-0.2,0-0.5,0-0.7c0-0.2,0-0.5,0-0.7s0-0.5,0-0.7s0-0.5,0-0.7c0-0.2,0-0.5,0-0.7  c-0.2,0.1-0.4,0.2-0.6,0.3c0,0.6,0,1.2,0,1.8c0,0.6,0,1.2,0,1.8c-0.2,0.1-0.3,0.2-0.6,0.3c0-0.4,0-0.8,0-1.2c0-0.4,0-0.8,0-1.2  c0-0.4,0-0.8,0-1.2c-0.2,0-0.4,0.1-0.6,0.2c0,1.3,0,2.6,0,3.9c-0.2,0.1-0.3,0.3-0.5,0.4c0-0.1,0-0.2,0-0.3c0-0.5,0-1.1,0-1.6  c0,0,0-0.1-0.1-0.1c-0.1,0.1-0.1,0.2-0.2,0.3c-0.1,0.1-0.2,0.2-0.3,0.3c0,0.7,0,1.4,0,2c-0.2,0.2-0.3,0.4-0.6,0.5c0-0.4,0-0.8,0-1.2  c0-0.4,0-0.8,0-1.2c-0.2-0.1-0.4-0.1-0.6-0.2c0,0.2,0,0.3,0,0.4c0,0.8,0,1.7,0,2.5c0,0.1,0,0.3,0,0.4c-0.1,0.2-0.3,0.3-0.4,0.4  c0,0-0.1,0.1-0.2,0.1c0-0.1,0-0.3,0-0.5c0-8.7,0-17.3,0-26c0-0.1,0-0.3,0-0.4c0-0.1,0-0.2,0-0.2c-0.2,0-0.4-0.1-0.6,0  c0,0.2,0,0.3,0,0.5c0,9,0,18.1,0,27.1c0,0.2,0,0.3,0,0.5c-0.1,0.1-0.2,0.3-0.3,0.3c-0.1-0.1-0.2-0.2-0.3-0.4c0-9.3,0-18.6,0-27.9  c0,0,0-0.1,0-0.1c0,0,0,0,0,0c0,0,0,0-0.1-0.1c-0.2,0-0.3,0-0.5,0.1c-0.1,0.1,0,0.3,0,0.4c0,1.9,0,3.8,0,5.7c0,2.5,0,4.9,0,7.4  c0.1,1.5,0,3.1,0,4.7c0,1.6,0,3.1,0,4.7c-0.1,1.3,0,2.7,0,4c0,0.1,0.1,0.2-0.1,0.2c-0.2-0.2-0.3-0.4-0.5-0.6c0-0.3,0-0.5,0-0.8  c0-0.3,0-0.5,0-0.8c0-0.3,0-0.6,0-0.8c0-0.3,0-0.5,0-0.8c-0.1,0-0.2,0-0.3,0c-0.1,0-0.2,0-0.3,0c0,0.2,0,0.3,0,0.4  c0,0.6,0,1.2,0,1.8c0,0.1,0,0.2-0.1,0.2c-0.1-0.1-0.2-0.1-0.2-0.2c-0.1-0.1-0.2-0.2-0.3-0.2c0-0.8,0-1.5,0-2.2  C48,37.3,48,37.1,48,36.5c0-0.2,0-0.3,0-0.5c0-0.2,0-0.4,0-0.6c0-0.1,0-0.1-0.1-0.1c0,0,0,0.1,0,0.1c0,0.1,0,0.2,0,0.3  c0,1.1,0,2.2,0,3.2c0,0.1,0,0.3-0.1,0.4c-0.2-0.1-0.4-0.2-0.5-0.4c0-1.3,0-2.7,0-4c-0.2-0.1-0.4-0.2-0.6-0.2c0,0.4,0,0.8,0,1.3  c0,0.4,0,0.8,0,1.2c0,0.4,0,0.8,0,1.3c-0.2-0.1-0.4-0.2-0.5-0.3c0-0.4,0-0.9,0-1.3c0-0.4,0-0.8,0-1.2c0-0.4,0-0.9,0-1.3  c-0.2-0.1-0.3-0.2-0.4-0.3c0,0-0.1,0-0.2,0c0,1.3,0,2.5,0,3.8c-0.2,0-0.4-0.1-0.6-0.2c0-0.7,0-1.3,0-2c0-0.7,0-1.4,0-2  c-0.2-0.1-0.4-0.3-0.5-0.4c0,0,0,0-0.1,0c0,0.3,0,0.7,0,1c0,0.3,0,0.7,0,1c0,0.4,0,0.7,0,1.1c0,0.3,0,0.7,0,1c-0.2,0-0.4,0-0.6-0.2  c0-0.5,0-1,0-1.6c0-0.5,0-1.1,0-1.6c0-0.5,0-1,0-1.5c-0.1-0.1-0.2-0.2-0.3-0.3c-0.1-0.1-0.2-0.2-0.3-0.3c0,0.1,0,0.2,0,0.3  c0,0.3,0,0.6,0,1c0,1.2,0,2.4,0,3.5c0,0.1,0,0.3-0.1,0.5c-0.1-0.1-0.3,0-0.5-0.1c0-2.1,0-4.1,0-6.2c-0.1-0.2-0.2-0.4-0.2-0.6  c-0.1-0.2-0.1-0.4-0.2-0.6c-0.1-0.2,0-0.4-0.2-0.6c0,2.6,0,5.1,0,7.6c0,0,0,0.1,0,0.1c0,0,0,0,0,0c0,0,0,0,0,0.1  c-0.2,0-0.3,0-0.5-0.1c0-0.2,0-0.3,0-0.5c0-8.4,0-16.8,0-25.2c0-0.1,0-0.3,0-0.4c0-0.1,0-0.1-0.1-0.1c-0.2,0.3-0.4,0.5-0.5,0.8  c0,0.2,0,0.4,0,0.6c0,8.1,0,16.2,0,24.2c0,0.1,0,0.3,0,0.4c0,0.1,0,0.1-0.1,0.2c-0.2,0-0.3,0-0.5,0c-0.1-0.2,0-0.4,0-0.5  c0-7.7,0-15.4,0-23.1c0-0.1,0-0.3,0-0.4c0,0,0-0.1-0.1-0.1c-0.2,0.2-0.2,0.5-0.4,0.7c-0.2,0.3-0.2,0.6-0.2,1c0,7.3,0,14.6,0,21.9  c0,0.1,0,0.3,0,0.4c0,0.1,0,0.2,0,0.2c-0.2,0-0.3,0-0.5,0c-0.1-0.2,0-0.4,0-0.6c0-6.6,0-13.3,0-19.9c0-0.1,0-0.3,0-0.4  C38.6,16.1,38.6,16.1,38.6,15.9z M44.3,82.2c2.3,2.3,4.6,4.6,6.9,6.9c0.1-0.1,0.2-0.2,0.3-0.3c2-2,3.9-3.9,5.9-5.9  c0.2-0.2,0.4-0.4,0.6-0.6c0.1-0.1,0.1-0.1,0.1-0.2c-0.1-0.1-0.1-0.1-0.1-0.2c-2.2-2.2-4.4-4.4-6.6-6.6c-0.1-0.1-0.1-0.1-0.2-0.1  C50.7,75.8,44.5,82,44.3,82.2z M42.3,17.1c0-2.5,0-5,0-7.5c0,0,0,0,0-0.1c0,0-0.1,0-0.1,0C42,9.7,41.8,9.9,41.7,10  c0,0.1,0,0.2,0,0.2c0,2.8,0,5.7,0,8.5c0,0,0,0,0,0c0,0,0,0,0,0C41.8,18.2,42,17.6,42.3,17.1z M42.9,8.9c0,2.3,0,4.7,0,7  c0,0,0,0,0,0.1c0,0,0.1,0,0.1,0c0.2-0.2,0.3-0.4,0.5-0.6c0-0.1,0-0.3,0-0.4c0-2,0-3.9,0-5.9c0-0.1,0-0.2,0-0.3c0-0.1,0-0.1,0-0.2  c-0.1,0.1-0.2,0.1-0.2,0.1C43.1,8.8,43,8.8,42.9,8.9z M57,31.5c0-2.2,0-4.3,0-6.5c-0.1-0.1-0.3-0.3-0.4-0.4c0,0-0.1-0.1-0.2,0  c0,0.2,0,0.4,0,0.5c0,0.2,0,0.4,0,0.6c0,0.2,0,0.4,0,0.6c0,0.2,0,0.4,0,0.6c0,0.2,0,0.4,0,0.6c0,0.2,0,0.4,0,0.6c0,0.2,0,0.4,0,0.6  c0,0.2,0,0.4,0,0.6c0,0.2,0,0.4,0,0.6c0,0.2,0,0.4,0,0.6c0,0.2,0,0.4,0,0.6c0,0.2,0,0.4,0,0.6c0,0.2,0,0.4,0,0.6  C56.6,31.9,56.8,31.7,57,31.5z M60.6,10.6c-0.3-0.4-0.4-0.5-0.6-0.6c0,2.2,0,4.4,0,6.5c0.1,0.2,0.2,0.4,0.3,0.5  c0.1,0.2,0.1,0.4,0.3,0.6C60.7,17.4,60.7,11.3,60.6,10.6z M57.6,8.2c0,0.4,0,5.6,0,5.9c0.2,0.1,0.3,0.3,0.6,0.4c0-0.1,0-0.1,0-0.2  c0-0.6,0-5.5,0-5.8C58,8.4,57.8,8.3,57.6,8.2z M45.3,25.2c0,0.5,0,5.8,0,6.1c0.1,0.1,0.3,0.2,0.4,0.4c0,0,0.1,0.1,0.2,0.1  c0-0.2,0-0.3,0-0.5c0-1.7,0-3.4,0-5.1c0-0.4,0-0.9,0-1.3c0-0.1,0-0.1-0.1-0.2C45.7,24.9,45.5,25.1,45.3,25.2z M44.7,14.3  c0-2.1,0-4.1,0-6.1c0,0,0-0.1,0-0.2c-0.2,0-0.4,0.1-0.6,0.2c0,2.1,0,4.2,0,6.4c0,0,0,0.1,0,0.1c0,0,0.1,0,0.1,0  C44.4,14.5,44.6,14.4,44.7,14.3z M59.4,15.7c0.1-0.4,0.1-5.9,0-6.3c-0.1-0.1-0.3-0.2-0.5-0.4c0,0,0,0-0.1,0c0,0.4,0,0.8,0,1.2  c0,0.4,0,0.8,0,1.2c0,0.4,0,0.8,0,1.2c0,0.4,0,0.8,0,1.2c0,0.4,0,0.8,0,1.2C59,15.3,59.2,15.5,59.4,15.7z M45.3,13.9  c0.1,0,0.1,0,0.2-0.1c0.1-0.1,0.3-0.2,0.4-0.2c0.1-0.4,0.1-3.8,0-5.8c0-0.1,0-0.2,0-0.2c-0.2,0-0.4,0.1-0.6,0.1  C45.3,8,45.3,13.3,45.3,13.9z M47.2,13c0-0.3,0-0.5,0-0.7c0-1.5,0-3,0-4.6c0-0.1,0-0.3-0.1-0.4c-0.1,0-0.3,0-0.4,0.1  c0,0-0.1,0-0.1,0.1c0,0.1,0,0.1,0,0.2c0,1.6,0,5.2,0,5.6C46.8,13.2,46.9,13.1,47.2,13z M56.4,7.7C56.4,7.8,56.3,7.8,56.4,7.7  c0,0.1,0,0.2,0,0.2c0,1.8,0,3.6,0,5.4c0,0,0,0,0,0c0,0,0,0,0,0c0.2,0.1,0.3,0.2,0.6,0.3c0-0.1,0-0.1,0-0.2c0-1.8,0-3.5,0-5.3  c0-0.1,0-0.2,0-0.2c-0.2-0.1-0.3-0.1-0.5-0.2C56.4,7.7,56.4,7.7,56.4,7.7z M57,22.1c0-1.9,0-3.8,0-5.6c-0.3-0.3-0.4-0.3-0.6-0.4  c0,0.3-0.1,5.2,0,5.6c0.1,0.1,0.3,0.2,0.4,0.3C56.8,22,56.9,22.1,57,22.1z M46.5,15.9c0,0.4,0,0.9,0,1.3c0,1.3,0,2.7,0,4  c0,0.1,0,0.2,0.1,0.3c0.2-0.1,0.4-0.3,0.5-0.4c0-1.8,0-3.6,0-5.4c0,0,0-0.1,0-0.1C46.9,15.6,46.7,15.7,46.5,15.9z M45.9,16.3  c-0.3,0.2-0.4,0.3-0.6,0.5c0,0.6,0,1.2,0,1.8c0,1.1,0,2.3,0,3.4c0,0.1,0,0.2,0.1,0.3c0.2-0.1,0.3-0.2,0.5-0.3  C46,21.6,46,16.6,45.9,16.3z M55.1,7.4c-0.1,0.3-0.1,5.2,0,5.5c0.4,0.2,0.4,0.2,0.6,0.2c0-0.5,0-5.3,0-5.6  C55.5,7.4,55.3,7.4,55.1,7.4z M55.2,15.4c-0.1,0.3-0.1,5.1,0,5.4c0.3,0.3,0.4,0.3,0.6,0.4c0-0.4,0-5.2,0-5.5  C55.5,15.5,55.4,15.4,55.2,15.4z M50.3,7c-0.1,0.4-0.1,3.4,0,5c0,0.1,0,0.2,0,0.3c0.2,0,0.4,0,0.6-0.1c0-0.1,0-0.1,0-0.2  c0-1.6,0-3.2,0-4.8c0-0.1,0-0.1,0-0.2C50.6,7,50.4,7,50.3,7z M51.4,7.1c0,0.1,0,0.2,0,0.2c0,1.6,0,3.2,0,4.8c0,0.1,0,0.2,0,0.2  c0.2,0,0.4,0,0.6,0c0-0.1,0-0.1,0-0.2c0-1.7,0-3.3,0-5c0,0,0-0.1,0-0.1C51.9,7,51.7,7,51.4,7.1z M47.2,27.7  c-0.1-0.1-0.1-0.2-0.2-0.3c-0.1-0.1-0.1-0.2-0.2-0.3c-0.1-0.1-0.1-0.2-0.2-0.3c0,0.4,0,5.1,0,5.4c0.2,0.1,0.3,0.3,0.6,0.3  C47.2,30.9,47.2,29.3,47.2,27.7z M53.3,26.3c0-0.8,0-3.7,0-4c-0.1-0.1-0.2-0.2-0.3-0.3c-0.1-0.1-0.2-0.2-0.3-0.4c0,0.1,0,0.2,0,0.3  c0,0.4,0,0.8,0,1.2c0,1.2,0,2.4,0,3.6c0,0.1,0,0.2,0.1,0.3C52.9,26.7,53.1,26.5,53.3,26.3z M58.2,21.6c0-0.1,0-0.3,0-0.4  c0-0.9,0-1.8,0-2.8c0-0.3-0.1-0.6-0.3-0.9c-0.1-0.1-0.1-0.2-0.2-0.3c0,0-0.1,0-0.1-0.1c-0.1,0.3-0.1,3.7,0,5c0,0.1,0,0.1,0,0.2  C57.9,22.2,57.9,22.1,58.2,21.6z M55.2,32.6c0.2,0,0.4-0.1,0.6-0.3c0-1.7,0-3.3,0-4.9c0,0,0,0,0,0c0,0,0,0-0.1,0  c-0.2,0.2-0.4,0.4-0.6,0.6C55.1,29.2,55.1,32.3,55.2,32.6z M57.6,30.9c0.2-0.2,0.3-0.3,0.4-0.5c0.2-0.2,0.2-0.5,0.2-0.7  c0-0.9,0-1.8,0-2.7c0-0.1,0-0.3,0-0.4c-0.2-0.2-0.3-0.5-0.5-0.7c0,0-0.1,0-0.1-0.1c0,0.1,0,0.1,0,0.2C57.5,26.7,57.5,30.5,57.6,30.9  z M42.3,25.5c0-1,0-2,0-3c-0.1-0.2-0.2-0.4-0.2-0.6c-0.1-0.2-0.1-0.4-0.2-0.6c-0.1-0.2,0-0.4-0.2-0.6c0,2.2,0,4.3,0,6.4c0,0,0,0,0,0  c0,0,0,0,0,0C41.8,26.6,42,26.1,42.3,25.5z M44.2,54.2c0-0.5-0.4-1-1-1c-0.5,0-1,0.5-1,0.9c0,0.5,0.4,1,1,1  C43.8,55.1,44.2,54.7,44.2,54.2z M37.6,52.5c0.5,0,1-0.4,1-1c0-0.5-0.5-1-1-1c-0.5,0-1,0.5-0.9,1C36.6,52.1,37.1,52.5,37.6,52.5z   M62.1,54.2c0.5,0,1-0.4,1-1c0-0.5-0.4-1-1-1c-0.6,0-1,0.4-1,1C61.2,53.7,61.6,54.2,62.1,54.2z M45.4,54.3c0,0.5,0.4,1,1,1  c0.5,0,1-0.4,1-0.9c0-0.5-0.4-1-1-1C45.8,53.3,45.4,53.7,45.4,54.3z M64.8,52.5c0.5,0,1-0.4,1-1c0-0.5-0.5-1-1-1  c-0.5,0-0.9,0.4-0.9,1C63.9,52.1,64.3,52.5,64.8,52.5z M40.2,54.2c0.5,0,1-0.4,1-1c0-0.5-0.4-1-1-1c-0.5,0-1,0.4-1,0.9  C39.3,53.7,39.7,54.1,40.2,54.2z M57,54.2c0-0.5-0.4-1-1-1c-0.5,0-1,0.4-1,1c0,0.5,0.5,1,1,1C56.6,55.2,57,54.8,57,54.2z M60.1,54.2  c0-0.5-0.4-1-1-1c-0.5,0-1,0.4-1,1c0,0.5,0.4,0.9,1,0.9C59.7,55.1,60.1,54.7,60.1,54.2z M49.6,26.6c0,0,0-0.1,0-0.1  c0-1.4,0-2.9,0-4.3c0,0,0-0.1-0.1-0.2c-0.2,0.2-0.4,0.4-0.6,0.5c0,1.2,0,2.4,0,3.6c0.2,0.2,0.3,0.4,0.5,0.5  C49.5,26.6,49.6,26.6,49.6,26.6z M44.7,17.5c-0.1,0.1-0.1,0.1-0.2,0.2c-0.3,0.5-0.5,1-0.5,1.5c0,0.4,0,0.9,0,1.3  c0,0.3,0.1,0.6,0.2,0.9c0.1,0.2,0.2,0.4,0.3,0.5c0,0.1,0.1,0.1,0.2,0.1C44.7,20.5,44.7,19.1,44.7,17.5z M44.7,30.5  c0.1-0.4,0.1-2.9,0-4.3c0,0,0-0.1,0-0.2c-0.1,0.1-0.1,0.1-0.1,0.1c-0.1,0.2-0.2,0.4-0.3,0.6c-0.1,0.2-0.2,0.5-0.2,0.8  c0,0.5,0,1,0,1.4C44.1,29.5,44.3,30,44.7,30.5z M60,23.1c0,0.6,0,1.3,0,2c0.1,0.1,0.1,0.2,0.2,0.4c0.1,0.1,0.1,0.3,0.2,0.4  c0.1,0.1,0.1,0.3,0.2,0.4c0-0.1,0-0.1,0-0.1c0-1.3,0-2.6,0-4c0,0,0-0.1-0.1-0.1C60.4,22.3,60.2,22.7,60,23.1z M53.9,22.8  c0,0.1,0,0.2,0,0.3c0,0.9,0,1.7,0,2.6c0,0,0,0,0,0c0,0,0,0,0.1,0c0.2-0.1,0.4-0.2,0.5-0.3c0-0.8,0-1.5,0-2.2  C54.3,23,54.2,22.9,53.9,22.8z M47.8,15.2c0,0.2,0,0.3,0,0.5c0,1.2,0,2.4,0,3.6c0,0.2,0,0.3,0,0.5c0,0.1,0,0.1,0.1,0.2  c0.1-0.4,0.1-0.8,0.1-1.1c0-0.4,0-0.7,0-1.1c0-0.5,0.1-1.1,0.5-1.5c0-0.2,0-0.4,0-0.5c0-0.2,0-0.5,0-0.7c0,0,0-0.1-0.1-0.1  C48.2,15.1,48,15.2,47.8,15.2z M47.8,7.2c0,0.3-0.1,4.8,0,5.4c0,0,0,0.1,0,0.2c0.2-0.1,0.4-0.1,0.6-0.2c0-0.4,0-0.7,0-1.1  c-0.4-0.4-0.5-0.5-0.5-1c0-0.1,0-0.2,0-0.2c0-0.6,0-1.2,0-1.8c0-0.4,0-0.8,0.1-1.2C48,7.2,47.9,7.2,47.8,7.2z M48.3,25.6  c0-0.1,0.1-0.1,0.1-0.1c0-0.8,0-1.6,0-2.4c0,0,0-0.1-0.1-0.1c-0.1,0.1-0.2,0.1-0.3,0.2c-0.1,0.1-0.2,0.1-0.3,0.2c0,0.6,0,1.7,0,2  C48,25.4,48.2,25.5,48.3,25.6z M46.5,26.3C46.6,26.3,46.6,26.3,46.5,26.3c0.2-0.2,0.2-0.4,0.3-0.5c0.1-0.1,0.2-0.1,0.3-0.2  c0-0.5,0-1.4,0-1.7c0,0-0.1,0-0.1,0c-0.2,0.1-0.3,0.2-0.5,0.4C46.5,25,46.5,25.6,46.5,26.3z M55.7,25.7c0-0.5,0-1.4,0-1.7  c-0.1-0.1-0.2-0.1-0.3-0.2c-0.1-0.1-0.2-0.2-0.3-0.1c-0.1,0.4-0.1,1.4,0,1.7C55.3,25.5,55.5,25.6,55.7,25.7z M47.8,28.2  c0,0.1,0,0.2,0,0.2c0,1.4,0,2.9,0,4.3c0,0,0,0,0,0.1c0,0,0.1,0,0.1,0c0-0.1,0-0.2,0-0.3c0-1.3,0-2.6,0-3.9c0-0.1,0-0.2,0-0.3  C47.9,28.3,47.9,28.3,47.8,28.2z M52.7,14.8c-0.1,0.3,0,0.5,0,0.8c0,0.3-0.1,0.5,0,0.8c0.2-0.1,0.4-0.1,0.6-0.2c0-0.4,0-0.9,0-1.3  C53,14.7,53,14.7,52.7,14.8z M54.5,17c0.1-0.4,0.1-1.5,0-1.8C54.2,15,54.2,15,53.9,15c0,0.4,0,0.8,0,1.2c0.1,0.1,0.2,0.3,0.4,0.4  C54.3,16.7,54.4,16.9,54.5,17z M49,14.9c0,0.5,0,0.9,0,1.3c0.1,0,0.2,0,0.3,0c0.1,0,0.2,0,0.3,0c0.1-0.4,0-1.2,0-1.5  C49.4,14.7,49.2,14.8,49,14.9z M53.9,12.6c0.2,0.1,0.4,0.1,0.6,0.1c0.1-0.4,0.1-1.2,0-1.4c-0.2,0.1-0.4,0.2-0.6,0.3  C53.9,12,53.9,12.3,53.9,12.6z M35.7,50.2c0.4-0.3,0.6-0.6,0.5-1c0-0.3-0.2-0.5-0.5-0.7C35.7,49.1,35.7,49.6,35.7,50.2z M52.7,11.4  c0,0.3,0,0.6,0,1c0.2,0,0.4,0.1,0.6,0.1c0.1-0.3,0.1-0.6,0-0.8C53.1,11.6,52.9,11.5,52.7,11.4z M66.6,50.1c0-0.1,0-0.1,0-0.2  c0-0.4,0-0.8,0-1.2c0,0,0,0-0.1-0.1c-0.1,0-0.2,0.2-0.3,0.3c-0.1,0.2-0.1,0.3-0.1,0.5c0,0.2,0.1,0.4,0.2,0.5  C66.3,50,66.4,50.1,66.6,50.1z M49.6,12.4c0-0.3,0-0.5,0-0.8c-0.2,0.1-0.4,0-0.6,0.1c0,0.3,0,0.5,0,0.8  C49.2,12.5,49.4,12.5,49.6,12.4z M43,23.7c-0.1,0.3-0.1,0.5-0.1,0.8c0.2-0.1,0.3-0.3,0.3-0.4C43.1,23.9,43.1,23.8,43,23.7z M59.4,24  C59.4,23.9,59.4,23.9,59.4,24C59.3,24,59.3,24,59.4,24c-0.1,0.1,0,0.1,0,0.2C59.4,24,59.4,24,59.4,24z"></path><path d="M52.5,70.7c-0.1,0-0.1,0-0.2,0c-0.8,0-1.6,0-2.4,0c0,0-0.1,0-0.1,0c-0.1-0.2,0-0.3,0-0.5c0-3.6,0-7.2,0-10.7  c0-3.4,0-6.8,0-10.2c0-0.1,0-0.3,0-0.4c0-0.6,0.5-1,1-1c0.2,0,0.4,0,0.6,0c0.5,0,0.9,0.4,1,0.9c0,0.2,0,0.3,0,0.5  c0,3.5,0,6.9,0,10.4c0,3.5,0,7.1,0,10.6C52.5,70.4,52.5,70.5,52.5,70.7z"></path><path d="M53.7,70.7c0-1.8,0-3.6,0-5.3c0.1,0,0.2-0.1,0.2-0.1c1.5-0.4,3.1,0.6,3.5,2.1c0.4,1.5-0.6,3.1-2.2,3.4  C54.7,71,54.2,70.9,53.7,70.7z"></path><path d="M48.6,70.7c-0.9,0.4-2.3,0.2-3.2-1c-0.8-1-0.7-2.5,0.1-3.5c0.8-0.9,2.1-1.3,3.1-0.9c0,0,0,0,0,0c0,0,0,0,0,0  c0,0.1,0,0.2,0,0.2c0,1.6,0,3.3,0,4.9C48.6,70.7,48.6,70.7,48.6,70.7z"></path><path d="M51.1,76.5c1.7,1.7,3.5,3.5,5.2,5.2c0,0,0.1,0.1,0.1,0.1c-0.3,0.1-2.1,0.1-3.5,0c-0.3-0.3-0.6-0.6-0.9-0.9  c-0.3-0.3-0.6-0.6-0.9-0.9c-0.6,0.6-1.2,1.2-1.8,1.8c-1.2,0-2.3,0-3.5,0c-0.1-0.1,0-0.1,0.1-0.2c0.1-0.1,0.2-0.2,0.2-0.2  c1.5-1.5,3.1-3.1,4.6-4.6C50.9,76.7,51,76.6,51.1,76.5z"></path><path d="M45.9,82.6c1.1,0,2.3,0,3.5,0c0.3,0.3,0.6,0.6,0.9,0.9c0.3,0.3,0.6,0.6,0.9,0.9c0.6-0.6,1.2-1.2,1.8-1.8c1.2,0,2.3,0,3.5,0  c0.1,0.1,0,0.1-0.1,0.2c-0.1,0.1-0.2,0.2-0.3,0.3c-1.5,1.5-3.1,3.1-4.6,4.6c-0.1,0.1-0.2,0.2-0.3,0.3C49.4,86.2,47.6,84.5,45.9,82.6  C45.9,82.7,45.9,82.7,45.9,82.6z"></path></svg>